{"glyphs":{"0":{"ha":638,"x_min":43,"x_max":593,"o":"m 317 -10 q 116 114 189 -10 q 43 486 43 238 q 116 858 43 735 q 317 982 189 982 q 519 858 446 982 q 593 486 593 735 q 519 114 593 238 q 317 -10 446 -10 m 318 108 q 412 194 378 108 q 446 486 446 281 q 412 778 446 692 q 318 864 378 864 q 225 778 258 864 q 192 486 192 693 q 225 194 192 279 q 318 108 258 108 z "},"1":{"ha":638,"x_min":40,"x_max":581,"o":"m 88 0 q 63 12 71 0 q 56 50 56 24 l 56 68 q 63 106 56 94 q 88 118 71 118 l 261 118 l 261 831 l 74 801 q 49 828 57 801 q 40 885 40 856 q 68 915 40 908 l 357 976 q 389 967 374 976 q 404 946 404 958 l 404 118 l 549 118 q 573 106 565 118 q 581 68 581 94 l 581 50 q 573 12 581 24 q 549 0 565 0 l 88 0 z "},"2":{"ha":638,"x_min":33,"x_max":582,"o":"m 64 0 q 42 26 51 0 q 33 79 33 53 q 38 101 33 96 l 357 558 q 417 658 401 621 q 432 735 432 694 q 394 829 432 796 q 290 863 356 863 q 210 849 242 863 q 139 810 179 835 q 110 793 118 793 q 74 822 93 793 q 54 871 54 851 q 93 926 54 900 q 190 967 132 951 q 303 982 249 982 q 503 917 428 982 q 578 743 578 853 q 565 653 578 694 q 518 558 551 611 q 418 418 485 506 l 215 117 l 550 117 q 574 106 567 117 q 582 68 582 94 l 582 50 q 574 12 582 24 q 550 0 567 0 l 64 0 z "},"3":{"ha":638,"x_min":29,"x_max":579,"o":"m 286 -10 q 165 2 225 -10 q 67 35 106 14 q 29 81 29 56 q 49 130 29 100 q 83 160 69 160 q 115 147 90 160 q 183 119 150 129 q 261 108 217 108 q 382 151 331 108 q 433 286 433 193 q 386 416 433 376 q 249 456 339 456 l 194 456 q 170 467 178 456 q 163 506 163 479 l 163 524 q 170 561 163 550 q 194 572 178 572 l 240 572 q 333 598 296 572 q 386 661 369 624 q 403 735 403 699 q 370 825 403 788 q 263 863 338 863 q 192 853 221 863 q 140 831 164 843 q 111 818 117 818 q 78 849 97 818 q 58 900 58 879 q 131 958 58 935 q 282 982 204 982 q 476 918 404 982 q 547 742 547 854 q 509 617 547 667 q 408 542 471 567 l 408 536 q 531 447 482 514 q 579 279 579 381 q 541 122 579 188 q 436 24 503 57 q 286 -10 369 -10 z "},"4":{"ha":638,"x_min":14,"x_max":618,"o":"m 432 -3 q 379 32 379 -3 l 379 222 l 51 222 q 26 254 39 222 q 14 310 14 286 q 17 325 14 317 l 367 953 q 426 975 381 975 l 467 975 q 519 940 519 975 l 519 340 l 586 340 q 610 328 603 340 q 618 290 618 317 l 618 272 q 610 234 618 246 q 586 222 603 222 l 519 222 l 519 32 q 467 -3 519 -3 l 432 -3 m 378 340 l 378 576 q 392 751 378 664 l 386 754 l 158 340 l 378 340 z "},"5":{"ha":638,"x_min":44,"x_max":582,"o":"m 279 -10 q 159 3 213 -10 q 75 38 106 17 q 44 79 44 58 q 65 129 44 99 q 100 160 86 160 q 128 149 108 160 q 195 119 163 131 q 274 108 228 108 q 390 158 343 108 q 438 294 438 207 q 388 429 438 383 q 239 475 338 475 l 128 475 q 94 485 103 475 q 85 521 85 496 l 110 926 q 122 961 111 950 q 157 972 133 972 l 510 972 q 534 960 526 972 q 542 922 542 949 l 542 900 q 534 865 542 876 q 510 854 526 854 l 243 854 l 226 593 l 276 593 q 494 524 407 593 q 582 294 582 456 q 494 62 582 133 q 279 -10 406 -10 z "},"6":{"ha":638,"x_min":47,"x_max":590,"o":"m 317 -8 q 119 83 192 -8 q 47 342 47 174 q 133 686 47 543 q 327 903 219 829 q 483 976 435 976 q 520 944 506 976 q 535 890 535 911 q 522 871 535 875 q 322 735 400 822 q 214 531 244 647 q 358 572 278 572 q 474 539 421 572 q 558 441 526 506 q 590 288 590 376 q 553 128 590 194 q 454 26 517 61 q 317 -8 392 -8 m 319 110 q 412 156 372 110 q 451 283 451 201 q 412 410 451 367 q 313 454 372 454 q 193 417 254 454 q 190 335 190 361 q 228 161 190 213 q 319 110 265 110 z "},"7":{"ha":638,"x_min":42,"x_max":594,"o":"m 164 -3 q 115 3 131 -3 q 100 22 100 8 q 107 44 100 24 l 433 854 l 74 854 q 49 866 57 854 q 42 904 42 878 l 42 922 q 49 960 42 949 q 74 972 57 972 l 563 972 q 583 941 572 972 q 594 886 594 910 q 592 869 594 878 l 253 21 q 190 -3 243 -3 l 164 -3 z "},"8":{"ha":638,"x_min":50,"x_max":590,"o":"m 319 -10 q 124 64 197 -10 q 50 269 50 138 q 186 518 50 447 q 106 606 135 554 q 78 735 78 657 q 146 917 78 851 q 324 982 214 982 q 499 919 429 982 q 568 744 568 857 q 444 524 568 590 q 551 428 513 485 q 590 272 590 371 q 517 67 590 144 q 319 -10 444 -10 m 340 581 q 432 739 432 640 q 401 832 432 800 q 322 864 369 864 q 246 833 276 864 q 215 742 215 801 q 247 647 215 681 q 340 581 279 613 m 319 108 q 413 153 376 108 q 449 269 449 199 q 427 357 449 322 q 374 412 406 392 q 286 460 343 432 q 216 385 240 428 q 192 276 192 342 q 227 151 192 193 q 319 108 263 108 z "},"9":{"ha":638,"x_min":47,"x_max":592,"o":"m 157 -7 q 119 25 133 -7 q 104 79 104 57 q 117 99 104 94 q 316 235 239 147 q 425 439 393 322 q 279 397 361 397 q 164 431 217 397 q 79 528 111 464 q 47 681 47 592 q 85 841 47 774 q 185 943 122 908 q 322 978 247 978 q 519 887 447 978 q 592 628 592 796 q 506 283 592 426 q 313 67 419 140 q 157 -7 206 -7 m 325 515 q 444 554 382 515 q 449 635 449 594 q 411 808 449 757 q 318 860 374 860 q 256 840 286 860 q 207 781 226 819 q 188 686 188 742 q 227 558 188 601 q 325 515 267 515 z "},"\u0000":{"ha":0,"x_min":0,"x_max":0,"o":""},"\r":{"ha":190,"x_min":0,"x_max":0,"o":""}," ":{"ha":190,"x_min":0,"x_max":0,"o":""},"A":{"ha":701,"x_min":14,"x_max":688,"o":"m 69 -3 q 14 22 14 -3 q 17 43 14 26 l 257 944 q 321 975 267 975 l 379 975 q 443 944 438 975 l 683 43 q 688 22 688 31 q 633 -3 688 -3 l 596 -3 q 539 21 544 -3 l 486 232 l 213 232 l 161 21 q 106 -3 156 -3 l 69 -3 m 458 357 l 369 713 q 354 803 364 735 l 347 803 l 342 769 q 331 713 339 746 l 243 357 l 458 357 z "},"Á":{"ha":701,"x_min":14,"x_max":688,"o":"m 69 -3 q 14 22 14 -3 q 17 43 14 26 l 257 944 q 321 975 267 975 l 379 975 q 443 944 438 975 l 683 43 q 688 22 688 31 q 633 -3 688 -3 l 596 -3 q 539 21 544 -3 l 486 232 l 213 232 l 161 21 q 106 -3 156 -3 l 69 -3 m 458 357 l 369 713 q 354 803 364 735 l 347 803 l 342 769 q 331 713 339 746 l 243 357 l 458 357 m 338 1054 q 311 1058 318 1054 q 304 1071 304 1061 q 315 1103 304 1079 q 347 1169 326 1128 l 375 1226 q 463 1264 393 1264 q 510 1260 496 1264 q 525 1244 525 1256 q 513 1218 525 1236 q 474 1164 501 1200 q 449 1132 464 1151 q 413 1082 435 1113 q 385 1061 403 1068 q 338 1054 368 1054 z "},"Ă":{"ha":701,"x_min":14,"x_max":688,"o":"m 69 -3 q 14 22 14 -3 q 17 43 14 26 l 257 944 q 321 975 267 975 l 379 975 q 443 944 438 975 l 683 43 q 688 22 688 31 q 633 -3 688 -3 l 596 -3 q 539 21 544 -3 l 486 232 l 213 232 l 161 21 q 106 -3 156 -3 l 69 -3 m 458 357 l 369 713 q 354 803 364 735 l 347 803 l 342 769 q 331 713 339 746 l 243 357 l 458 357 m 351 1054 q 230 1097 276 1054 q 183 1211 183 1140 q 217 1239 183 1239 q 236 1233 231 1239 q 250 1207 242 1226 q 285 1169 261 1182 q 351 1156 308 1156 q 453 1208 432 1156 q 465 1233 460 1226 q 485 1239 471 1239 q 518 1211 518 1239 q 472 1097 518 1140 q 351 1054 425 1054 z "},"Ắ":{"ha":682,"x_min":14,"x_max":688,"o":"m 324 1182 q 300 1185 307 1182 q 293 1199 293 1189 q 307 1242 293 1208 q 349 1336 321 1275 q 432 1374 365 1374 q 467 1369 457 1374 q 478 1351 478 1364 q 463 1319 478 1342 q 382 1206 449 1297 q 359 1188 372 1193 q 324 1182 346 1182 m 342 1054 q 220 1092 267 1054 q 174 1186 174 1129 q 181 1213 174 1206 q 206 1221 189 1221 q 226 1214 219 1221 q 240 1189 232 1207 q 276 1151 251 1168 q 342 1135 300 1135 q 409 1151 385 1135 q 443 1190 433 1168 q 456 1214 450 1207 q 476 1221 463 1221 q 508 1186 508 1221 q 462 1092 508 1131 q 342 1054 415 1054 m 69 -3 q 14 22 14 -3 q 17 43 14 26 l 257 944 q 321 975 267 975 l 379 975 q 443 944 438 975 l 683 43 q 688 22 688 31 q 633 -3 688 -3 l 596 -3 q 539 21 544 -3 l 486 232 l 213 232 l 161 21 q 106 -3 156 -3 l 69 -3 m 458 357 l 369 713 q 354 803 364 735 l 347 803 l 342 769 q 331 713 339 746 l 243 357 l 458 357 z "},"Ặ":{"ha":701,"x_min":14,"x_max":688,"o":"m 69 -3 q 14 22 14 -3 q 17 43 14 26 l 257 944 q 321 975 267 975 l 379 975 q 443 944 438 975 l 683 43 q 688 22 688 31 q 633 -3 688 -3 l 596 -3 q 539 21 544 -3 l 486 232 l 213 232 l 161 21 q 106 -3 156 -3 l 69 -3 m 458 357 l 369 713 q 354 803 364 735 l 347 803 l 342 769 q 331 713 339 746 l 243 357 l 458 357 m 357 -254 q 285 -219 285 -254 l 285 -146 q 357 -111 285 -111 q 429 -146 429 -111 l 429 -219 q 357 -254 429 -254 m 351 1054 q 230 1097 276 1054 q 183 1211 183 1140 q 217 1239 183 1239 q 236 1233 231 1239 q 250 1207 242 1226 q 285 1169 261 1182 q 351 1156 308 1156 q 453 1208 432 1156 q 465 1233 460 1226 q 485 1239 471 1239 q 518 1211 518 1239 q 472 1097 518 1140 q 351 1054 425 1054 z "},"Ằ":{"ha":682,"x_min":14,"x_max":688,"o":"m 371 1182 q 313 1207 331 1182 l 271 1268 q 231 1326 243 1307 q 219 1353 219 1344 q 231 1369 219 1364 q 269 1374 242 1374 q 353 1336 336 1374 q 404 1199 404 1217 q 397 1185 404 1189 q 371 1182 389 1182 m 342 1054 q 220 1092 267 1054 q 174 1186 174 1129 q 181 1213 174 1206 q 206 1221 189 1221 q 226 1214 219 1221 q 240 1189 232 1207 q 276 1151 251 1168 q 342 1135 300 1135 q 409 1151 385 1135 q 443 1190 433 1168 q 456 1214 450 1207 q 476 1221 463 1221 q 508 1186 508 1221 q 462 1092 508 1131 q 342 1054 415 1054 m 69 -3 q 14 22 14 -3 q 17 43 14 26 l 257 944 q 321 975 267 975 l 379 975 q 443 944 438 975 l 683 43 q 688 22 688 31 q 633 -3 688 -3 l 596 -3 q 539 21 544 -3 l 486 232 l 213 232 l 161 21 q 106 -3 156 -3 l 69 -3 m 458 357 l 369 713 q 354 803 364 735 l 347 803 l 342 769 q 331 713 339 746 l 243 357 l 458 357 z "},"Ẳ":{"ha":682,"x_min":14,"x_max":688,"o":"m 344 1192 q 306 1201 321 1192 q 290 1221 290 1210 q 299 1235 290 1228 q 322 1249 308 1242 q 365 1296 365 1271 q 352 1322 365 1313 q 321 1331 339 1331 q 274 1320 290 1331 q 254 1310 257 1310 q 232 1329 246 1310 q 218 1360 218 1349 q 254 1386 218 1374 q 328 1399 290 1399 q 413 1375 375 1399 q 450 1306 450 1351 q 404 1222 450 1261 q 371 1201 389 1211 q 344 1192 353 1192 m 342 1054 q 220 1092 267 1054 q 174 1186 174 1129 q 181 1213 174 1206 q 206 1221 189 1221 q 226 1214 219 1221 q 240 1189 232 1207 q 276 1151 251 1168 q 342 1135 300 1135 q 409 1151 385 1135 q 443 1190 433 1168 q 456 1214 450 1207 q 476 1221 463 1221 q 508 1186 508 1221 q 462 1092 508 1131 q 342 1054 415 1054 m 69 -3 q 14 22 14 -3 q 17 43 14 26 l 257 944 q 321 975 267 975 l 379 975 q 443 944 438 975 l 683 43 q 688 22 688 31 q 633 -3 688 -3 l 596 -3 q 539 21 544 -3 l 486 232 l 213 232 l 161 21 q 106 -3 156 -3 l 69 -3 m 458 357 l 369 713 q 354 803 364 735 l 347 803 l 342 769 q 331 713 339 746 l 243 357 l 458 357 z "},"Ẵ":{"ha":682,"x_min":14,"x_max":688,"o":"m 171 1265 q 154 1288 154 1272 q 158 1307 154 1297 q 265 1403 190 1403 q 303 1396 283 1403 q 353 1375 322 1389 q 381 1363 357 1374 q 422 1351 406 1351 q 444 1358 435 1351 q 465 1383 454 1365 q 493 1406 478 1406 q 507 1401 499 1406 l 517 1397 q 532 1388 528 1393 q 536 1375 536 1383 q 532 1356 536 1367 q 425 1260 497 1260 q 390 1266 408 1260 q 356 1279 372 1272 q 336 1288 340 1286 q 298 1304 317 1297 q 267 1311 279 1311 q 245 1304 254 1311 q 224 1278 236 1297 q 199 1258 213 1258 q 183 1261 194 1258 l 171 1265 m 342 1036 q 220 1074 267 1036 q 174 1168 174 1111 q 181 1195 174 1188 q 206 1203 189 1203 q 226 1196 219 1203 q 240 1171 232 1189 q 276 1133 251 1150 q 342 1117 300 1117 q 409 1133 385 1117 q 443 1172 433 1150 q 456 1196 450 1189 q 476 1203 463 1203 q 500 1195 492 1203 q 508 1168 508 1188 q 462 1074 508 1113 q 342 1036 415 1036 m 69 -3 q 14 22 14 -3 q 17 43 14 26 l 257 944 q 321 975 267 975 l 379 975 q 443 944 438 975 l 683 43 q 688 22 688 31 q 633 -3 688 -3 l 596 -3 q 539 21 544 -3 l 486 232 l 213 232 l 161 21 q 106 -3 156 -3 l 69 -3 m 458 357 l 369 713 q 354 803 364 735 l 347 803 l 342 769 q 331 713 339 746 l 243 357 l 458 357 z "},"Â":{"ha":701,"x_min":14,"x_max":688,"o":"m 69 -3 q 14 22 14 -3 q 17 43 14 26 l 257 944 q 321 975 267 975 l 379 975 q 443 944 438 975 l 683 43 q 688 22 688 31 q 633 -3 688 -3 l 596 -3 q 539 21 544 -3 l 486 232 l 213 232 l 161 21 q 106 -3 156 -3 l 69 -3 m 458 357 l 369 713 q 354 803 364 735 l 347 803 l 342 769 q 331 713 339 746 l 243 357 l 458 357 m 221 1044 q 200 1049 207 1044 q 193 1061 193 1054 q 203 1086 193 1067 l 278 1214 q 343 1243 297 1243 l 358 1243 q 422 1214 403 1243 l 499 1086 q 508 1063 508 1072 q 481 1044 508 1044 l 450 1044 q 406 1065 418 1044 l 350 1156 l 296 1065 q 250 1044 281 1044 l 221 1044 z "},"Ấ":{"ha":682,"x_min":14,"x_max":688,"o":"m 479 1181 q 456 1184 463 1181 q 449 1197 449 1188 q 463 1240 449 1207 q 504 1335 476 1274 q 588 1372 521 1372 q 623 1367 613 1372 q 633 1350 633 1363 q 619 1318 633 1340 q 538 1204 604 1296 q 515 1186 528 1192 q 479 1181 501 1181 m 219 1044 q 192 1061 192 1044 q 199 1086 192 1072 l 268 1214 q 332 1243 285 1243 l 349 1243 q 388 1237 372 1243 q 413 1214 404 1231 l 482 1086 q 490 1063 490 1069 q 483 1049 490 1054 q 463 1044 475 1044 l 433 1044 q 388 1064 399 1044 l 340 1156 l 293 1065 q 276 1049 288 1053 q 249 1044 265 1044 l 219 1044 m 69 -3 q 14 22 14 -3 q 17 43 14 26 l 257 944 q 321 975 267 975 l 379 975 q 443 944 438 975 l 683 43 q 688 22 688 31 q 633 -3 688 -3 l 596 -3 q 539 21 544 -3 l 486 232 l 213 232 l 161 21 q 106 -3 156 -3 l 69 -3 m 458 357 l 369 713 q 354 803 364 735 l 347 803 l 342 769 q 331 713 339 746 l 243 357 l 458 357 z "},"Ậ":{"ha":701,"x_min":14,"x_max":688,"o":"m 69 -3 q 14 22 14 -3 q 17 43 14 26 l 257 944 q 321 975 267 975 l 379 975 q 443 944 438 975 l 683 43 q 688 22 688 31 q 633 -3 688 -3 l 596 -3 q 539 21 544 -3 l 486 232 l 213 232 l 161 21 q 106 -3 156 -3 l 69 -3 m 458 357 l 369 713 q 354 803 364 735 l 347 803 l 342 769 q 331 713 339 746 l 243 357 l 458 357 m 357 -254 q 285 -219 285 -254 l 285 -146 q 357 -111 285 -111 q 429 -146 429 -111 l 429 -219 q 357 -254 429 -254 m 221 1044 q 200 1049 207 1044 q 193 1061 193 1054 q 203 1086 193 1067 l 278 1214 q 343 1243 297 1243 l 358 1243 q 422 1214 403 1243 l 499 1086 q 508 1063 508 1072 q 481 1044 508 1044 l 450 1044 q 406 1065 418 1044 l 350 1156 l 296 1065 q 250 1044 281 1044 l 221 1044 z "},"Ầ":{"ha":682,"x_min":14,"x_max":688,"o":"m 533 1181 q 474 1206 492 1181 l 450 1240 q 398 1318 414 1293 q 382 1351 382 1343 q 393 1367 382 1363 q 431 1372 404 1372 q 514 1335 499 1372 q 553 1240 540 1274 q 565 1197 565 1207 q 558 1184 565 1188 q 533 1181 550 1181 m 219 1044 q 192 1061 192 1044 q 199 1086 192 1072 l 268 1214 q 332 1243 285 1243 l 349 1243 q 388 1237 372 1243 q 413 1214 404 1231 l 482 1086 q 490 1063 490 1069 q 483 1049 490 1054 q 463 1044 475 1044 l 433 1044 q 388 1064 399 1044 l 340 1156 l 293 1065 q 276 1049 288 1053 q 249 1044 265 1044 l 219 1044 m 69 -3 q 14 22 14 -3 q 17 43 14 26 l 257 944 q 321 975 267 975 l 379 975 q 443 944 438 975 l 683 43 q 688 22 688 31 q 633 -3 688 -3 l 596 -3 q 539 21 544 -3 l 486 232 l 213 232 l 161 21 q 106 -3 156 -3 l 69 -3 m 458 357 l 369 713 q 354 803 364 735 l 347 803 l 342 769 q 331 713 339 746 l 243 357 l 458 357 z "},"Ẩ":{"ha":682,"x_min":14,"x_max":688,"o":"m 500 1190 q 461 1199 476 1190 q 446 1219 446 1208 q 455 1233 446 1226 q 478 1247 464 1240 q 521 1294 521 1269 q 508 1320 521 1311 q 476 1329 494 1329 q 429 1319 446 1329 q 410 1308 413 1308 q 388 1328 401 1308 q 374 1358 374 1347 q 410 1385 374 1372 q 482 1397 446 1397 q 567 1374 531 1397 q 604 1304 604 1350 q 560 1221 604 1258 q 526 1200 544 1210 q 500 1190 508 1190 m 219 1044 q 192 1061 192 1044 q 199 1086 192 1072 l 268 1214 q 332 1243 285 1243 l 349 1243 q 388 1237 372 1243 q 413 1214 404 1231 l 482 1086 q 490 1063 490 1069 q 483 1049 490 1054 q 463 1044 475 1044 l 433 1044 q 388 1064 399 1044 l 340 1156 l 293 1065 q 276 1049 288 1053 q 249 1044 265 1044 l 219 1044 m 69 -3 q 14 22 14 -3 q 17 43 14 26 l 257 944 q 321 975 267 975 l 379 975 q 443 944 438 975 l 683 43 q 688 22 688 31 q 633 -3 688 -3 l 596 -3 q 539 21 544 -3 l 486 232 l 213 232 l 161 21 q 106 -3 156 -3 l 69 -3 m 458 357 l 369 713 q 354 803 364 735 l 347 803 l 342 769 q 331 713 339 746 l 243 357 l 458 357 z "},"Ẫ":{"ha":682,"x_min":14,"x_max":688,"o":"m 169 1251 q 157 1260 161 1254 q 153 1274 153 1267 q 157 1293 153 1281 q 264 1389 192 1389 q 350 1361 292 1389 q 421 1338 400 1338 q 444 1344 435 1338 q 464 1369 453 1350 q 492 1392 476 1392 q 507 1388 499 1392 l 517 1383 q 536 1361 536 1375 q 535 1350 536 1354 q 532 1342 533 1346 q 425 1246 497 1246 q 388 1253 410 1246 q 354 1265 367 1260 q 335 1274 342 1271 q 297 1290 315 1283 q 265 1297 278 1297 q 244 1290 253 1297 q 224 1264 235 1283 q 210 1248 215 1253 q 197 1243 206 1243 q 183 1246 194 1243 l 169 1251 m 219 1044 q 192 1063 192 1044 q 203 1089 192 1067 l 268 1183 q 295 1206 281 1199 q 333 1213 310 1213 l 350 1213 q 414 1183 393 1213 l 481 1089 q 490 1063 490 1074 q 464 1044 490 1044 l 433 1044 q 388 1064 404 1044 l 340 1138 l 296 1065 q 277 1049 288 1054 q 249 1044 267 1044 l 219 1044 m 69 -3 q 14 22 14 -3 q 17 43 14 26 l 257 944 q 321 975 267 975 l 379 975 q 443 944 438 975 l 683 43 q 688 22 688 31 q 633 -3 688 -3 l 596 -3 q 539 21 544 -3 l 486 232 l 213 232 l 161 21 q 106 -3 156 -3 l 69 -3 m 458 357 l 369 713 q 354 803 364 735 l 347 803 l 342 769 q 331 713 339 746 l 243 357 l 458 357 z "},"Ä":{"ha":701,"x_min":14,"x_max":688,"o":"m 69 -3 q 14 22 14 -3 q 17 43 14 26 l 257 944 q 321 975 267 975 l 379 975 q 443 944 438 975 l 683 43 q 688 22 688 31 q 633 -3 688 -3 l 596 -3 q 539 21 544 -3 l 486 232 l 213 232 l 161 21 q 106 -3 156 -3 l 69 -3 m 458 357 l 369 713 q 354 803 364 735 l 347 803 l 342 769 q 331 713 339 746 l 243 357 l 458 357 m 257 1078 q 197 1113 197 1078 l 197 1186 q 258 1221 197 1221 q 319 1186 319 1221 l 319 1113 q 257 1078 319 1078 m 447 1078 q 386 1113 386 1078 l 386 1186 q 449 1221 386 1221 q 508 1186 508 1221 l 508 1113 q 447 1078 508 1078 z "},"Ạ":{"ha":701,"x_min":14,"x_max":688,"o":"m 69 -3 q 14 22 14 -3 q 17 43 14 26 l 257 944 q 321 975 267 975 l 379 975 q 443 944 438 975 l 683 43 q 688 22 688 31 q 633 -3 688 -3 l 596 -3 q 539 21 544 -3 l 486 232 l 213 232 l 161 21 q 106 -3 156 -3 l 69 -3 m 458 357 l 369 713 q 354 803 364 735 l 347 803 l 342 769 q 331 713 339 746 l 243 357 l 458 357 m 357 -254 q 285 -219 285 -254 l 285 -146 q 357 -111 285 -111 q 429 -146 429 -111 l 429 -219 q 357 -254 429 -254 z "},"À":{"ha":701,"x_min":14,"x_max":688,"o":"m 69 -3 q 14 22 14 -3 q 17 43 14 26 l 257 944 q 321 975 267 975 l 379 975 q 443 944 438 975 l 683 43 q 688 22 688 31 q 633 -3 688 -3 l 596 -3 q 539 21 544 -3 l 486 232 l 213 232 l 161 21 q 106 -3 156 -3 l 69 -3 m 458 357 l 369 713 q 354 803 364 735 l 347 803 l 342 769 q 331 713 339 746 l 243 357 l 458 357 m 381 1054 q 306 1082 324 1054 l 261 1140 q 203 1219 214 1203 q 192 1244 192 1235 q 207 1260 192 1256 q 256 1264 222 1264 q 343 1226 324 1264 q 394 1119 376 1157 q 413 1071 413 1081 q 406 1058 413 1061 q 381 1054 399 1054 z "},"Ả":{"ha":701,"x_min":14,"x_max":688,"o":"m 69 -3 q 14 22 14 -3 q 17 43 14 26 l 257 944 q 321 975 267 975 l 379 975 q 443 944 438 975 l 683 43 q 688 22 688 31 q 633 -3 688 -3 l 596 -3 q 539 21 544 -3 l 486 232 l 213 232 l 161 21 q 106 -3 156 -3 l 69 -3 m 458 357 l 369 713 q 354 803 364 735 l 347 803 l 342 769 q 331 713 339 746 l 243 357 l 458 357 m 368 1031 q 333 1040 353 1031 q 314 1057 314 1049 q 322 1075 314 1067 q 349 1100 329 1083 q 388 1137 374 1119 q 401 1178 401 1154 q 388 1203 401 1194 q 353 1213 374 1213 q 309 1204 325 1213 q 290 1196 293 1196 q 268 1215 282 1196 q 254 1244 254 1233 q 291 1273 254 1258 q 364 1288 328 1288 q 458 1263 418 1288 q 499 1186 499 1238 q 472 1112 499 1147 q 413 1053 446 1076 q 368 1031 381 1031 z "},"Ā":{"ha":701,"x_min":14,"x_max":688,"o":"m 69 -3 q 14 22 14 -3 q 17 43 14 26 l 257 944 q 321 975 267 975 l 379 975 q 443 944 438 975 l 683 43 q 688 22 688 31 q 633 -3 688 -3 l 596 -3 q 539 21 544 -3 l 486 232 l 213 232 l 161 21 q 106 -3 156 -3 l 69 -3 m 458 357 l 369 713 q 354 803 364 735 l 347 803 l 342 769 q 331 713 339 746 l 243 357 l 458 357 m 218 1090 q 188 1136 188 1090 l 188 1151 q 218 1197 188 1197 l 492 1197 q 515 1186 508 1197 q 522 1151 522 1175 l 522 1136 q 515 1101 522 1113 q 492 1090 508 1090 l 218 1090 z "},"Ą":{"ha":701,"x_min":14,"x_max":729,"o":"m 697 -140 q 729 -176 729 -140 q 710 -215 729 -203 q 621 -239 672 -239 q 518 -199 544 -239 q 492 -114 492 -158 q 502 -45 492 -83 q 538 28 513 -7 l 486 232 l 213 232 l 161 21 q 106 -3 156 -3 l 69 -3 q 14 22 14 -3 q 17 43 14 26 l 257 944 q 321 975 267 975 l 379 975 q 443 944 438 975 l 683 43 q 688 22 688 31 q 633 -3 688 -3 l 600 -3 q 579 -89 579 -51 q 599 -136 579 -124 q 647 -149 618 -149 q 676 -144 658 -149 q 697 -140 693 -140 m 458 357 l 369 713 q 354 803 364 735 l 347 803 l 342 769 q 331 713 339 746 l 243 357 l 458 357 z "},"Å":{"ha":701,"x_min":14,"x_max":688,"o":"m 69 -3 q 14 22 14 -3 q 17 43 14 26 l 257 944 q 321 975 267 975 l 379 975 q 443 944 438 975 l 683 43 q 688 22 688 31 q 633 -3 688 -3 l 596 -3 q 539 21 544 -3 l 486 232 l 213 232 l 161 21 q 106 -3 156 -3 l 69 -3 m 458 357 l 369 713 q 354 803 364 735 l 347 803 l 342 769 q 331 713 339 746 l 243 357 l 458 357 m 349 1024 q 261 1058 294 1024 q 228 1146 228 1092 q 261 1236 228 1201 q 349 1271 294 1271 q 438 1236 404 1271 q 471 1146 471 1201 q 438 1058 471 1092 q 349 1024 404 1024 m 349 1083 q 394 1099 378 1083 q 410 1146 410 1115 q 394 1193 410 1176 q 349 1210 378 1210 q 304 1193 319 1210 q 288 1146 289 1176 q 349 1083 290 1083 z "},"Ǻ":{"ha":701,"x_min":14,"x_max":688,"o":"m 340 1210 q 310 1226 310 1210 q 324 1269 310 1236 q 365 1365 338 1303 q 449 1401 382 1401 q 484 1397 474 1401 q 494 1379 494 1392 q 478 1347 494 1371 q 429 1275 463 1322 l 399 1233 q 340 1210 378 1210 m 683 43 q 688 22 688 31 q 633 -3 688 -3 l 596 -3 q 539 21 544 -3 l 486 232 l 213 232 l 161 21 q 106 -3 156 -3 l 69 -3 q 14 22 14 -3 q 17 43 14 26 l 257 944 q 268 961 261 957 q 229 1054 229 993 q 263 1144 229 1110 q 350 1179 296 1179 q 439 1144 406 1179 q 472 1054 472 1110 q 433 961 472 996 q 443 944 440 956 l 683 43 m 350 1118 q 306 1101 321 1118 q 289 1054 290 1085 q 350 992 292 992 q 395 1008 379 992 q 411 1054 411 1024 q 395 1101 411 1085 q 350 1118 379 1118 m 458 357 l 369 713 q 354 803 364 735 l 347 803 l 342 769 q 331 713 339 746 l 243 357 l 458 357 z "},"Ã":{"ha":701,"x_min":14,"x_max":688,"o":"m 69 -3 q 14 22 14 -3 q 17 43 14 26 l 257 944 q 321 975 267 975 l 379 975 q 443 944 438 975 l 683 43 q 688 22 688 31 q 633 -3 688 -3 l 596 -3 q 539 21 544 -3 l 486 232 l 213 232 l 161 21 q 106 -3 156 -3 l 69 -3 m 458 357 l 369 713 q 354 803 364 735 l 347 803 l 342 769 q 331 713 339 746 l 243 357 l 458 357 m 161 1068 q 142 1090 142 1075 q 146 1110 142 1100 q 264 1206 182 1206 q 360 1178 296 1206 q 392 1165 365 1175 q 436 1154 418 1154 q 460 1161 450 1154 q 483 1186 471 1168 q 514 1208 497 1208 q 531 1204 519 1208 l 542 1200 q 558 1191 553 1196 q 563 1178 563 1186 q 557 1158 563 1172 q 439 1063 519 1063 q 397 1069 418 1063 q 342 1090 375 1076 q 300 1107 321 1100 q 264 1114 279 1114 q 242 1107 251 1114 q 219 1081 232 1100 q 190 1061 206 1061 q 175 1064 186 1061 l 161 1068 z "},"Æ":{"ha":1036,"x_min":3,"x_max":954,"o":"m 64 -3 q 3 22 3 -3 q 7 46 3 33 l 358 935 q 378 963 367 954 q 407 972 389 972 l 922 972 q 953 922 953 972 l 953 894 q 922 844 953 844 l 558 844 l 599 561 l 892 561 q 922 511 922 561 l 922 483 q 892 433 922 433 l 618 433 l 663 128 l 924 128 q 954 78 954 128 l 954 50 q 924 0 954 0 l 568 0 q 541 10 550 0 q 529 40 532 19 l 503 232 l 225 232 l 144 21 q 96 -3 133 -3 l 64 -3 m 274 360 l 485 360 l 438 701 l 436 788 l 432 788 l 404 703 l 274 360 z "},"Ǽ":{"ha":1036,"x_min":3,"x_max":954,"o":"m 64 -3 q 3 22 3 -3 q 7 46 3 33 l 358 935 q 378 963 367 954 q 407 972 389 972 l 922 972 q 953 922 953 972 l 953 894 q 922 844 953 844 l 558 844 l 599 561 l 892 561 q 922 511 922 561 l 922 483 q 892 433 922 433 l 618 433 l 663 128 l 924 128 q 954 78 954 128 l 954 50 q 924 0 954 0 l 568 0 q 541 10 550 0 q 529 40 532 19 l 503 232 l 225 232 l 144 21 q 96 -3 133 -3 l 64 -3 m 274 360 l 485 360 l 438 701 l 436 788 l 432 788 l 404 703 l 274 360 m 528 1054 q 501 1058 508 1054 q 494 1071 494 1061 q 506 1103 494 1079 q 538 1169 517 1128 l 565 1226 q 653 1264 583 1264 q 701 1260 686 1264 q 715 1244 715 1256 q 703 1218 715 1236 q 664 1164 692 1200 q 640 1132 654 1151 q 603 1082 625 1113 q 576 1061 593 1068 q 528 1054 558 1054 z "},"B":{"ha":749,"x_min":100,"x_max":688,"o":"m 143 0 q 110 11 121 0 q 100 46 100 22 l 100 926 q 110 961 100 950 q 143 972 121 972 l 385 972 q 588 908 521 972 q 656 729 656 843 q 619 596 656 657 q 531 514 583 535 l 532 508 q 638 435 589 489 q 688 278 688 382 q 612 70 688 140 q 386 0 536 0 l 143 0 m 379 560 q 472 601 438 560 q 506 710 506 643 q 474 815 506 782 q 378 849 443 849 l 249 849 l 249 560 l 379 560 m 406 124 q 502 167 468 124 q 536 288 536 210 q 499 399 536 361 q 392 438 463 438 l 249 438 l 249 124 l 406 124 z "},"C":{"ha":638,"x_min":64,"x_max":610,"o":"m 428 -10 q 152 111 240 -10 q 64 488 64 232 q 154 860 64 738 q 431 982 244 982 q 503 975 467 982 q 565 958 539 968 q 588 942 582 953 q 594 913 594 931 q 580 847 593 879 q 544 825 567 814 q 433 850 492 850 q 272 762 324 850 q 219 488 219 674 q 272 212 219 301 q 433 122 324 122 q 553 151 497 122 q 565 154 561 154 q 598 126 586 154 q 610 67 610 99 q 574 18 610 33 q 510 -1 549 7 q 428 -10 471 -10 z "},"Ć":{"ha":638,"x_min":64,"x_max":610,"o":"m 428 -10 q 152 111 240 -10 q 64 488 64 232 q 154 860 64 738 q 431 982 244 982 q 503 975 467 982 q 565 958 539 968 q 588 942 582 953 q 594 913 594 931 q 580 847 593 879 q 544 825 567 814 q 433 850 492 850 q 272 762 324 850 q 219 488 219 674 q 272 212 219 301 q 433 122 324 122 q 553 151 497 122 q 565 154 561 154 q 598 126 586 154 q 610 67 610 99 q 574 18 610 33 q 510 -1 549 7 q 428 -10 471 -10 m 399 1054 q 372 1058 379 1054 q 365 1071 365 1061 q 376 1103 365 1079 q 408 1169 388 1128 l 436 1226 q 524 1264 454 1264 q 572 1260 557 1264 q 586 1244 586 1256 q 574 1218 586 1236 q 535 1164 563 1200 q 510 1132 525 1151 q 474 1082 496 1113 q 447 1061 464 1068 q 399 1054 429 1054 z "},"Č":{"ha":638,"x_min":64,"x_max":610,"o":"m 428 -10 q 152 111 240 -10 q 64 488 64 232 q 154 860 64 738 q 431 982 244 982 q 503 975 467 982 q 565 958 539 968 q 588 942 582 953 q 594 913 594 931 q 580 847 593 879 q 544 825 567 814 q 433 850 492 850 q 272 762 324 850 q 219 488 219 674 q 272 212 219 301 q 433 122 324 122 q 553 151 497 122 q 565 154 561 154 q 598 126 586 154 q 610 67 610 99 q 574 18 610 33 q 510 -1 549 7 q 428 -10 471 -10 m 404 1051 q 340 1081 358 1051 l 265 1207 q 256 1232 256 1226 q 283 1250 256 1250 l 313 1250 q 358 1228 344 1250 l 413 1139 l 468 1228 q 513 1250 481 1250 l 543 1250 q 571 1231 571 1250 q 561 1207 571 1224 l 485 1081 q 460 1058 475 1064 q 422 1051 444 1051 l 404 1051 z "},"Ç":{"ha":638,"x_min":64,"x_max":610,"o":"m 553 151 q 565 154 561 154 q 598 126 586 154 q 610 67 610 99 q 574 18 610 33 q 454 -8 526 -4 l 435 -78 q 503 -103 474 -81 q 533 -175 533 -125 q 496 -265 533 -237 q 397 -293 458 -293 q 305 -274 349 -293 q 261 -229 261 -256 q 272 -200 261 -214 q 293 -186 283 -186 q 326 -197 301 -186 q 388 -215 363 -215 q 417 -206 404 -215 q 431 -179 431 -197 q 420 -153 431 -161 q 389 -137 410 -144 q 365 -125 372 -131 q 358 -110 358 -119 q 365 -78 358 -101 q 388 -8 372 -54 q 142 124 221 4 q 64 488 64 244 q 154 860 64 738 q 431 982 244 982 q 503 975 467 982 q 565 958 539 968 q 588 942 582 953 q 594 913 594 931 q 580 847 593 879 q 544 825 567 814 q 433 850 492 850 q 272 762 324 850 q 219 488 219 674 q 272 212 219 301 q 433 122 324 122 q 553 151 497 122 z "},"Ĉ":{"ha":638,"x_min":64,"x_max":610,"o":"m 428 -10 q 152 111 240 -10 q 64 488 64 232 q 154 860 64 738 q 431 982 244 982 q 503 975 467 982 q 565 958 539 968 q 588 942 582 953 q 594 913 594 931 q 580 847 593 879 q 544 825 567 814 q 433 850 492 850 q 272 762 324 850 q 219 488 219 674 q 272 212 219 301 q 433 122 324 122 q 553 151 497 122 q 565 154 561 154 q 598 126 586 154 q 610 67 610 99 q 574 18 610 33 q 510 -1 549 7 q 428 -10 471 -10 m 282 1044 q 261 1049 268 1044 q 254 1061 254 1054 q 264 1086 254 1067 l 339 1214 q 404 1243 358 1243 l 419 1243 q 483 1214 464 1243 l 560 1086 q 569 1063 569 1072 q 542 1044 569 1044 l 511 1044 q 467 1065 479 1044 l 411 1156 l 357 1065 q 311 1044 342 1044 l 282 1044 z "},"Ċ":{"ha":638,"x_min":64,"x_max":610,"o":"m 428 -10 q 152 111 240 -10 q 64 488 64 232 q 154 860 64 738 q 431 982 244 982 q 503 975 467 982 q 565 958 539 968 q 588 942 582 953 q 594 913 594 931 q 580 847 593 879 q 544 825 567 814 q 433 850 492 850 q 272 762 324 850 q 219 488 219 674 q 272 212 219 301 q 433 122 324 122 q 553 151 497 122 q 565 154 561 154 q 598 126 586 154 q 610 67 610 99 q 574 18 610 33 q 510 -1 549 7 q 428 -10 471 -10 m 414 1078 q 342 1113 342 1078 l 342 1186 q 414 1221 342 1221 q 486 1186 486 1221 l 486 1113 q 414 1078 486 1078 z "},"D":{"ha":801,"x_min":100,"x_max":733,"o":"m 142 0 q 110 11 119 0 q 100 46 100 22 l 100 926 q 110 961 100 950 q 142 972 119 972 l 383 972 q 733 486 733 972 q 643 116 733 232 q 383 0 553 0 l 142 0 m 379 128 q 526 213 475 128 q 578 486 578 297 q 379 844 578 844 l 253 844 l 253 128 l 379 128 z "},"Ǳ":{"ha":1506,"x_min":100,"x_max":1453,"o":"m 142 0 q 110 11 119 0 q 100 46 100 22 l 100 926 q 110 961 100 950 q 142 972 119 972 l 383 972 q 733 486 733 972 q 643 116 733 232 q 383 0 553 0 l 142 0 m 379 128 q 526 213 475 128 q 578 486 578 297 q 379 844 578 844 l 253 844 l 253 128 l 379 128 m 883 0 q 858 31 871 0 q 844 88 844 63 q 847 104 844 96 l 1265 844 l 908 844 q 886 858 893 844 q 879 899 879 871 l 879 918 q 886 960 879 947 q 908 972 893 972 l 1415 972 q 1440 940 1428 972 q 1453 883 1453 908 q 1451 868 1453 872 l 1035 128 l 1422 128 q 1453 74 1453 128 l 1453 54 q 1445 13 1453 25 q 1422 0 1438 0 l 883 0 z "},"Ǆ":{"ha":1506,"x_min":100,"x_max":1453,"o":"m 142 0 q 110 11 119 0 q 100 46 100 22 l 100 926 q 110 961 100 950 q 142 972 119 972 l 383 972 q 733 486 733 972 q 643 116 733 232 q 383 0 553 0 l 142 0 m 379 128 q 526 213 475 128 q 578 486 578 297 q 379 844 578 844 l 253 844 l 253 128 l 379 128 m 883 0 q 858 31 871 0 q 844 88 844 63 q 847 104 844 96 l 1265 844 l 908 844 q 886 858 893 844 q 879 899 879 871 l 879 918 q 886 960 879 947 q 908 972 893 972 l 1415 972 q 1440 940 1428 972 q 1453 883 1453 908 q 1451 868 1453 872 l 1035 128 l 1422 128 q 1453 74 1453 128 l 1453 54 q 1445 13 1453 25 q 1422 0 1438 0 l 883 0 m 1150 1051 q 1086 1081 1104 1051 l 1011 1207 q 1001 1232 1001 1226 q 1029 1250 1001 1250 l 1058 1250 q 1104 1228 1090 1250 l 1158 1139 l 1214 1228 q 1258 1250 1226 1250 l 1289 1250 q 1317 1231 1317 1250 q 1307 1207 1317 1224 l 1231 1081 q 1206 1058 1221 1064 q 1168 1051 1190 1051 l 1150 1051 z "},"Ð":{"ha":801,"x_min":13,"x_max":733,"o":"m 383 972 q 733 486 733 972 q 643 116 733 232 q 383 0 553 0 l 142 0 q 110 11 119 0 q 100 46 100 22 l 100 433 l 43 433 q 20 444 28 433 q 13 482 13 456 l 13 510 q 43 560 13 560 l 100 560 l 100 926 q 110 961 100 950 q 142 972 119 972 l 383 972 m 379 128 q 526 213 475 128 q 578 486 578 297 q 379 844 578 844 l 253 844 l 253 560 l 340 560 q 364 548 357 560 q 371 510 371 536 l 371 482 q 364 444 371 456 q 340 433 357 433 l 253 433 l 253 128 l 379 128 z "},"Ď":{"ha":801,"x_min":100,"x_max":733,"o":"m 142 0 q 110 11 119 0 q 100 46 100 22 l 100 926 q 110 961 100 950 q 142 972 119 972 l 383 972 q 733 486 733 972 q 643 116 733 232 q 383 0 553 0 l 142 0 m 379 128 q 526 213 475 128 q 578 486 578 297 q 379 844 578 844 l 253 844 l 253 128 l 379 128 m 374 1051 q 310 1081 328 1051 l 235 1207 q 225 1232 225 1226 q 253 1250 225 1250 l 282 1250 q 328 1228 314 1250 l 382 1139 l 438 1228 q 482 1250 450 1250 l 513 1250 q 540 1231 540 1250 q 531 1207 540 1224 l 454 1081 q 429 1058 444 1064 q 392 1051 414 1051 l 374 1051 z "},"Đ":{"ha":801,"x_min":13,"x_max":733,"o":"m 383 972 q 733 486 733 972 q 643 116 733 232 q 383 0 553 0 l 142 0 q 110 11 119 0 q 100 46 100 22 l 100 433 l 43 433 q 20 444 28 433 q 13 482 13 456 l 13 510 q 43 560 13 560 l 100 560 l 100 926 q 110 961 100 950 q 142 972 119 972 l 383 972 m 379 128 q 526 213 475 128 q 578 486 578 297 q 379 844 578 844 l 253 844 l 253 560 l 340 560 q 364 548 357 560 q 371 510 371 536 l 371 482 q 364 444 371 456 q 340 433 357 433 l 253 433 l 253 128 l 379 128 z "},"Ḍ":{"ha":801,"x_min":100,"x_max":733,"o":"m 142 0 q 110 11 119 0 q 100 46 100 22 l 100 926 q 110 961 100 950 q 142 972 119 972 l 383 972 q 733 486 733 972 q 643 116 733 232 q 383 0 553 0 l 142 0 m 379 128 q 526 213 475 128 q 578 486 578 297 q 379 844 578 844 l 253 844 l 253 128 l 379 128 m 385 -254 q 313 -219 313 -254 l 313 -146 q 385 -111 313 -111 q 457 -146 457 -111 l 457 -219 q 385 -254 457 -254 z "},"ǲ":{"ha":1364,"x_min":100,"x_max":1319,"o":"m 142 0 q 110 11 119 0 q 100 46 100 22 l 100 926 q 110 961 100 950 q 142 972 119 972 l 383 972 q 733 486 733 972 q 643 116 733 232 q 383 0 553 0 l 142 0 m 379 128 q 526 213 475 128 q 578 486 578 297 q 379 844 578 844 l 253 844 l 253 128 l 379 128 m 875 0 q 855 28 865 0 q 844 81 844 57 q 847 97 844 89 l 1139 608 l 894 608 q 864 658 864 608 l 864 676 q 894 726 864 726 l 1288 726 q 1306 697 1296 726 q 1315 644 1315 667 q 1313 628 1315 636 l 1022 118 l 1289 118 q 1319 68 1319 118 l 1319 50 q 1289 0 1319 0 l 875 0 z "},"ǅ":{"ha":1364,"x_min":100,"x_max":1319,"o":"m 142 0 q 110 11 119 0 q 100 46 100 22 l 100 926 q 110 961 100 950 q 142 972 119 972 l 383 972 q 733 486 733 972 q 643 116 733 232 q 383 0 553 0 l 142 0 m 379 128 q 526 213 475 128 q 578 486 578 297 q 379 844 578 844 l 253 844 l 253 128 l 379 128 m 875 0 q 855 28 865 0 q 844 81 844 57 q 847 97 844 89 l 1139 608 l 894 608 q 864 658 864 608 l 864 676 q 894 726 864 726 l 1288 726 q 1306 697 1296 726 q 1315 644 1315 667 q 1313 628 1315 636 l 1022 118 l 1289 118 q 1319 68 1319 118 l 1319 50 q 1289 0 1319 0 l 875 0 m 1043 806 q 979 835 997 806 l 904 961 q 894 986 894 981 q 922 1004 894 1004 l 951 1004 q 997 982 983 1004 l 1051 893 l 1107 982 q 1151 1004 1119 1004 l 1182 1004 q 1210 985 1210 1004 q 1200 961 1210 978 l 1124 835 q 1099 812 1114 818 q 1061 806 1083 806 l 1043 806 z "},"E":{"ha":635,"x_min":100,"x_max":575,"o":"m 142 0 q 110 11 119 0 q 100 46 100 22 l 100 926 q 110 961 100 950 q 142 972 119 972 l 544 972 q 575 922 575 972 l 575 894 q 544 844 575 844 l 251 844 l 251 561 l 514 561 q 544 511 544 561 l 544 483 q 514 433 544 433 l 251 433 l 251 128 l 544 128 q 568 116 561 128 q 575 78 575 104 l 575 50 q 568 12 575 24 q 544 0 561 0 l 142 0 z "},"É":{"ha":635,"x_min":100,"x_max":575,"o":"m 142 0 q 110 11 119 0 q 100 46 100 22 l 100 926 q 110 961 100 950 q 142 972 119 972 l 544 972 q 575 922 575 972 l 575 894 q 544 844 575 844 l 251 844 l 251 561 l 514 561 q 544 511 544 561 l 544 483 q 514 433 544 433 l 251 433 l 251 128 l 544 128 q 568 116 561 128 q 575 78 575 104 l 575 50 q 568 12 575 24 q 544 0 561 0 l 142 0 m 328 1054 q 301 1058 308 1054 q 294 1071 294 1061 q 306 1103 294 1079 q 338 1169 317 1128 l 365 1226 q 453 1264 383 1264 q 501 1260 486 1264 q 515 1244 515 1256 q 503 1218 515 1236 q 464 1164 492 1200 q 440 1132 454 1151 q 403 1082 425 1113 q 376 1061 393 1068 q 328 1054 358 1054 z "},"Ĕ":{"ha":635,"x_min":100,"x_max":575,"o":"m 142 0 q 110 11 119 0 q 100 46 100 22 l 100 926 q 110 961 100 950 q 142 972 119 972 l 544 972 q 575 922 575 972 l 575 894 q 544 844 575 844 l 251 844 l 251 561 l 514 561 q 544 511 544 561 l 544 483 q 514 433 544 433 l 251 433 l 251 128 l 544 128 q 568 116 561 128 q 575 78 575 104 l 575 50 q 568 12 575 24 q 544 0 561 0 l 142 0 m 342 1054 q 220 1097 267 1054 q 174 1211 174 1140 q 207 1239 174 1239 q 226 1233 221 1239 q 240 1207 232 1226 q 275 1169 251 1182 q 342 1156 299 1156 q 443 1208 422 1156 q 456 1233 450 1226 q 475 1239 461 1239 q 508 1211 508 1239 q 462 1097 508 1140 q 342 1054 415 1054 z "},"Ě":{"ha":635,"x_min":100,"x_max":575,"o":"m 142 0 q 110 11 119 0 q 100 46 100 22 l 100 926 q 110 961 100 950 q 142 972 119 972 l 544 972 q 575 922 575 972 l 575 894 q 544 844 575 844 l 251 844 l 251 561 l 514 561 q 544 511 544 561 l 544 483 q 514 433 544 433 l 251 433 l 251 128 l 544 128 q 568 116 561 128 q 575 78 575 104 l 575 50 q 568 12 575 24 q 544 0 561 0 l 142 0 m 333 1051 q 269 1081 288 1051 l 194 1207 q 185 1232 185 1226 q 213 1250 185 1250 l 242 1250 q 288 1228 274 1250 l 342 1139 l 397 1228 q 442 1250 410 1250 l 472 1250 q 500 1231 500 1250 q 490 1207 500 1224 l 414 1081 q 389 1058 404 1064 q 351 1051 374 1051 l 333 1051 z "},"Ê":{"ha":635,"x_min":100,"x_max":575,"o":"m 142 0 q 110 11 119 0 q 100 46 100 22 l 100 926 q 110 961 100 950 q 142 972 119 972 l 544 972 q 575 922 575 972 l 575 894 q 544 844 575 844 l 251 844 l 251 561 l 514 561 q 544 511 544 561 l 544 483 q 514 433 544 433 l 251 433 l 251 128 l 544 128 q 568 116 561 128 q 575 78 575 104 l 575 50 q 568 12 575 24 q 544 0 561 0 l 142 0 m 211 1044 q 190 1049 197 1044 q 183 1061 183 1054 q 193 1086 183 1067 l 268 1214 q 333 1243 288 1243 l 349 1243 q 413 1214 393 1243 l 489 1086 q 499 1063 499 1072 q 471 1044 499 1044 l 440 1044 q 396 1065 408 1044 l 340 1156 l 286 1065 q 240 1044 271 1044 l 211 1044 z "},"Ế":{"ha":615,"x_min":100,"x_max":625,"o":"m 469 1181 q 445 1184 453 1181 q 438 1197 438 1188 q 465 1268 438 1207 q 494 1335 471 1281 q 578 1372 514 1372 q 614 1367 603 1372 q 625 1350 625 1363 q 612 1322 625 1342 q 571 1265 599 1303 l 526 1204 q 469 1181 510 1181 m 210 1044 q 189 1049 196 1044 q 182 1061 182 1054 q 189 1086 182 1065 l 258 1214 q 324 1243 276 1243 l 340 1243 q 403 1214 386 1243 l 472 1086 q 481 1063 481 1069 q 454 1044 481 1044 l 424 1044 q 378 1064 389 1044 l 331 1156 l 285 1065 q 267 1049 278 1053 q 239 1044 256 1044 l 210 1044 m 142 0 q 110 11 119 0 q 100 46 100 22 l 100 926 q 110 961 100 950 q 142 972 119 972 l 544 972 q 575 922 575 972 l 575 894 q 544 844 575 844 l 251 844 l 251 561 l 514 561 q 544 511 544 561 l 544 483 q 514 433 544 433 l 251 433 l 251 128 l 544 128 q 568 116 561 128 q 575 78 575 104 l 575 50 q 568 12 575 24 q 544 0 561 0 l 142 0 z "},"Ệ":{"ha":635,"x_min":100,"x_max":575,"o":"m 142 0 q 110 11 119 0 q 100 46 100 22 l 100 926 q 110 961 100 950 q 142 972 119 972 l 544 972 q 575 922 575 972 l 575 894 q 544 844 575 844 l 251 844 l 251 561 l 514 561 q 544 511 544 561 l 544 483 q 514 433 544 433 l 251 433 l 251 128 l 544 128 q 568 116 561 128 q 575 78 575 104 l 575 50 q 568 12 575 24 q 544 0 561 0 l 142 0 m 343 -254 q 271 -219 271 -254 l 271 -146 q 343 -111 271 -111 q 415 -146 415 -111 l 415 -219 q 343 -254 415 -254 m 211 1044 q 190 1049 197 1044 q 183 1061 183 1054 q 193 1086 183 1067 l 268 1214 q 333 1243 288 1243 l 349 1243 q 413 1214 393 1243 l 489 1086 q 499 1063 499 1072 q 471 1044 499 1044 l 440 1044 q 396 1065 408 1044 l 340 1156 l 286 1065 q 240 1044 271 1044 l 211 1044 z "},"Ề":{"ha":615,"x_min":100,"x_max":575,"o":"m 522 1181 q 464 1206 485 1181 l 410 1285 q 381 1329 390 1314 q 371 1351 371 1344 q 382 1367 371 1363 q 421 1372 393 1372 q 504 1335 489 1372 q 542 1240 529 1274 q 556 1197 556 1206 q 548 1184 556 1188 q 522 1181 540 1181 m 210 1044 q 189 1049 196 1044 q 182 1061 182 1054 q 189 1086 182 1065 l 258 1214 q 324 1243 276 1243 l 340 1243 q 403 1214 386 1243 l 472 1086 q 481 1063 481 1069 q 454 1044 481 1044 l 424 1044 q 378 1064 389 1044 l 331 1156 l 285 1065 q 267 1049 278 1053 q 239 1044 256 1044 l 210 1044 m 142 0 q 110 11 119 0 q 100 46 100 22 l 100 926 q 110 961 100 950 q 142 972 119 972 l 544 972 q 575 922 575 972 l 575 894 q 544 844 575 844 l 251 844 l 251 561 l 514 561 q 544 511 544 561 l 544 483 q 514 433 544 433 l 251 433 l 251 128 l 544 128 q 568 116 561 128 q 575 78 575 104 l 575 50 q 568 12 575 24 q 544 0 561 0 l 142 0 z "},"Ể":{"ha":615,"x_min":100,"x_max":594,"o":"m 490 1190 q 451 1199 467 1190 q 436 1219 436 1208 q 445 1233 436 1226 q 468 1247 454 1240 q 511 1294 511 1269 q 498 1320 511 1311 q 467 1329 485 1329 q 419 1319 436 1329 q 399 1308 401 1308 q 377 1328 390 1308 q 364 1358 364 1347 q 400 1385 364 1372 q 472 1397 436 1397 q 558 1374 521 1397 q 594 1304 594 1350 q 550 1221 594 1258 q 517 1200 535 1210 q 490 1190 499 1190 m 210 1044 q 189 1049 196 1044 q 182 1061 182 1054 q 189 1086 182 1065 l 258 1214 q 324 1243 276 1243 l 340 1243 q 403 1214 386 1243 l 472 1086 q 481 1063 481 1069 q 454 1044 481 1044 l 424 1044 q 378 1064 389 1044 l 331 1156 l 285 1065 q 267 1049 278 1053 q 239 1044 256 1044 l 210 1044 m 142 0 q 110 11 119 0 q 100 46 100 22 l 100 926 q 110 961 100 950 q 142 972 119 972 l 544 972 q 575 922 575 972 l 575 894 q 544 844 575 844 l 251 844 l 251 561 l 514 561 q 544 511 544 561 l 544 483 q 514 433 544 433 l 251 433 l 251 128 l 544 128 q 568 116 561 128 q 575 78 575 104 l 575 50 q 568 12 575 24 q 544 0 561 0 l 142 0 z "},"Ễ":{"ha":615,"x_min":100,"x_max":575,"o":"m 158 1254 q 142 1276 142 1263 q 146 1296 142 1286 q 253 1392 181 1392 q 292 1385 271 1392 q 340 1364 313 1378 q 378 1347 360 1354 q 410 1340 397 1340 q 432 1347 422 1340 q 453 1372 442 1354 q 481 1394 465 1394 q 496 1390 488 1394 l 506 1386 q 521 1377 517 1382 q 525 1364 525 1372 q 521 1344 525 1356 q 414 1249 486 1249 q 377 1256 399 1249 q 343 1268 356 1263 q 324 1276 331 1274 q 285 1293 304 1286 q 254 1300 267 1300 q 233 1293 242 1300 q 213 1267 224 1286 q 186 1247 201 1247 q 172 1250 183 1247 l 158 1254 m 211 1044 q 183 1063 183 1044 q 194 1089 183 1071 l 258 1183 q 285 1206 271 1199 q 324 1213 300 1213 l 340 1213 q 406 1183 385 1213 l 471 1089 q 482 1063 482 1071 q 474 1049 482 1054 q 454 1044 467 1044 l 424 1044 q 397 1049 407 1044 q 379 1064 388 1054 l 332 1138 l 285 1065 q 239 1044 271 1044 l 211 1044 m 142 0 q 110 11 119 0 q 100 46 100 22 l 100 926 q 110 961 100 950 q 142 972 119 972 l 544 972 q 575 922 575 972 l 575 894 q 544 844 575 844 l 251 844 l 251 561 l 514 561 q 544 511 544 561 l 544 483 q 514 433 544 433 l 251 433 l 251 128 l 544 128 q 568 116 561 128 q 575 78 575 104 l 575 50 q 568 12 575 24 q 544 0 561 0 l 142 0 z "},"Ë":{"ha":635,"x_min":100,"x_max":575,"o":"m 142 0 q 110 11 119 0 q 100 46 100 22 l 100 926 q 110 961 100 950 q 142 972 119 972 l 544 972 q 575 922 575 972 l 575 894 q 544 844 575 844 l 251 844 l 251 561 l 514 561 q 544 511 544 561 l 544 483 q 514 433 544 433 l 251 433 l 251 128 l 544 128 q 568 116 561 128 q 575 78 575 104 l 575 50 q 568 12 575 24 q 544 0 561 0 l 142 0 m 247 1078 q 188 1113 188 1078 l 188 1186 q 249 1221 188 1221 q 310 1186 310 1221 l 310 1113 q 247 1078 310 1078 m 438 1078 q 376 1113 376 1078 l 376 1186 q 439 1221 376 1221 q 499 1186 499 1221 l 499 1113 q 438 1078 499 1078 z "},"Ė":{"ha":635,"x_min":100,"x_max":575,"o":"m 142 0 q 110 11 119 0 q 100 46 100 22 l 100 926 q 110 961 100 950 q 142 972 119 972 l 544 972 q 575 922 575 972 l 575 894 q 544 844 575 844 l 251 844 l 251 561 l 514 561 q 544 511 544 561 l 544 483 q 514 433 544 433 l 251 433 l 251 128 l 544 128 q 568 116 561 128 q 575 78 575 104 l 575 50 q 568 12 575 24 q 544 0 561 0 l 142 0 m 343 1078 q 271 1113 271 1078 l 271 1186 q 343 1221 271 1221 q 415 1186 415 1221 l 415 1113 q 343 1078 415 1078 z "},"Ẹ":{"ha":635,"x_min":100,"x_max":575,"o":"m 142 0 q 110 11 119 0 q 100 46 100 22 l 100 926 q 110 961 100 950 q 142 972 119 972 l 544 972 q 575 922 575 972 l 575 894 q 544 844 575 844 l 251 844 l 251 561 l 514 561 q 544 511 544 561 l 544 483 q 514 433 544 433 l 251 433 l 251 128 l 544 128 q 568 116 561 128 q 575 78 575 104 l 575 50 q 568 12 575 24 q 544 0 561 0 l 142 0 m 343 -254 q 271 -219 271 -254 l 271 -146 q 343 -111 271 -111 q 415 -146 415 -111 l 415 -219 q 343 -254 415 -254 z "},"È":{"ha":635,"x_min":100,"x_max":575,"o":"m 142 0 q 110 11 119 0 q 100 46 100 22 l 100 926 q 110 961 100 950 q 142 972 119 972 l 544 972 q 575 922 575 972 l 575 894 q 544 844 575 844 l 251 844 l 251 561 l 514 561 q 544 511 544 561 l 544 483 q 514 433 544 433 l 251 433 l 251 128 l 544 128 q 568 116 561 128 q 575 78 575 104 l 575 50 q 568 12 575 24 q 544 0 561 0 l 142 0 m 371 1054 q 296 1082 314 1054 l 251 1140 q 193 1219 204 1203 q 182 1244 182 1235 q 197 1260 182 1256 q 246 1264 213 1264 q 333 1226 314 1264 q 385 1119 367 1157 q 403 1071 403 1081 q 396 1058 403 1061 q 371 1054 389 1054 z "},"Ẻ":{"ha":635,"x_min":100,"x_max":575,"o":"m 142 0 q 110 11 119 0 q 100 46 100 22 l 100 926 q 110 961 100 950 q 142 972 119 972 l 544 972 q 575 922 575 972 l 575 894 q 544 844 575 844 l 251 844 l 251 561 l 514 561 q 544 511 544 561 l 544 483 q 514 433 544 433 l 251 433 l 251 128 l 544 128 q 568 116 561 128 q 575 78 575 104 l 575 50 q 568 12 575 24 q 544 0 561 0 l 142 0 m 358 1031 q 324 1040 343 1031 q 304 1057 304 1049 q 312 1075 304 1067 q 339 1100 319 1083 q 378 1137 364 1119 q 392 1178 392 1154 q 378 1203 392 1194 q 343 1213 364 1213 q 299 1204 315 1213 q 281 1196 283 1196 q 258 1215 272 1196 q 244 1244 244 1233 q 281 1273 244 1258 q 354 1288 318 1288 q 449 1263 408 1288 q 489 1186 489 1238 q 463 1112 489 1147 q 403 1053 436 1076 q 358 1031 371 1031 z "},"Ē":{"ha":635,"x_min":100,"x_max":575,"o":"m 142 0 q 110 11 119 0 q 100 46 100 22 l 100 926 q 110 961 100 950 q 142 972 119 972 l 544 972 q 575 922 575 972 l 575 894 q 544 844 575 844 l 251 844 l 251 561 l 514 561 q 544 511 544 561 l 544 483 q 514 433 544 433 l 251 433 l 251 128 l 544 128 q 568 116 561 128 q 575 78 575 104 l 575 50 q 568 12 575 24 q 544 0 561 0 l 142 0 m 208 1090 q 178 1136 178 1090 l 178 1151 q 208 1197 178 1197 l 482 1197 q 506 1186 499 1197 q 513 1151 513 1175 l 513 1136 q 506 1101 513 1113 q 482 1090 499 1090 l 208 1090 z "},"Ę":{"ha":635,"x_min":100,"x_max":688,"o":"m 656 -147 q 688 -183 688 -147 q 668 -222 688 -210 q 579 -246 631 -246 q 476 -206 503 -246 q 450 -121 450 -165 q 483 0 450 -61 l 142 0 q 110 11 119 0 q 100 46 100 22 l 100 926 q 110 961 100 950 q 142 972 119 972 l 544 972 q 575 922 575 972 l 575 894 q 544 844 575 844 l 251 844 l 251 561 l 514 561 q 544 511 544 561 l 544 483 q 514 433 544 433 l 251 433 l 251 128 l 544 128 q 568 116 561 128 q 575 78 575 104 l 575 50 q 569 14 575 25 q 546 -44 554 -15 q 538 -96 538 -74 q 557 -143 538 -131 q 606 -156 576 -156 q 634 -151 617 -156 q 656 -147 651 -147 z "},"Ẽ":{"ha":635,"x_min":100,"x_max":575,"o":"m 142 0 q 110 11 119 0 q 100 46 100 22 l 100 926 q 110 961 100 950 q 142 972 119 972 l 544 972 q 575 922 575 972 l 575 894 q 544 844 575 844 l 251 844 l 251 561 l 514 561 q 544 511 544 561 l 544 483 q 514 433 544 433 l 251 433 l 251 128 l 544 128 q 568 116 561 128 q 575 78 575 104 l 575 50 q 568 12 575 24 q 544 0 561 0 l 142 0 m 151 1068 q 132 1090 132 1075 q 136 1110 132 1100 q 254 1206 172 1206 q 350 1178 286 1206 q 382 1165 356 1175 q 426 1154 408 1154 q 451 1161 440 1154 q 474 1186 461 1168 q 504 1208 488 1208 q 521 1204 510 1208 l 532 1200 q 548 1191 543 1196 q 553 1178 553 1186 q 547 1158 553 1172 q 429 1063 510 1063 q 387 1069 408 1063 q 332 1090 365 1076 q 290 1107 311 1100 q 254 1114 269 1114 q 232 1107 242 1114 q 210 1081 222 1100 q 181 1061 196 1061 q 165 1064 176 1061 l 151 1068 z "},"F":{"ha":588,"x_min":100,"x_max":539,"o":"m 161 -3 q 100 32 100 -3 l 100 926 q 110 961 100 950 q 142 972 119 972 l 508 972 q 539 922 539 972 l 539 894 q 508 844 539 844 l 251 844 l 251 561 l 488 561 q 518 511 518 561 l 518 483 q 488 433 518 433 l 251 433 l 251 32 q 190 -3 251 -3 l 161 -3 z "},"G":{"ha":767,"x_min":64,"x_max":679,"o":"m 638 542 q 679 496 679 542 l 679 94 q 599 17 679 43 q 422 -10 519 -10 q 153 111 243 -10 q 64 481 64 232 q 156 858 64 735 q 432 982 247 982 q 540 968 486 982 q 628 933 594 954 q 663 892 663 911 q 641 834 663 869 q 603 799 619 799 q 574 813 599 799 q 515 838 549 826 q 438 849 482 849 q 271 758 322 849 q 219 489 219 668 q 425 121 219 121 q 531 135 482 121 l 531 414 l 425 414 q 394 464 394 414 l 394 492 q 425 542 394 542 l 638 542 z "},"Ğ":{"ha":767,"x_min":64,"x_max":679,"o":"m 638 542 q 679 496 679 542 l 679 94 q 599 17 679 43 q 422 -10 519 -10 q 153 111 243 -10 q 64 481 64 232 q 156 858 64 735 q 432 982 247 982 q 540 968 486 982 q 628 933 594 954 q 663 892 663 911 q 641 834 663 869 q 603 799 619 799 q 574 813 599 799 q 515 838 549 826 q 438 849 482 849 q 271 758 322 849 q 219 489 219 668 q 425 121 219 121 q 531 135 482 121 l 531 414 l 425 414 q 394 464 394 414 l 394 492 q 425 542 394 542 l 638 542 m 408 1054 q 287 1097 333 1054 q 240 1211 240 1140 q 274 1239 240 1239 q 293 1233 288 1239 q 307 1207 299 1226 q 342 1169 318 1182 q 408 1156 365 1156 q 510 1208 489 1156 q 522 1233 517 1226 q 542 1239 528 1239 q 575 1211 575 1239 q 528 1097 575 1140 q 408 1054 482 1054 z "},"Ĝ":{"ha":767,"x_min":64,"x_max":679,"o":"m 638 542 q 679 496 679 542 l 679 94 q 599 17 679 43 q 422 -10 519 -10 q 153 111 243 -10 q 64 481 64 232 q 156 858 64 735 q 432 982 247 982 q 540 968 486 982 q 628 933 594 954 q 663 892 663 911 q 641 834 663 869 q 603 799 619 799 q 574 813 599 799 q 515 838 549 826 q 438 849 482 849 q 271 758 322 849 q 219 489 219 668 q 425 121 219 121 q 531 135 482 121 l 531 414 l 425 414 q 394 464 394 414 l 394 492 q 425 542 394 542 l 638 542 m 278 1044 q 257 1049 264 1044 q 250 1061 250 1054 q 260 1086 250 1067 l 335 1214 q 400 1243 354 1243 l 415 1243 q 479 1214 460 1243 l 556 1086 q 565 1063 565 1072 q 538 1044 565 1044 l 507 1044 q 463 1065 475 1044 l 407 1156 l 353 1065 q 307 1044 338 1044 l 278 1044 z "},"Ģ":{"ha":767,"x_min":64,"x_max":679,"o":"m 638 542 q 679 496 679 542 l 679 94 q 599 17 679 43 q 422 -10 519 -10 q 153 111 243 -10 q 64 481 64 232 q 156 858 64 735 q 432 982 247 982 q 540 968 486 982 q 628 933 594 954 q 663 892 663 911 q 641 834 663 869 q 603 799 619 799 q 574 813 599 799 q 515 838 549 826 q 438 849 482 849 q 271 758 322 849 q 219 489 219 668 q 425 121 219 121 q 531 135 482 121 l 531 414 l 425 414 q 394 464 394 414 l 394 492 q 425 542 394 542 l 638 542 m 375 -328 q 343 -322 357 -328 q 329 -304 329 -317 q 338 -267 329 -297 q 363 -119 363 -199 q 422 -71 363 -71 l 440 -71 q 480 -83 467 -71 q 493 -117 493 -96 q 472 -221 493 -172 q 423 -299 451 -269 q 375 -328 394 -328 z "},"Ġ":{"ha":767,"x_min":64,"x_max":679,"o":"m 638 542 q 679 496 679 542 l 679 94 q 599 17 679 43 q 422 -10 519 -10 q 153 111 243 -10 q 64 481 64 232 q 156 858 64 735 q 432 982 247 982 q 540 968 486 982 q 628 933 594 954 q 663 892 663 911 q 641 834 663 869 q 603 799 619 799 q 574 813 599 799 q 515 838 549 826 q 438 849 482 849 q 271 758 322 849 q 219 489 219 668 q 425 121 219 121 q 531 135 482 121 l 531 414 l 425 414 q 394 464 394 414 l 394 492 q 425 542 394 542 l 638 542 m 410 1078 q 338 1113 338 1078 l 338 1186 q 410 1221 338 1221 q 482 1186 482 1221 l 482 1113 q 410 1078 482 1078 z "},"H":{"ha":835,"x_min":100,"x_max":732,"o":"m 161 -3 q 100 32 100 -3 l 100 940 q 161 975 100 975 l 193 975 q 251 940 251 975 l 251 563 l 581 563 l 581 940 q 642 975 581 975 l 671 975 q 732 940 732 975 l 732 32 q 671 -3 732 -3 l 642 -3 q 581 32 581 -3 l 581 433 l 251 433 l 251 32 q 193 -3 251 -3 l 161 -3 z "},"Ħ":{"ha":814,"x_min":39,"x_max":774,"o":"m 743 783 q 767 772 760 783 q 774 738 774 761 l 774 722 q 767 688 774 699 q 743 676 760 676 l 732 676 l 732 32 q 671 -3 732 -3 l 642 -3 q 581 32 581 -3 l 581 433 l 251 433 l 251 32 q 193 -3 251 -3 l 161 -3 q 100 32 100 -3 l 100 676 l 69 676 q 39 722 39 676 l 39 738 q 69 783 39 783 l 100 783 l 100 940 q 161 975 100 975 l 193 975 q 251 940 251 975 l 251 783 l 581 783 l 581 940 q 642 975 581 975 l 671 975 q 732 940 732 975 l 732 783 l 743 783 m 581 563 l 581 676 l 251 676 l 251 563 l 581 563 z "},"Ĥ":{"ha":835,"x_min":100,"x_max":732,"o":"m 161 -3 q 100 32 100 -3 l 100 940 q 161 975 100 975 l 193 975 q 251 940 251 975 l 251 563 l 581 563 l 581 940 q 642 975 581 975 l 671 975 q 732 940 732 975 l 732 32 q 671 -3 732 -3 l 642 -3 q 581 32 581 -3 l 581 433 l 251 433 l 251 32 q 193 -3 251 -3 l 161 -3 m 286 1044 q 265 1049 272 1044 q 258 1061 258 1054 q 268 1086 258 1067 l 343 1214 q 408 1243 363 1243 l 424 1243 q 488 1214 468 1243 l 564 1086 q 574 1063 574 1072 q 546 1044 574 1044 l 515 1044 q 471 1065 483 1044 l 415 1156 l 361 1065 q 315 1044 346 1044 l 286 1044 z "},"Ḥ":{"ha":835,"x_min":100,"x_max":732,"o":"m 161 -3 q 100 32 100 -3 l 100 940 q 161 975 100 975 l 193 975 q 251 940 251 975 l 251 563 l 581 563 l 581 940 q 642 975 581 975 l 671 975 q 732 940 732 975 l 732 32 q 671 -3 732 -3 l 642 -3 q 581 32 581 -3 l 581 433 l 251 433 l 251 32 q 193 -3 251 -3 l 161 -3 m 421 -254 q 349 -219 349 -254 l 349 -146 q 421 -111 349 -111 q 493 -146 493 -111 l 493 -219 q 421 -254 493 -254 z "},"I":{"ha":364,"x_min":106,"x_max":258,"o":"m 167 -3 q 106 32 106 -3 l 106 940 q 167 975 106 975 l 199 975 q 258 940 258 975 l 258 32 q 199 -3 258 -3 l 167 -3 z "},"Ĳ":{"ha":857,"x_min":106,"x_max":757,"o":"m 167 -3 q 106 32 106 -3 l 106 940 q 167 975 106 975 l 199 975 q 258 940 258 975 l 258 32 q 199 -3 258 -3 l 167 -3 m 511 -10 q 419 4 463 -10 q 376 40 376 18 q 388 99 376 65 q 415 132 400 132 q 446 126 424 132 q 490 121 468 121 q 578 160 551 121 q 604 283 604 199 l 604 940 q 665 975 604 975 l 696 975 q 757 940 757 975 l 757 283 q 697 67 757 144 q 511 -10 638 -10 z "},"Í":{"ha":364,"x_min":106,"x_max":356,"o":"m 167 -3 q 106 32 106 -3 l 106 940 q 167 975 106 975 l 199 975 q 258 940 258 975 l 258 32 q 199 -3 258 -3 l 167 -3 m 168 1054 q 142 1058 149 1054 q 135 1071 135 1061 q 146 1103 135 1079 q 178 1169 157 1128 l 206 1226 q 293 1264 224 1264 q 341 1260 326 1264 q 356 1244 356 1256 q 344 1218 356 1236 q 304 1164 332 1200 q 280 1132 294 1151 q 243 1082 265 1113 q 216 1061 233 1068 q 168 1054 199 1054 z "},"Ĭ":{"ha":364,"x_min":14,"x_max":349,"o":"m 167 -3 q 106 32 106 -3 l 106 940 q 167 975 106 975 l 199 975 q 258 940 258 975 l 258 32 q 199 -3 258 -3 l 167 -3 m 182 1054 q 60 1097 107 1054 q 14 1211 14 1140 q 47 1239 14 1239 q 67 1233 61 1239 q 81 1207 72 1226 q 115 1169 92 1182 q 182 1156 139 1156 q 283 1208 263 1156 q 296 1233 290 1226 q 315 1239 301 1239 q 349 1211 349 1239 q 302 1097 349 1140 q 182 1054 256 1054 z "},"Î":{"ha":364,"x_min":24,"x_max":339,"o":"m 167 -3 q 106 32 106 -3 l 106 940 q 167 975 106 975 l 199 975 q 258 940 258 975 l 258 32 q 199 -3 258 -3 l 167 -3 m 51 1044 q 31 1049 38 1044 q 24 1061 24 1054 q 33 1086 24 1067 l 108 1214 q 174 1243 128 1243 l 189 1243 q 253 1214 233 1243 l 329 1086 q 339 1063 339 1072 q 311 1044 339 1044 l 281 1044 q 236 1065 249 1044 l 181 1156 l 126 1065 q 81 1044 111 1044 l 51 1044 z "},"Ï":{"ha":364,"x_min":28,"x_max":339,"o":"m 167 -3 q 106 32 106 -3 l 106 940 q 167 975 106 975 l 199 975 q 258 940 258 975 l 258 32 q 199 -3 258 -3 l 167 -3 m 88 1078 q 28 1113 28 1078 l 28 1186 q 89 1221 28 1221 q 150 1186 150 1221 l 150 1113 q 88 1078 150 1078 m 278 1078 q 217 1113 217 1078 l 217 1186 q 279 1221 217 1221 q 339 1186 339 1221 l 339 1113 q 278 1078 339 1078 z "},"İ":{"ha":364,"x_min":106,"x_max":258,"o":"m 167 -3 q 106 32 106 -3 l 106 940 q 167 975 106 975 l 199 975 q 258 940 258 975 l 258 32 q 199 -3 258 -3 l 167 -3 m 183 1078 q 111 1113 111 1078 l 111 1186 q 183 1221 111 1221 q 256 1186 256 1221 l 256 1113 q 183 1078 256 1078 z "},"Ị":{"ha":364,"x_min":106,"x_max":258,"o":"m 167 -3 q 106 32 106 -3 l 106 940 q 167 975 106 975 l 199 975 q 258 940 258 975 l 258 32 q 199 -3 258 -3 l 167 -3 m 185 -254 q 113 -219 113 -254 l 113 -146 q 185 -111 113 -111 q 257 -146 257 -111 l 257 -219 q 185 -254 257 -254 z "},"Ì":{"ha":364,"x_min":22,"x_max":258,"o":"m 167 -3 q 106 32 106 -3 l 106 940 q 167 975 106 975 l 199 975 q 258 940 258 975 l 258 32 q 199 -3 258 -3 l 167 -3 m 211 1054 q 136 1082 154 1054 l 92 1140 q 33 1219 44 1203 q 22 1244 22 1235 q 38 1260 22 1256 q 86 1264 53 1264 q 174 1226 154 1264 q 225 1119 207 1157 q 243 1071 243 1081 q 236 1058 243 1061 q 211 1054 229 1054 z "},"Ỉ":{"ha":364,"x_min":85,"x_max":329,"o":"m 167 -3 q 106 32 106 -3 l 106 940 q 167 975 106 975 l 199 975 q 258 940 258 975 l 258 32 q 199 -3 258 -3 l 167 -3 m 199 1031 q 164 1040 183 1031 q 144 1057 144 1049 q 152 1075 144 1067 q 179 1100 160 1083 q 218 1137 204 1119 q 232 1178 232 1154 q 218 1203 232 1194 q 183 1213 204 1213 q 140 1204 156 1213 q 121 1196 124 1196 q 99 1215 113 1196 q 85 1244 85 1233 q 122 1273 85 1258 q 194 1288 158 1288 q 289 1263 249 1288 q 329 1186 329 1238 q 303 1112 329 1147 q 244 1053 276 1076 q 199 1031 211 1031 z "},"Ī":{"ha":364,"x_min":18,"x_max":353,"o":"m 167 -3 q 106 32 106 -3 l 106 940 q 167 975 106 975 l 199 975 q 258 940 258 975 l 258 32 q 199 -3 258 -3 l 167 -3 m 49 1090 q 18 1136 18 1090 l 18 1151 q 49 1197 18 1197 l 322 1197 q 346 1186 339 1197 q 353 1151 353 1175 l 353 1136 q 346 1101 353 1113 q 322 1090 339 1090 l 49 1090 z "},"Į":{"ha":364,"x_min":106,"x_max":372,"o":"m 340 -144 q 372 -181 372 -144 q 353 -219 372 -207 q 264 -243 315 -243 q 161 -203 188 -243 q 135 -118 135 -162 q 165 -3 135 -60 q 106 32 106 -3 l 106 940 q 167 975 106 975 l 199 975 q 258 940 258 975 l 258 32 q 253 14 258 19 q 222 -93 222 -46 q 242 -140 222 -128 q 290 -153 261 -153 q 319 -149 301 -153 q 340 -144 336 -144 z "},"Ĩ":{"ha":364,"x_min":-28,"x_max":393,"o":"m 167 -3 q 106 32 106 -3 l 106 940 q 167 975 106 975 l 199 975 q 258 940 258 975 l 258 32 q 199 -3 258 -3 l 167 -3 m -8 1068 q -28 1090 -28 1075 q -24 1110 -28 1100 q 94 1206 13 1206 q 190 1178 126 1206 q 222 1165 196 1175 q 267 1154 249 1154 q 291 1161 281 1154 q 314 1186 301 1168 q 344 1208 328 1208 q 361 1204 350 1208 l 372 1200 q 388 1191 383 1196 q 393 1178 393 1186 q 388 1158 393 1172 q 269 1063 350 1063 q 227 1069 249 1063 q 172 1090 206 1076 q 131 1107 151 1100 q 94 1114 110 1114 q 72 1107 82 1114 q 50 1081 63 1100 q 21 1061 36 1061 q 6 1064 17 1061 l -8 1068 z "},"J":{"ha":493,"x_min":13,"x_max":393,"o":"m 147 -10 q 56 4 99 -10 q 13 40 13 18 q 24 99 13 65 q 51 132 36 132 q 82 126 60 132 q 126 121 104 121 q 214 160 188 121 q 240 283 240 199 l 240 940 q 301 975 240 975 l 332 975 q 393 940 393 975 l 393 283 q 333 67 393 144 q 147 -10 274 -10 z "},"Ĵ":{"ha":493,"x_min":13,"x_max":472,"o":"m 147 -10 q 56 4 99 -10 q 13 40 13 18 q 24 99 13 65 q 51 132 36 132 q 82 126 60 132 q 126 121 104 121 q 214 160 188 121 q 240 283 240 199 l 240 940 q 301 975 240 975 l 332 975 q 393 940 393 975 l 393 283 q 333 67 393 144 q 147 -10 274 -10 m 185 1044 q 164 1049 171 1044 q 157 1061 157 1054 q 167 1086 157 1067 l 242 1214 q 307 1243 261 1243 l 322 1243 q 386 1214 367 1243 l 463 1086 q 472 1063 472 1072 q 444 1044 472 1044 l 414 1044 q 369 1065 382 1044 l 314 1156 l 260 1065 q 214 1044 244 1044 l 185 1044 z "},"K":{"ha":708,"x_min":103,"x_max":706,"o":"m 697 42 q 706 17 706 26 q 692 2 706 7 q 646 -3 678 -3 l 599 -3 q 554 1 571 -3 q 529 18 538 6 l 258 465 l 254 465 l 254 32 q 192 -3 254 -3 l 164 -3 q 103 32 103 -3 l 103 940 q 164 975 103 975 l 192 975 q 254 940 254 975 l 254 513 l 260 513 l 522 954 q 547 971 531 967 q 589 975 563 975 l 628 975 q 685 956 685 975 q 674 928 685 943 l 399 496 l 697 42 z "},"Ķ":{"ha":708,"x_min":103,"x_max":706,"o":"m 697 42 q 706 17 706 26 q 692 2 706 7 q 646 -3 678 -3 l 599 -3 q 554 1 571 -3 q 529 18 538 6 l 258 465 l 254 465 l 254 32 q 192 -3 254 -3 l 164 -3 q 103 32 103 -3 l 103 940 q 164 975 103 975 l 192 975 q 254 940 254 975 l 254 513 l 260 513 l 522 954 q 547 971 531 967 q 589 975 563 975 l 628 975 q 685 956 685 975 q 674 928 685 943 l 399 496 l 697 42 m 307 -328 q 275 -322 289 -328 q 261 -304 261 -317 q 269 -267 261 -297 q 294 -119 294 -199 q 354 -71 294 -71 l 372 -71 q 412 -83 399 -71 q 425 -117 425 -96 q 404 -221 425 -172 q 355 -299 383 -269 q 307 -328 326 -328 z "},"L":{"ha":567,"x_min":100,"x_max":549,"o":"m 142 0 q 110 11 119 0 q 100 46 100 22 l 100 940 q 161 975 100 975 l 190 975 q 251 940 251 975 l 251 128 l 517 128 q 541 116 533 128 q 549 78 549 104 l 549 50 q 541 12 549 24 q 517 0 533 0 l 142 0 z "},"Ǉ":{"ha":886,"x_min":90,"x_max":803,"o":"m 132 0 q 100 11 110 0 q 90 46 90 22 l 90 940 q 151 975 90 975 l 181 975 q 242 940 242 975 l 242 128 l 463 128 q 487 116 479 128 q 494 78 494 104 l 494 50 q 487 12 494 24 q 463 0 479 0 l 132 0 m 556 -228 q 464 -214 507 -228 q 421 -178 421 -200 q 433 -119 421 -153 q 461 -86 446 -86 q 490 -92 468 -86 q 536 -97 513 -97 q 622 -59 596 -97 q 649 65 649 -21 l 649 940 q 710 975 649 975 l 740 975 q 803 940 803 975 l 803 68 q 742 -150 803 -72 q 556 -228 682 -228 z "},"Ĺ":{"ha":567,"x_min":100,"x_max":549,"o":"m 142 0 q 110 11 119 0 q 100 46 100 22 l 100 940 q 161 975 100 975 l 190 975 q 251 940 251 975 l 251 128 l 517 128 q 541 116 533 128 q 549 78 549 104 l 549 50 q 541 12 549 24 q 517 0 533 0 l 142 0 m 164 1056 q 138 1059 144 1056 q 131 1072 131 1063 q 142 1105 131 1081 q 174 1171 153 1129 l 201 1228 q 289 1265 219 1265 q 337 1261 322 1265 q 351 1246 351 1257 q 340 1219 351 1238 q 300 1165 328 1201 q 276 1133 290 1153 q 239 1083 261 1114 q 212 1063 229 1069 q 164 1056 194 1056 z "},"Ľ":{"ha":567,"x_min":100,"x_max":549,"o":"m 142 0 q 110 11 119 0 q 100 46 100 22 l 100 940 q 161 975 100 975 l 190 975 q 251 940 251 975 l 251 128 l 517 128 q 541 116 533 128 q 549 78 549 104 l 549 50 q 541 12 549 24 q 517 0 533 0 l 142 0 m 394 725 q 363 731 378 725 q 349 749 349 736 q 354 804 349 763 q 359 851 356 817 q 363 924 363 886 q 378 959 363 946 q 422 972 393 972 l 439 972 q 483 960 468 972 q 499 926 499 947 q 481 826 499 872 q 438 753 463 781 q 394 725 413 725 z "},"Ļ":{"ha":567,"x_min":100,"x_max":549,"o":"m 142 0 q 110 11 119 0 q 100 46 100 22 l 100 940 q 161 975 100 975 l 190 975 q 251 940 251 975 l 251 128 l 517 128 q 541 116 533 128 q 549 78 549 104 l 549 50 q 541 12 549 24 q 517 0 533 0 l 142 0 m 265 -328 q 233 -322 247 -328 q 219 -304 219 -317 q 228 -267 219 -297 q 253 -119 253 -199 q 313 -71 253 -71 l 331 -71 q 370 -83 357 -71 q 383 -117 383 -96 q 363 -221 383 -172 q 313 -299 342 -269 q 265 -328 285 -328 z "},"Ŀ":{"ha":567,"x_min":100,"x_max":549,"o":"m 142 0 q 110 11 119 0 q 100 46 100 22 l 100 940 q 161 975 100 975 l 190 975 q 251 940 251 975 l 251 128 l 517 128 q 541 116 533 128 q 549 78 549 104 l 549 50 q 541 12 549 24 q 517 0 533 0 l 142 0 m 413 421 q 358 442 379 421 q 338 500 338 464 q 358 558 338 536 q 413 579 379 579 q 467 558 446 579 q 489 500 489 536 q 467 442 489 464 q 413 421 446 421 z "},"ǈ":{"ha":913,"x_min":100,"x_max":817,"o":"m 142 0 q 110 11 119 0 q 100 46 100 22 l 100 940 q 161 975 100 975 l 190 975 q 251 940 251 975 l 251 128 l 517 128 q 541 116 533 128 q 549 78 549 104 l 549 50 q 541 12 549 24 q 517 0 533 0 l 142 0 m 653 -294 q 544 -244 544 -294 q 553 -198 544 -226 q 578 -169 563 -169 q 594 -173 582 -169 q 625 -176 607 -176 q 672 -92 672 -176 l 672 694 q 736 729 672 729 l 750 729 q 814 694 814 729 l 814 -99 q 766 -249 814 -204 q 653 -294 718 -294 m 744 832 q 672 867 672 832 l 672 940 q 744 975 672 975 q 817 940 817 975 l 817 867 q 744 832 817 832 z "},"Ł":{"ha":567,"x_min":100,"x_max":549,"o":"m 517 128 q 541 116 533 128 q 549 78 549 104 l 549 50 q 541 12 549 24 q 517 0 533 0 l 142 0 q 110 11 119 0 q 100 46 100 22 l 100 940 q 161 975 100 975 l 190 975 q 251 940 251 975 l 251 588 l 269 599 q 274 601 272 601 q 276 600 275 601 q 278 596 278 599 q 269 586 278 589 l 251 575 l 251 128 l 517 128 m 278 596 l 278 597 l 278 596 m 133 513 l 133 514 l 133 515 l 133 513 z "},"M":{"ha":957,"x_min":93,"x_max":867,"o":"m 460 325 q 422 349 432 325 l 276 631 q 239 718 258 665 l 233 715 q 240 624 240 664 l 240 32 q 179 -3 240 -3 l 154 -3 q 93 32 93 -3 l 93 940 q 154 975 93 975 l 188 975 q 249 946 235 975 l 457 543 q 479 476 472 513 q 503 543 489 515 l 711 946 q 772 975 726 975 l 806 975 q 867 940 867 975 l 867 32 q 806 -3 867 -3 l 781 -3 q 719 32 719 -3 l 719 624 q 726 715 719 664 l 721 718 q 683 631 701 665 l 538 349 q 500 325 528 325 l 460 325 z "},"N":{"ha":819,"x_min":93,"x_max":726,"o":"m 154 -3 q 93 32 93 -3 l 93 940 q 154 975 93 975 l 188 975 q 224 969 210 975 q 247 944 239 963 l 549 372 q 588 278 567 338 l 594 281 q 583 378 583 332 l 583 940 q 644 975 583 975 l 665 975 q 726 940 726 975 l 726 32 q 665 -3 726 -3 l 638 -3 q 581 24 592 -3 l 268 617 q 232 704 250 649 l 225 701 q 236 608 236 650 l 236 32 q 175 -3 236 -3 l 154 -3 z "},"Ǌ":{"ha":1313,"x_min":93,"x_max":1213,"o":"m 154 -3 q 93 32 93 -3 l 93 940 q 154 975 93 975 l 188 975 q 224 969 210 975 q 247 944 239 963 l 549 372 q 588 278 567 338 l 594 281 q 583 378 583 332 l 583 940 q 644 975 583 975 l 665 975 q 726 940 726 975 l 726 32 q 665 -3 726 -3 l 638 -3 q 581 24 592 -3 l 268 617 q 232 704 250 649 l 225 701 q 236 608 236 650 l 236 32 q 175 -3 236 -3 l 154 -3 m 967 -10 q 875 4 918 -10 q 832 40 832 18 q 844 99 832 65 q 871 132 856 132 q 901 126 879 132 q 946 121 924 121 q 1033 160 1007 121 q 1060 283 1060 199 l 1060 940 q 1121 975 1060 975 l 1151 975 q 1213 940 1213 975 l 1213 283 q 1153 67 1213 144 q 967 -10 1093 -10 z "},"Ń":{"ha":819,"x_min":93,"x_max":726,"o":"m 154 -3 q 93 32 93 -3 l 93 940 q 154 975 93 975 l 188 975 q 224 969 210 975 q 247 944 239 963 l 549 372 q 588 278 567 338 l 594 281 q 583 378 583 332 l 583 940 q 644 975 583 975 l 665 975 q 726 940 726 975 l 726 32 q 665 -3 726 -3 l 638 -3 q 581 24 592 -3 l 268 617 q 232 704 250 649 l 225 701 q 236 608 236 650 l 236 32 q 175 -3 236 -3 l 154 -3 m 396 1054 q 369 1058 376 1054 q 363 1071 363 1061 q 374 1103 363 1079 q 406 1169 385 1128 l 433 1226 q 521 1264 451 1264 q 569 1260 554 1264 q 583 1244 583 1256 q 572 1218 583 1236 q 532 1164 560 1200 q 508 1132 522 1151 q 471 1082 493 1113 q 444 1061 461 1068 q 396 1054 426 1054 z "},"Ň":{"ha":819,"x_min":93,"x_max":726,"o":"m 154 -3 q 93 32 93 -3 l 93 940 q 154 975 93 975 l 188 975 q 224 969 210 975 q 247 944 239 963 l 549 372 q 588 278 567 338 l 594 281 q 583 378 583 332 l 583 940 q 644 975 583 975 l 665 975 q 726 940 726 975 l 726 32 q 665 -3 726 -3 l 638 -3 q 581 24 592 -3 l 268 617 q 232 704 250 649 l 225 701 q 236 608 236 650 l 236 32 q 175 -3 236 -3 l 154 -3 m 401 1051 q 338 1081 356 1051 l 263 1207 q 253 1232 253 1226 q 281 1250 253 1250 l 310 1250 q 356 1228 342 1250 l 410 1139 l 465 1228 q 510 1250 478 1250 l 540 1250 q 568 1231 568 1250 q 558 1207 568 1224 l 482 1081 q 457 1058 472 1064 q 419 1051 442 1051 l 401 1051 z "},"Ņ":{"ha":819,"x_min":93,"x_max":726,"o":"m 154 -3 q 93 32 93 -3 l 93 940 q 154 975 93 975 l 188 975 q 224 969 210 975 q 247 944 239 963 l 549 372 q 588 278 567 338 l 594 281 q 583 378 583 332 l 583 940 q 644 975 583 975 l 665 975 q 726 940 726 975 l 726 32 q 665 -3 726 -3 l 638 -3 q 581 24 592 -3 l 268 617 q 232 704 250 649 l 225 701 q 236 608 236 650 l 236 32 q 175 -3 236 -3 l 154 -3 m 356 -328 q 324 -322 338 -328 q 310 -304 310 -317 q 318 -267 310 -297 q 343 -119 343 -199 q 403 -71 343 -71 l 421 -71 q 460 -83 447 -71 q 474 -117 474 -96 q 453 -221 474 -172 q 403 -299 432 -269 q 356 -328 375 -328 z "},"Ṅ":{"ha":819,"x_min":93,"x_max":726,"o":"m 154 -3 q 93 32 93 -3 l 93 940 q 154 975 93 975 l 188 975 q 224 969 210 975 q 247 944 239 963 l 549 372 q 588 278 567 338 l 594 281 q 583 378 583 332 l 583 940 q 644 975 583 975 l 665 975 q 726 940 726 975 l 726 32 q 665 -3 726 -3 l 638 -3 q 581 24 592 -3 l 268 617 q 232 704 250 649 l 225 701 q 236 608 236 650 l 236 32 q 175 -3 236 -3 l 154 -3 m 411 1078 q 339 1113 339 1078 l 339 1186 q 411 1221 339 1221 q 483 1186 483 1221 l 483 1113 q 411 1078 483 1078 z "},"Ŋ":{"ha":819,"x_min":93,"x_max":726,"o":"m 665 975 q 726 940 726 975 l 726 -99 q 678 -249 726 -204 q 565 -294 631 -294 q 456 -244 456 -294 q 465 -198 456 -226 q 489 -169 475 -169 q 507 -173 494 -169 q 538 -176 519 -176 q 574 -158 561 -176 q 588 -92 588 -139 l 588 8 l 268 617 q 232 704 250 649 l 225 701 q 236 608 236 650 l 236 32 q 175 -3 236 -3 l 154 -3 q 93 32 93 -3 l 93 940 q 154 975 93 975 l 188 975 q 224 969 210 975 q 247 944 239 963 l 549 372 q 588 278 567 338 l 594 281 q 583 378 583 332 l 583 940 q 644 975 583 975 l 665 975 z "},"ǋ":{"ha":1165,"x_min":93,"x_max":1069,"o":"m 154 -3 q 93 32 93 -3 l 93 940 q 154 975 93 975 l 188 975 q 224 969 210 975 q 247 944 239 963 l 549 372 q 588 278 567 338 l 594 281 q 583 378 583 332 l 583 940 q 644 975 583 975 l 665 975 q 726 940 726 975 l 726 32 q 665 -3 726 -3 l 638 -3 q 581 24 592 -3 l 268 617 q 232 704 250 649 l 225 701 q 236 608 236 650 l 236 32 q 175 -3 236 -3 l 154 -3 m 906 -294 q 797 -244 797 -294 q 806 -198 797 -226 q 831 -169 815 -169 q 847 -173 835 -169 q 878 -176 860 -176 q 925 -92 925 -176 l 925 694 q 989 729 925 729 l 1003 729 q 1067 694 1067 729 l 1067 -99 q 1019 -249 1067 -204 q 906 -294 971 -294 m 997 832 q 925 867 925 832 l 925 940 q 997 975 925 975 q 1069 940 1069 975 l 1069 867 q 997 832 1069 832 z "},"Ñ":{"ha":819,"x_min":93,"x_max":726,"o":"m 154 -3 q 93 32 93 -3 l 93 940 q 154 975 93 975 l 188 975 q 224 969 210 975 q 247 944 239 963 l 549 372 q 588 278 567 338 l 594 281 q 583 378 583 332 l 583 940 q 644 975 583 975 l 665 975 q 726 940 726 975 l 726 32 q 665 -3 726 -3 l 638 -3 q 581 24 592 -3 l 268 617 q 232 704 250 649 l 225 701 q 236 608 236 650 l 236 32 q 175 -3 236 -3 l 154 -3 m 219 1068 q 200 1090 200 1075 q 204 1110 200 1100 q 322 1206 240 1206 q 418 1178 354 1206 q 450 1165 424 1175 q 494 1154 476 1154 q 519 1161 508 1154 q 542 1186 529 1168 q 572 1208 556 1208 q 589 1204 578 1208 l 600 1200 q 616 1191 611 1196 q 621 1178 621 1186 q 615 1158 621 1172 q 497 1063 578 1063 q 455 1069 476 1063 q 400 1090 433 1076 q 358 1107 379 1100 q 322 1114 338 1114 q 300 1107 310 1114 q 278 1081 290 1100 q 249 1061 264 1061 q 233 1064 244 1061 l 219 1068 z "},"O":{"ha":832,"x_min":64,"x_max":768,"o":"m 415 -10 q 153 113 243 -10 q 64 488 64 236 q 415 982 64 982 q 768 488 768 982 q 415 -10 768 -10 m 417 118 q 565 207 515 118 q 614 488 614 296 q 565 766 614 679 q 417 853 515 853 q 268 767 317 853 q 219 488 219 681 q 269 207 219 296 q 417 118 318 118 z "},"Ó":{"ha":832,"x_min":64,"x_max":768,"o":"m 415 -10 q 153 113 243 -10 q 64 488 64 236 q 415 982 64 982 q 768 488 768 982 q 415 -10 768 -10 m 417 118 q 565 207 515 118 q 614 488 614 296 q 565 766 614 679 q 417 853 515 853 q 268 767 317 853 q 219 488 219 681 q 269 207 219 296 q 417 118 318 118 m 403 1054 q 376 1058 383 1054 q 369 1071 369 1061 q 381 1103 369 1079 q 413 1169 392 1128 l 440 1226 q 528 1264 458 1264 q 576 1260 561 1264 q 590 1244 590 1256 q 578 1218 590 1236 q 539 1164 567 1200 q 515 1132 529 1151 q 478 1082 500 1113 q 451 1061 468 1068 q 403 1054 433 1054 z "},"Ŏ":{"ha":832,"x_min":64,"x_max":768,"o":"m 415 -10 q 153 113 243 -10 q 64 488 64 236 q 415 982 64 982 q 768 488 768 982 q 415 -10 768 -10 m 417 118 q 565 207 515 118 q 614 488 614 296 q 565 766 614 679 q 417 853 515 853 q 268 767 317 853 q 219 488 219 681 q 269 207 219 296 q 417 118 318 118 m 417 1054 q 295 1097 342 1054 q 249 1211 249 1140 q 282 1239 249 1239 q 301 1233 296 1239 q 315 1207 307 1226 q 350 1169 326 1182 q 417 1156 374 1156 q 518 1208 497 1156 q 531 1233 525 1226 q 550 1239 536 1239 q 583 1211 583 1239 q 537 1097 583 1140 q 417 1054 490 1054 z "},"Ô":{"ha":832,"x_min":64,"x_max":768,"o":"m 415 -10 q 153 113 243 -10 q 64 488 64 236 q 415 982 64 982 q 768 488 768 982 q 415 -10 768 -10 m 417 118 q 565 207 515 118 q 614 488 614 296 q 565 766 614 679 q 417 853 515 853 q 268 767 317 853 q 219 488 219 681 q 269 207 219 296 q 417 118 318 118 m 286 1044 q 265 1049 272 1044 q 258 1061 258 1054 q 268 1086 258 1067 l 343 1214 q 408 1243 363 1243 l 424 1243 q 488 1214 468 1243 l 564 1086 q 574 1063 574 1072 q 546 1044 574 1044 l 515 1044 q 471 1065 483 1044 l 415 1156 l 361 1065 q 315 1044 346 1044 l 286 1044 z "},"Ố":{"ha":813,"x_min":64,"x_max":768,"o":"m 544 1181 q 521 1184 528 1181 q 514 1197 514 1188 q 528 1240 514 1207 q 569 1335 542 1274 q 653 1372 586 1372 q 688 1367 678 1372 q 699 1350 699 1363 q 684 1318 699 1340 q 603 1204 669 1296 q 580 1186 593 1192 q 544 1181 567 1181 m 285 1044 q 257 1061 257 1044 q 264 1086 257 1072 l 333 1214 q 397 1243 350 1243 l 414 1243 q 453 1237 438 1243 q 478 1214 469 1231 l 547 1086 q 556 1063 556 1069 q 548 1049 556 1054 q 528 1044 540 1044 l 499 1044 q 453 1064 464 1044 l 406 1156 l 358 1065 q 342 1049 353 1053 q 314 1044 331 1044 l 285 1044 m 415 -10 q 153 113 243 -10 q 64 488 64 236 q 415 982 64 982 q 768 488 768 982 q 415 -10 768 -10 m 417 118 q 565 207 515 118 q 614 488 614 296 q 565 766 614 679 q 417 853 515 853 q 268 767 317 853 q 219 488 219 681 q 269 207 219 296 q 417 118 318 118 z "},"Ộ":{"ha":832,"x_min":64,"x_max":768,"o":"m 415 -10 q 153 113 243 -10 q 64 488 64 236 q 415 982 64 982 q 768 488 768 982 q 415 -10 768 -10 m 417 118 q 565 207 515 118 q 614 488 614 296 q 565 766 614 679 q 417 853 515 853 q 268 767 317 853 q 219 488 219 681 q 269 207 219 296 q 417 118 318 118 m 421 -254 q 349 -219 349 -254 l 349 -146 q 421 -111 349 -111 q 493 -146 493 -111 l 493 -219 q 421 -254 493 -254 m 286 1044 q 265 1049 272 1044 q 258 1061 258 1054 q 268 1086 258 1067 l 343 1214 q 408 1243 363 1243 l 424 1243 q 488 1214 468 1243 l 564 1086 q 574 1063 574 1072 q 546 1044 574 1044 l 515 1044 q 471 1065 483 1044 l 415 1156 l 361 1065 q 315 1044 346 1044 l 286 1044 z "},"Ồ":{"ha":813,"x_min":64,"x_max":768,"o":"m 599 1181 q 539 1206 557 1181 l 515 1240 q 463 1318 479 1293 q 447 1351 447 1343 q 458 1367 447 1363 q 496 1372 469 1372 q 579 1335 564 1372 q 618 1240 606 1274 q 631 1197 631 1207 q 623 1184 631 1188 q 599 1181 615 1181 m 285 1044 q 257 1061 257 1044 q 264 1086 257 1072 l 333 1214 q 397 1243 350 1243 l 414 1243 q 453 1237 438 1243 q 478 1214 469 1231 l 547 1086 q 556 1063 556 1069 q 548 1049 556 1054 q 528 1044 540 1044 l 499 1044 q 453 1064 464 1044 l 406 1156 l 358 1065 q 342 1049 353 1053 q 314 1044 331 1044 l 285 1044 m 415 -10 q 153 113 243 -10 q 64 488 64 236 q 415 982 64 982 q 768 488 768 982 q 415 -10 768 -10 m 417 118 q 565 207 515 118 q 614 488 614 296 q 565 766 614 679 q 417 853 515 853 q 268 767 317 853 q 219 488 219 681 q 269 207 219 296 q 417 118 318 118 z "},"Ổ":{"ha":813,"x_min":64,"x_max":768,"o":"m 565 1190 q 526 1199 542 1190 q 511 1219 511 1208 q 520 1233 511 1226 q 543 1247 529 1240 q 586 1294 586 1269 q 573 1320 586 1311 q 542 1329 560 1329 q 494 1319 511 1329 q 475 1308 478 1308 q 453 1328 467 1308 q 439 1358 439 1347 q 475 1385 439 1372 q 547 1397 511 1397 q 633 1374 596 1397 q 669 1304 669 1350 q 625 1221 669 1258 q 592 1200 610 1210 q 565 1190 574 1190 m 285 1044 q 257 1061 257 1044 q 264 1086 257 1072 l 333 1214 q 397 1243 350 1243 l 414 1243 q 453 1237 438 1243 q 478 1214 469 1231 l 547 1086 q 556 1063 556 1069 q 548 1049 556 1054 q 528 1044 540 1044 l 499 1044 q 453 1064 464 1044 l 406 1156 l 358 1065 q 342 1049 353 1053 q 314 1044 331 1044 l 285 1044 m 415 -10 q 153 113 243 -10 q 64 488 64 236 q 415 982 64 982 q 768 488 768 982 q 415 -10 768 -10 m 417 118 q 565 207 515 118 q 614 488 614 296 q 565 766 614 679 q 417 853 515 853 q 268 767 317 853 q 219 488 219 681 q 269 207 219 296 q 417 118 318 118 z "},"Ỗ":{"ha":813,"x_min":64,"x_max":768,"o":"m 228 1256 q 210 1278 210 1264 q 214 1297 210 1285 q 321 1393 249 1393 q 407 1365 349 1393 q 478 1342 457 1342 q 500 1349 490 1342 q 521 1374 510 1356 q 549 1396 533 1396 q 564 1392 556 1396 l 574 1388 q 593 1365 593 1379 q 592 1354 593 1358 q 589 1346 590 1350 q 482 1250 553 1250 q 444 1257 464 1250 q 392 1279 425 1264 q 321 1303 342 1303 q 281 1268 300 1303 q 254 1247 268 1247 q 240 1250 251 1247 l 228 1256 m 285 1044 q 257 1063 257 1044 q 268 1089 257 1067 l 333 1183 q 360 1206 346 1199 q 399 1213 375 1213 l 415 1213 q 479 1183 458 1213 l 546 1089 q 556 1063 556 1074 q 529 1044 556 1044 l 499 1044 q 453 1064 469 1044 l 406 1138 l 361 1065 q 342 1049 353 1054 q 314 1044 332 1044 l 285 1044 m 415 -10 q 153 113 243 -10 q 64 488 64 236 q 415 982 64 982 q 768 488 768 982 q 415 -10 768 -10 m 417 118 q 565 207 515 118 q 614 488 614 296 q 565 766 614 679 q 417 853 515 853 q 268 767 317 853 q 219 488 219 681 q 269 207 219 296 q 417 118 318 118 z "},"Ö":{"ha":832,"x_min":64,"x_max":768,"o":"m 415 -10 q 153 113 243 -10 q 64 488 64 236 q 415 982 64 982 q 768 488 768 982 q 415 -10 768 -10 m 417 118 q 565 207 515 118 q 614 488 614 296 q 565 766 614 679 q 417 853 515 853 q 268 767 317 853 q 219 488 219 681 q 269 207 219 296 q 417 118 318 118 m 322 1078 q 263 1113 263 1078 l 263 1186 q 324 1221 263 1221 q 385 1186 385 1221 l 385 1113 q 322 1078 385 1078 m 513 1078 q 451 1113 451 1078 l 451 1186 q 514 1221 451 1221 q 574 1186 574 1221 l 574 1113 q 513 1078 574 1078 z "},"Ọ":{"ha":832,"x_min":64,"x_max":768,"o":"m 415 -10 q 153 113 243 -10 q 64 488 64 236 q 415 982 64 982 q 768 488 768 982 q 415 -10 768 -10 m 417 118 q 565 207 515 118 q 614 488 614 296 q 565 766 614 679 q 417 853 515 853 q 268 767 317 853 q 219 488 219 681 q 269 207 219 296 q 417 118 318 118 m 421 -254 q 349 -219 349 -254 l 349 -146 q 421 -111 349 -111 q 493 -146 493 -111 l 493 -219 q 421 -254 493 -254 z "},"Ò":{"ha":832,"x_min":64,"x_max":768,"o":"m 415 -10 q 153 113 243 -10 q 64 488 64 236 q 415 982 64 982 q 768 488 768 982 q 415 -10 768 -10 m 417 118 q 565 207 515 118 q 614 488 614 296 q 565 766 614 679 q 417 853 515 853 q 268 767 317 853 q 219 488 219 681 q 269 207 219 296 q 417 118 318 118 m 446 1054 q 371 1082 389 1054 l 326 1140 q 268 1219 279 1203 q 257 1244 257 1235 q 272 1260 257 1256 q 321 1264 288 1264 q 408 1226 389 1264 q 460 1119 442 1157 q 478 1071 478 1081 q 471 1058 478 1061 q 446 1054 464 1054 z "},"Ỏ":{"ha":832,"x_min":64,"x_max":768,"o":"m 415 -10 q 153 113 243 -10 q 64 488 64 236 q 415 982 64 982 q 768 488 768 982 q 415 -10 768 -10 m 417 118 q 565 207 515 118 q 614 488 614 296 q 565 766 614 679 q 417 853 515 853 q 268 767 317 853 q 219 488 219 681 q 269 207 219 296 q 417 118 318 118 m 433 1031 q 399 1040 418 1031 q 379 1057 379 1049 q 387 1075 379 1067 q 414 1100 394 1083 q 453 1137 439 1119 q 467 1178 467 1154 q 453 1203 467 1194 q 418 1213 439 1213 q 374 1204 390 1213 q 356 1196 358 1196 q 333 1215 347 1196 q 319 1244 319 1233 q 356 1273 319 1258 q 429 1288 393 1288 q 524 1263 483 1288 q 564 1186 564 1238 q 538 1112 564 1147 q 478 1053 511 1076 q 433 1031 446 1031 z "},"Ơ":{"ha":832,"x_min":64,"x_max":803,"o":"m 415 -10 q 153 113 243 -10 q 64 488 64 236 q 415 982 64 982 q 611 925 526 982 q 657 910 636 910 q 711 956 711 910 q 704 985 711 972 q 685 1015 697 999 q 674 1039 674 1032 q 686 1063 674 1054 l 724 1088 q 742 1093 731 1093 q 784 1057 765 1093 q 803 988 803 1021 q 771 900 803 933 q 675 861 739 867 q 768 488 768 739 q 415 -10 768 -10 m 417 118 q 565 207 515 118 q 614 488 614 296 q 565 766 614 679 q 417 853 515 853 q 268 767 317 853 q 219 488 219 681 q 269 207 219 296 q 417 118 318 118 z "},"Ớ":{"ha":832,"x_min":64,"x_max":803,"o":"m 415 -10 q 153 113 243 -10 q 64 488 64 236 q 415 982 64 982 q 611 925 526 982 q 657 910 636 910 q 711 956 711 910 q 704 985 711 972 q 685 1015 697 999 q 674 1039 674 1032 q 686 1063 674 1054 l 724 1088 q 742 1093 731 1093 q 784 1057 765 1093 q 803 988 803 1021 q 771 900 803 933 q 675 861 739 867 q 768 488 768 739 q 415 -10 768 -10 m 417 118 q 565 207 515 118 q 614 488 614 296 q 565 766 614 679 q 417 853 515 853 q 268 767 317 853 q 219 488 219 681 q 269 207 219 296 q 417 118 318 118 m 403 1054 q 376 1058 383 1054 q 369 1071 369 1061 q 381 1103 369 1079 q 413 1169 392 1128 l 440 1226 q 528 1264 458 1264 q 576 1260 561 1264 q 590 1244 590 1256 q 578 1218 590 1236 q 539 1164 567 1200 q 515 1132 529 1151 q 478 1082 500 1113 q 451 1061 468 1068 q 403 1054 433 1054 z "},"Ợ":{"ha":832,"x_min":64,"x_max":803,"o":"m 415 -10 q 153 113 243 -10 q 64 488 64 236 q 415 982 64 982 q 611 925 526 982 q 657 910 636 910 q 711 956 711 910 q 704 985 711 972 q 685 1015 697 999 q 674 1039 674 1032 q 686 1063 674 1054 l 724 1088 q 742 1093 731 1093 q 784 1057 765 1093 q 803 988 803 1021 q 771 900 803 933 q 675 861 739 867 q 768 488 768 739 q 415 -10 768 -10 m 417 118 q 565 207 515 118 q 614 488 614 296 q 565 766 614 679 q 417 853 515 853 q 268 767 317 853 q 219 488 219 681 q 269 207 219 296 q 417 118 318 118 m 421 -254 q 349 -219 349 -254 l 349 -146 q 421 -111 349 -111 q 493 -146 493 -111 l 493 -219 q 421 -254 493 -254 z "},"Ờ":{"ha":832,"x_min":64,"x_max":803,"o":"m 415 -10 q 153 113 243 -10 q 64 488 64 236 q 415 982 64 982 q 611 925 526 982 q 657 910 636 910 q 711 956 711 910 q 704 985 711 972 q 685 1015 697 999 q 674 1039 674 1032 q 686 1063 674 1054 l 724 1088 q 742 1093 731 1093 q 784 1057 765 1093 q 803 988 803 1021 q 771 900 803 933 q 675 861 739 867 q 768 488 768 739 q 415 -10 768 -10 m 417 118 q 565 207 515 118 q 614 488 614 296 q 565 766 614 679 q 417 853 515 853 q 268 767 317 853 q 219 488 219 681 q 269 207 219 296 q 417 118 318 118 m 446 1054 q 371 1082 389 1054 l 326 1140 q 268 1219 279 1203 q 257 1244 257 1235 q 272 1260 257 1256 q 321 1264 288 1264 q 408 1226 389 1264 q 460 1119 442 1157 q 478 1071 478 1081 q 471 1058 478 1061 q 446 1054 464 1054 z "},"Ở":{"ha":832,"x_min":64,"x_max":803,"o":"m 415 -10 q 153 113 243 -10 q 64 488 64 236 q 415 982 64 982 q 611 925 526 982 q 657 910 636 910 q 711 956 711 910 q 704 985 711 972 q 685 1015 697 999 q 674 1039 674 1032 q 686 1063 674 1054 l 724 1088 q 742 1093 731 1093 q 784 1057 765 1093 q 803 988 803 1021 q 771 900 803 933 q 675 861 739 867 q 768 488 768 739 q 415 -10 768 -10 m 417 118 q 565 207 515 118 q 614 488 614 296 q 565 766 614 679 q 417 853 515 853 q 268 767 317 853 q 219 488 219 681 q 269 207 219 296 q 417 118 318 118 m 433 1031 q 399 1040 418 1031 q 379 1057 379 1049 q 387 1075 379 1067 q 414 1100 394 1083 q 453 1137 439 1119 q 467 1178 467 1154 q 453 1203 467 1194 q 418 1213 439 1213 q 374 1204 390 1213 q 356 1196 358 1196 q 333 1215 347 1196 q 319 1244 319 1233 q 356 1273 319 1258 q 429 1288 393 1288 q 524 1263 483 1288 q 564 1186 564 1238 q 538 1112 564 1147 q 478 1053 511 1076 q 433 1031 446 1031 z "},"Ỡ":{"ha":832,"x_min":64,"x_max":803,"o":"m 415 -10 q 153 113 243 -10 q 64 488 64 236 q 415 982 64 982 q 611 925 526 982 q 657 910 636 910 q 711 956 711 910 q 704 985 711 972 q 685 1015 697 999 q 674 1039 674 1032 q 686 1063 674 1054 l 724 1088 q 742 1093 731 1093 q 784 1057 765 1093 q 803 988 803 1021 q 771 900 803 933 q 675 861 739 867 q 768 488 768 739 q 415 -10 768 -10 m 417 118 q 565 207 515 118 q 614 488 614 296 q 565 766 614 679 q 417 853 515 853 q 268 767 317 853 q 219 488 219 681 q 269 207 219 296 q 417 118 318 118 m 226 1068 q 207 1090 207 1075 q 211 1110 207 1100 q 329 1206 247 1206 q 425 1178 361 1206 q 457 1165 431 1175 q 501 1154 483 1154 q 526 1161 515 1154 q 549 1186 536 1168 q 579 1208 563 1208 q 596 1204 585 1208 l 607 1200 q 623 1191 618 1196 q 628 1178 628 1186 q 622 1158 628 1172 q 504 1063 585 1063 q 462 1069 483 1063 q 407 1090 440 1076 q 365 1107 386 1100 q 329 1114 344 1114 q 307 1107 317 1114 q 285 1081 297 1100 q 256 1061 271 1061 q 240 1064 251 1061 l 226 1068 z "},"Ő":{"ha":832,"x_min":64,"x_max":768,"o":"m 415 -10 q 153 113 243 -10 q 64 488 64 236 q 415 982 64 982 q 768 488 768 982 q 415 -10 768 -10 m 417 118 q 565 207 515 118 q 614 488 614 296 q 565 766 614 679 q 417 853 515 853 q 268 767 317 853 q 219 488 219 681 q 269 207 219 296 q 417 118 318 118 m 288 1054 q 261 1058 268 1054 q 254 1071 254 1061 q 260 1091 254 1076 q 278 1128 267 1106 l 325 1226 q 413 1264 342 1264 q 461 1260 446 1264 q 476 1244 476 1256 q 466 1221 476 1236 q 433 1175 456 1206 q 364 1082 419 1157 q 288 1054 343 1054 m 479 1054 q 454 1058 461 1054 q 447 1071 447 1061 q 453 1091 447 1076 q 471 1128 460 1106 l 518 1226 q 606 1264 535 1264 q 653 1260 639 1264 q 668 1244 668 1256 q 651 1210 668 1233 q 556 1082 635 1186 q 528 1061 546 1068 q 479 1054 511 1054 z "},"Ō":{"ha":832,"x_min":64,"x_max":768,"o":"m 415 -10 q 153 113 243 -10 q 64 488 64 236 q 415 982 64 982 q 768 488 768 982 q 415 -10 768 -10 m 417 118 q 565 207 515 118 q 614 488 614 296 q 565 766 614 679 q 417 853 515 853 q 268 767 317 853 q 219 488 219 681 q 269 207 219 296 q 417 118 318 118 m 283 1090 q 253 1136 253 1090 l 253 1151 q 283 1197 253 1197 l 557 1197 q 581 1186 574 1197 q 588 1151 588 1175 l 588 1136 q 581 1101 588 1113 q 557 1090 574 1090 l 283 1090 z "},"Ǫ":{"ha":832,"x_min":64,"x_max":768,"o":"m 768 488 q 522 4 768 72 q 494 -99 494 -50 q 514 -146 494 -133 q 563 -158 533 -158 q 591 -154 574 -158 q 613 -150 608 -150 q 644 -186 644 -150 q 625 -225 644 -212 q 536 -249 588 -249 q 433 -208 460 -249 q 407 -124 407 -168 q 436 -10 407 -67 l 415 -10 q 153 113 243 -10 q 64 488 64 236 q 415 982 64 982 q 768 488 768 982 m 219 488 q 269 207 219 296 q 417 118 318 118 q 565 207 515 118 q 614 488 614 296 q 565 766 614 679 q 417 853 515 853 q 268 767 317 853 q 219 488 219 681 z "},"Ø":{"ha":832,"x_min":64,"x_max":768,"o":"m 682 856 q 768 488 768 732 q 415 -10 768 -10 q 189 72 275 -10 l 139 -8 q 115 -26 131 -26 q 88 -15 103 -26 q 72 8 72 -4 q 79 29 72 21 l 143 131 q 64 488 64 254 q 415 982 64 982 q 632 911 549 982 l 678 983 q 701 1000 689 1000 q 731 989 715 1000 q 746 965 746 978 q 739 946 746 957 l 682 856 m 219 488 q 239 285 219 367 l 553 785 q 417 853 507 853 q 268 767 317 853 q 219 488 219 681 m 417 118 q 565 207 515 118 q 614 488 614 296 q 589 707 614 624 l 271 201 q 417 118 319 118 z "},"Ǿ":{"ha":832,"x_min":64,"x_max":768,"o":"m 682 856 q 768 488 768 732 q 415 -10 768 -10 q 189 72 275 -10 l 139 -8 q 115 -26 131 -26 q 88 -15 103 -26 q 72 8 72 -4 q 79 29 72 21 l 143 131 q 64 488 64 254 q 415 982 64 982 q 632 911 549 982 l 678 983 q 701 1000 689 1000 q 731 989 715 1000 q 746 965 746 978 q 739 946 746 957 l 682 856 m 219 488 q 239 285 219 367 l 553 785 q 417 853 507 853 q 268 767 317 853 q 219 488 219 681 m 417 118 q 565 207 515 118 q 614 488 614 296 q 589 707 614 624 l 271 201 q 417 118 319 118 m 403 1054 q 376 1058 383 1054 q 369 1071 369 1061 q 381 1103 369 1079 q 413 1169 392 1128 l 440 1226 q 528 1264 458 1264 q 576 1260 561 1264 q 590 1244 590 1256 q 578 1218 590 1236 q 539 1164 567 1200 q 515 1132 529 1151 q 478 1082 500 1113 q 451 1061 468 1068 q 403 1054 433 1054 z "},"Õ":{"ha":832,"x_min":64,"x_max":768,"o":"m 415 -10 q 153 113 243 -10 q 64 488 64 236 q 415 982 64 982 q 768 488 768 982 q 415 -10 768 -10 m 417 118 q 565 207 515 118 q 614 488 614 296 q 565 766 614 679 q 417 853 515 853 q 268 767 317 853 q 219 488 219 681 q 269 207 219 296 q 417 118 318 118 m 226 1068 q 207 1090 207 1075 q 211 1110 207 1100 q 329 1206 247 1206 q 425 1178 361 1206 q 457 1165 431 1175 q 501 1154 483 1154 q 526 1161 515 1154 q 549 1186 536 1168 q 579 1208 563 1208 q 596 1204 585 1208 l 607 1200 q 623 1191 618 1196 q 628 1178 628 1186 q 622 1158 628 1172 q 504 1063 585 1063 q 462 1069 483 1063 q 407 1090 440 1076 q 365 1107 386 1100 q 329 1114 344 1114 q 307 1107 317 1114 q 285 1081 297 1100 q 256 1061 271 1061 q 240 1064 251 1061 l 226 1068 z "},"Œ":{"ha":1143,"x_min":64,"x_max":1090,"o":"m 1060 128 q 1090 78 1090 128 l 1090 50 q 1060 0 1090 0 l 651 0 q 619 11 629 0 q 610 46 610 22 l 610 79 q 399 -10 526 -10 q 151 113 239 -10 q 64 489 64 235 q 401 982 64 982 q 517 961 467 982 q 610 894 568 940 l 610 928 q 619 962 610 951 q 651 972 629 972 l 1058 972 q 1089 922 1089 972 l 1089 894 q 1058 844 1089 844 l 761 844 l 761 561 l 1028 561 q 1058 511 1058 561 l 1058 483 q 1028 433 1058 433 l 761 433 l 761 128 l 1060 128 m 411 118 q 559 206 510 118 q 608 488 608 294 q 560 768 608 683 q 411 853 511 853 q 267 768 314 853 q 219 488 219 683 q 267 206 219 294 q 411 118 315 118 z "},"P":{"ha":669,"x_min":94,"x_max":629,"o":"m 156 -3 q 94 32 94 -3 l 94 926 q 105 961 94 950 q 138 972 115 972 l 369 972 q 550 913 471 972 q 629 690 629 853 q 584 509 629 574 q 482 422 539 444 q 381 400 425 400 l 244 400 l 244 32 q 183 -3 244 -3 l 156 -3 m 369 526 q 444 563 411 526 q 478 690 478 599 q 444 810 478 776 q 363 844 410 844 l 244 844 l 244 526 l 369 526 z "},"Þ":{"ha":669,"x_min":94,"x_max":629,"o":"m 156 -3 q 94 32 94 -3 l 94 940 q 156 975 94 975 l 185 975 q 246 940 246 975 l 246 808 l 369 808 q 551 749 472 808 q 629 528 629 690 q 584 346 629 411 q 482 258 539 281 q 381 236 425 236 l 246 236 l 246 32 q 185 -3 246 -3 l 156 -3 m 369 363 q 444 399 411 363 q 478 528 478 436 q 444 648 478 614 q 361 682 410 682 l 246 682 l 246 363 l 369 363 z "},"Q":{"ha":832,"x_min":64,"x_max":818,"o":"m 743 -231 q 482 -96 731 -231 q 374 -38 429 -68 q 264 19 318 -8 q 114 185 164 69 q 64 486 64 300 q 153 860 64 738 q 415 982 243 982 q 768 486 768 982 q 554 17 768 99 l 554 11 l 801 -104 q 818 -126 818 -112 q 804 -163 817 -137 q 775 -210 792 -189 q 743 -231 758 -231 m 417 117 q 565 206 515 117 q 614 486 614 294 q 565 765 614 678 q 417 853 515 853 q 269 765 318 853 q 219 486 219 678 q 269 205 219 293 q 417 117 318 117 z "},"R":{"ha":713,"x_min":97,"x_max":685,"o":"m 160 -3 q 97 32 97 -3 l 97 926 q 140 972 97 972 l 354 972 q 558 913 489 972 q 628 718 628 853 q 499 483 628 551 l 499 478 q 550 422 528 463 q 594 314 572 382 l 681 43 q 683 33 682 38 q 685 24 685 28 q 621 -3 685 -3 l 590 -3 q 550 4 567 -3 q 529 24 533 11 l 449 294 q 401 383 428 360 q 321 407 374 407 l 249 407 l 249 32 q 186 -3 249 -3 l 160 -3 m 369 540 q 445 585 414 540 q 476 697 476 631 q 446 808 476 772 q 363 844 415 844 l 247 844 l 247 540 l 369 540 z "},"Ŕ":{"ha":713,"x_min":97,"x_max":685,"o":"m 160 -3 q 97 32 97 -3 l 97 926 q 140 972 97 972 l 354 972 q 558 913 489 972 q 628 718 628 853 q 499 483 628 551 l 499 478 q 550 422 528 463 q 594 314 572 382 l 681 43 q 683 33 682 38 q 685 24 685 28 q 621 -3 685 -3 l 590 -3 q 550 4 567 -3 q 529 24 533 11 l 449 294 q 401 383 428 360 q 321 407 374 407 l 249 407 l 249 32 q 186 -3 249 -3 l 160 -3 m 369 540 q 445 585 414 540 q 476 697 476 631 q 446 808 476 772 q 363 844 415 844 l 247 844 l 247 540 l 369 540 m 338 1054 q 311 1058 318 1054 q 304 1071 304 1061 q 315 1103 304 1079 q 347 1169 326 1128 l 375 1226 q 463 1264 393 1264 q 510 1260 496 1264 q 525 1244 525 1256 q 513 1218 525 1236 q 474 1164 501 1200 q 449 1132 464 1151 q 413 1082 435 1113 q 385 1061 403 1068 q 338 1054 368 1054 z "},"Ř":{"ha":713,"x_min":97,"x_max":685,"o":"m 160 -3 q 97 32 97 -3 l 97 926 q 140 972 97 972 l 354 972 q 558 913 489 972 q 628 718 628 853 q 499 483 628 551 l 499 478 q 550 422 528 463 q 594 314 572 382 l 681 43 q 683 33 682 38 q 685 24 685 28 q 621 -3 685 -3 l 590 -3 q 550 4 567 -3 q 529 24 533 11 l 449 294 q 401 383 428 360 q 321 407 374 407 l 249 407 l 249 32 q 186 -3 249 -3 l 160 -3 m 369 540 q 445 585 414 540 q 476 697 476 631 q 446 808 476 772 q 363 844 415 844 l 247 844 l 247 540 l 369 540 m 343 1051 q 279 1081 297 1051 l 204 1207 q 194 1232 194 1226 q 222 1250 194 1250 l 251 1250 q 297 1228 283 1250 l 351 1139 l 407 1228 q 451 1250 419 1250 l 482 1250 q 510 1231 510 1250 q 500 1207 510 1224 l 424 1081 q 399 1058 414 1064 q 361 1051 383 1051 l 343 1051 z "},"Ŗ":{"ha":713,"x_min":97,"x_max":685,"o":"m 160 -3 q 97 32 97 -3 l 97 926 q 140 972 97 972 l 354 972 q 558 913 489 972 q 628 718 628 853 q 499 483 628 551 l 499 478 q 550 422 528 463 q 594 314 572 382 l 681 43 q 683 33 682 38 q 685 24 685 28 q 621 -3 685 -3 l 590 -3 q 550 4 567 -3 q 529 24 533 11 l 449 294 q 401 383 428 360 q 321 407 374 407 l 249 407 l 249 32 q 186 -3 249 -3 l 160 -3 m 369 540 q 445 585 414 540 q 476 697 476 631 q 446 808 476 772 q 363 844 415 844 l 247 844 l 247 540 l 369 540 m 301 -328 q 269 -322 283 -328 q 256 -304 256 -317 q 264 -267 256 -297 q 289 -119 289 -199 q 349 -71 289 -71 l 367 -71 q 406 -83 393 -71 q 419 -117 419 -96 q 399 -221 419 -172 q 349 -299 378 -269 q 301 -328 321 -328 z "},"Ṛ":{"ha":713,"x_min":97,"x_max":685,"o":"m 160 -3 q 97 32 97 -3 l 97 926 q 140 972 97 972 l 354 972 q 558 913 489 972 q 628 718 628 853 q 499 483 628 551 l 499 478 q 550 422 528 463 q 594 314 572 382 l 681 43 q 683 33 682 38 q 685 24 685 28 q 621 -3 685 -3 l 590 -3 q 550 4 567 -3 q 529 24 533 11 l 449 294 q 401 383 428 360 q 321 407 374 407 l 249 407 l 249 32 q 186 -3 249 -3 l 160 -3 m 369 540 q 445 585 414 540 q 476 697 476 631 q 446 808 476 772 q 363 844 415 844 l 247 844 l 247 540 l 369 540 m 360 -254 q 288 -219 288 -254 l 288 -146 q 360 -111 288 -111 q 432 -146 432 -111 l 432 -219 q 360 -254 432 -254 z "},"S":{"ha":607,"x_min":42,"x_max":574,"o":"m 281 -8 q 157 9 215 -8 q 58 58 99 26 q 46 74 50 67 q 42 94 42 82 q 54 155 42 124 q 83 186 67 186 q 99 181 90 186 q 114 174 108 176 q 278 122 183 122 q 383 158 342 122 q 424 261 424 194 q 389 357 424 322 q 285 428 354 392 q 164 501 210 467 q 90 587 118 535 q 61 715 61 639 q 141 914 61 842 q 349 986 221 986 q 443 974 397 986 q 522 942 489 963 q 536 917 536 933 q 522 857 536 892 q 493 822 508 822 q 468 831 488 822 q 350 856 413 856 q 249 822 288 856 q 210 728 210 788 q 228 655 210 685 q 278 604 247 625 q 367 551 308 583 q 478 482 435 515 q 547 398 521 449 q 574 272 574 347 q 494 68 574 144 q 281 -8 414 -8 z "},"Ś":{"ha":607,"x_min":42,"x_max":574,"o":"m 281 -8 q 157 9 215 -8 q 58 58 99 26 q 46 74 50 67 q 42 94 42 82 q 54 155 42 124 q 83 186 67 186 q 99 181 90 186 q 114 174 108 176 q 278 122 183 122 q 383 158 342 122 q 424 261 424 194 q 389 357 424 322 q 285 428 354 392 q 164 501 210 467 q 90 587 118 535 q 61 715 61 639 q 141 914 61 842 q 349 986 221 986 q 443 974 397 986 q 522 942 489 963 q 536 917 536 933 q 522 857 536 892 q 493 822 508 822 q 468 831 488 822 q 350 856 413 856 q 249 822 288 856 q 210 728 210 788 q 228 655 210 685 q 278 604 247 625 q 367 551 308 583 q 478 482 435 515 q 547 398 521 449 q 574 272 574 347 q 494 68 574 144 q 281 -8 414 -8 m 311 1054 q 285 1058 292 1054 q 278 1071 278 1061 q 289 1103 278 1079 q 321 1169 300 1128 l 349 1226 q 436 1264 367 1264 q 484 1260 469 1264 q 499 1244 499 1256 q 487 1218 499 1236 q 447 1164 475 1200 q 423 1132 438 1151 q 386 1082 408 1113 q 359 1061 376 1068 q 311 1054 342 1054 z "},"Š":{"ha":607,"x_min":42,"x_max":574,"o":"m 281 -8 q 157 9 215 -8 q 58 58 99 26 q 46 74 50 67 q 42 94 42 82 q 54 155 42 124 q 83 186 67 186 q 99 181 90 186 q 114 174 108 176 q 278 122 183 122 q 383 158 342 122 q 424 261 424 194 q 389 357 424 322 q 285 428 354 392 q 164 501 210 467 q 90 587 118 535 q 61 715 61 639 q 141 914 61 842 q 349 986 221 986 q 443 974 397 986 q 522 942 489 963 q 536 917 536 933 q 522 857 536 892 q 493 822 508 822 q 468 831 488 822 q 350 856 413 856 q 249 822 288 856 q 210 728 210 788 q 228 655 210 685 q 278 604 247 625 q 367 551 308 583 q 478 482 435 515 q 547 398 521 449 q 574 272 574 347 q 494 68 574 144 q 281 -8 414 -8 m 317 1051 q 253 1081 271 1051 l 178 1207 q 168 1232 168 1226 q 196 1250 168 1250 l 225 1250 q 271 1228 257 1250 l 325 1139 l 381 1228 q 425 1250 393 1250 l 456 1250 q 483 1231 483 1250 q 474 1207 483 1224 l 397 1081 q 372 1058 388 1064 q 335 1051 357 1051 l 317 1051 z "},"Ş":{"ha":607,"x_min":42,"x_max":574,"o":"m 574 272 q 510 86 574 160 q 339 -4 447 13 l 318 -78 q 387 -103 357 -81 q 417 -175 417 -125 q 379 -265 417 -237 q 281 -293 342 -293 q 188 -274 232 -293 q 144 -229 144 -256 q 156 -200 144 -214 q 176 -186 167 -186 q 210 -197 185 -186 q 271 -215 246 -215 q 301 -206 288 -215 q 314 -179 314 -197 q 303 -153 314 -161 q 272 -137 293 -144 q 249 -125 256 -131 q 242 -110 242 -119 q 249 -78 242 -101 q 271 -8 256 -54 q 153 10 208 -7 q 58 58 97 28 q 46 74 50 67 q 42 94 42 82 q 54 155 42 124 q 83 186 67 186 q 99 181 90 186 q 114 174 108 176 q 278 122 183 122 q 383 158 342 122 q 424 261 424 194 q 389 357 424 322 q 285 428 354 392 q 164 501 210 467 q 90 587 118 535 q 61 715 61 639 q 141 914 61 842 q 349 986 221 986 q 443 974 397 986 q 522 942 489 963 q 536 917 536 933 q 522 857 536 892 q 493 822 508 822 q 468 831 488 822 q 350 856 413 856 q 249 822 288 856 q 210 728 210 788 q 228 655 210 685 q 278 604 247 625 q 367 551 308 583 q 478 482 435 515 q 547 398 521 449 q 574 272 574 347 z "},"Ŝ":{"ha":607,"x_min":42,"x_max":574,"o":"m 281 -8 q 157 9 215 -8 q 58 58 99 26 q 46 74 50 67 q 42 94 42 82 q 54 155 42 124 q 83 186 67 186 q 99 181 90 186 q 114 174 108 176 q 278 122 183 122 q 383 158 342 122 q 424 261 424 194 q 389 357 424 322 q 285 428 354 392 q 164 501 210 467 q 90 587 118 535 q 61 715 61 639 q 141 914 61 842 q 349 986 221 986 q 443 974 397 986 q 522 942 489 963 q 536 917 536 933 q 522 857 536 892 q 493 822 508 822 q 468 831 488 822 q 350 856 413 856 q 249 822 288 856 q 210 728 210 788 q 228 655 210 685 q 278 604 247 625 q 367 551 308 583 q 478 482 435 515 q 547 398 521 449 q 574 272 574 347 q 494 68 574 144 q 281 -8 414 -8 m 194 1044 q 174 1049 181 1044 q 167 1061 167 1054 q 176 1086 167 1067 l 251 1214 q 317 1243 271 1243 l 332 1243 q 396 1214 376 1243 l 472 1086 q 482 1063 482 1072 q 454 1044 482 1044 l 424 1044 q 379 1065 392 1044 l 324 1156 l 269 1065 q 224 1044 254 1044 l 194 1044 z "},"Ș":{"ha":607,"x_min":42,"x_max":574,"o":"m 281 -8 q 157 9 215 -8 q 58 58 99 26 q 46 74 50 67 q 42 94 42 82 q 54 155 42 124 q 83 186 67 186 q 99 181 90 186 q 114 174 108 176 q 278 122 183 122 q 383 158 342 122 q 424 261 424 194 q 389 357 424 322 q 285 428 354 392 q 164 501 210 467 q 90 587 118 535 q 61 715 61 639 q 141 914 61 842 q 349 986 221 986 q 443 974 397 986 q 522 942 489 963 q 536 917 536 933 q 522 857 536 892 q 493 822 508 822 q 468 831 488 822 q 350 856 413 856 q 249 822 288 856 q 210 728 210 788 q 228 655 210 685 q 278 604 247 625 q 367 551 308 583 q 478 482 435 515 q 547 398 521 449 q 574 272 574 347 q 494 68 574 144 q 281 -8 414 -8 m 250 -328 q 218 -322 232 -328 q 204 -304 204 -317 q 213 -267 204 -297 q 238 -119 238 -199 q 297 -71 238 -71 l 315 -71 q 355 -83 342 -71 q 368 -117 368 -96 q 347 -221 368 -172 q 298 -299 326 -269 q 250 -328 269 -328 z "},"Ṣ":{"ha":607,"x_min":42,"x_max":574,"o":"m 281 -8 q 157 9 215 -8 q 58 58 99 26 q 46 74 50 67 q 42 94 42 82 q 54 155 42 124 q 83 186 67 186 q 99 181 90 186 q 114 174 108 176 q 278 122 183 122 q 383 158 342 122 q 424 261 424 194 q 389 357 424 322 q 285 428 354 392 q 164 501 210 467 q 90 587 118 535 q 61 715 61 639 q 141 914 61 842 q 349 986 221 986 q 443 974 397 986 q 522 942 489 963 q 536 917 536 933 q 522 857 536 892 q 493 822 508 822 q 468 831 488 822 q 350 856 413 856 q 249 822 288 856 q 210 728 210 788 q 228 655 210 685 q 278 604 247 625 q 367 551 308 583 q 478 482 435 515 q 547 398 521 449 q 574 272 574 347 q 494 68 574 144 q 281 -8 414 -8 m 308 -254 q 236 -219 236 -254 l 236 -146 q 308 -111 236 -111 q 381 -146 381 -111 l 381 -219 q 308 -254 381 -254 z "},"ẞ":{"ha":824,"x_min":94,"x_max":776,"o":"m 506 -10 q 414 3 460 -10 q 339 35 368 15 q 310 75 310 54 q 329 124 310 94 q 364 154 349 154 q 401 139 376 154 q 444 117 424 125 q 493 108 465 108 q 589 151 549 108 q 629 288 629 193 q 485 456 629 456 l 444 456 q 418 488 432 456 q 404 543 404 519 q 408 560 404 554 l 565 833 q 425 853 503 853 q 288 796 331 853 q 244 614 244 739 l 244 32 q 181 -3 244 -3 l 158 -3 q 94 32 94 -3 l 94 615 q 176 889 94 797 q 417 981 257 981 q 699 939 553 981 q 722 906 708 938 q 735 850 735 874 q 732 835 735 843 l 579 571 q 722 476 668 546 q 776 285 776 407 q 738 119 776 185 q 638 22 700 53 q 506 -10 576 -10 z "},"Ə":{"ha":778,"x_min":60,"x_max":683,"o":"m 357 -10 q 130 101 200 -10 q 60 446 60 213 q 81 485 60 460 q 113 510 101 510 l 532 510 q 507 720 529 643 q 444 829 485 797 q 342 861 404 861 q 242 846 286 861 q 158 808 199 831 q 124 794 131 794 q 90 826 108 794 q 71 875 71 858 q 113 924 71 899 q 222 965 156 949 q 354 982 289 982 q 602 858 521 982 q 683 468 683 735 q 601 104 683 218 q 357 -10 518 -10 m 357 110 q 481 175 438 110 q 533 399 524 240 l 204 399 q 240 178 204 246 q 357 110 275 110 z "},"T":{"ha":631,"x_min":24,"x_max":608,"o":"m 301 -3 q 240 32 240 -3 l 240 844 l 53 844 q 31 856 38 844 q 24 894 24 868 l 24 922 q 31 960 24 949 q 53 972 38 972 l 578 972 q 601 960 594 972 q 608 922 608 949 l 608 894 q 601 856 608 868 q 578 844 594 844 l 392 844 l 392 32 q 331 -3 392 -3 l 301 -3 z "},"Ŧ":{"ha":610,"x_min":24,"x_max":608,"o":"m 578 972 q 601 960 594 972 q 608 922 608 949 l 608 894 q 601 856 608 868 q 578 844 594 844 l 392 844 l 392 543 l 506 543 q 529 532 522 543 q 536 497 536 521 l 536 482 q 529 447 536 458 q 506 436 522 436 l 392 436 l 392 32 q 331 -3 392 -3 l 301 -3 q 240 32 240 -3 l 240 436 l 108 436 q 78 482 78 436 l 78 497 q 108 543 78 543 l 240 543 l 240 844 l 53 844 q 31 856 38 844 q 24 894 24 868 l 24 922 q 31 960 24 949 q 53 972 38 972 l 578 972 z "},"Ť":{"ha":631,"x_min":24,"x_max":608,"o":"m 301 -3 q 240 32 240 -3 l 240 844 l 53 844 q 31 856 38 844 q 24 894 24 868 l 24 922 q 31 960 24 949 q 53 972 38 972 l 578 972 q 601 960 594 972 q 608 922 608 949 l 608 894 q 601 856 608 868 q 578 844 594 844 l 392 844 l 392 32 q 331 -3 392 -3 l 301 -3 m 307 1051 q 243 1081 261 1051 l 168 1207 q 158 1232 158 1226 q 186 1250 158 1250 l 215 1250 q 261 1228 247 1250 l 315 1139 l 371 1228 q 415 1250 383 1250 l 446 1250 q 474 1231 474 1250 q 464 1207 474 1224 l 388 1081 q 363 1058 378 1064 q 325 1051 347 1051 l 307 1051 z "},"Ţ":{"ha":631,"x_min":24,"x_max":608,"o":"m 578 972 q 601 960 594 972 q 608 922 608 949 l 608 894 q 601 856 608 868 q 578 844 594 844 l 392 844 l 392 32 q 351 -1 392 3 l 329 -78 q 398 -103 368 -81 q 428 -175 428 -125 q 390 -265 428 -237 q 292 -293 353 -293 q 199 -274 243 -293 q 156 -229 156 -256 q 167 -200 156 -214 q 188 -186 178 -186 q 221 -197 196 -186 q 282 -215 257 -215 q 312 -206 299 -215 q 325 -179 325 -197 q 315 -153 325 -161 q 283 -137 304 -144 q 260 -125 267 -131 q 253 -110 253 -119 q 260 -76 253 -101 q 285 -1 268 -51 q 240 32 240 3 l 240 844 l 53 844 q 31 856 38 844 q 24 894 24 868 l 24 922 q 31 960 24 949 q 53 972 38 972 l 578 972 z "},"Ț":{"ha":631,"x_min":24,"x_max":608,"o":"m 301 -3 q 240 32 240 -3 l 240 844 l 53 844 q 31 856 38 844 q 24 894 24 868 l 24 922 q 31 960 24 949 q 53 972 38 972 l 578 972 q 601 960 594 972 q 608 922 608 949 l 608 894 q 601 856 608 868 q 578 844 594 844 l 392 844 l 392 32 q 331 -3 392 -3 l 301 -3 m 261 -328 q 229 -322 243 -328 q 215 -304 215 -317 q 224 -267 215 -297 q 249 -119 249 -199 q 308 -71 249 -71 l 326 -71 q 366 -83 353 -71 q 379 -117 379 -96 q 358 -221 379 -172 q 309 -299 338 -269 q 261 -328 281 -328 z "},"Ṭ":{"ha":631,"x_min":24,"x_max":608,"o":"m 301 -3 q 240 32 240 -3 l 240 844 l 53 844 q 31 856 38 844 q 24 894 24 868 l 24 922 q 31 960 24 949 q 53 972 38 972 l 578 972 q 601 960 594 972 q 608 922 608 949 l 608 894 q 601 856 608 868 q 578 844 594 844 l 392 844 l 392 32 q 331 -3 392 -3 l 301 -3 m 319 -254 q 247 -219 247 -254 l 247 -146 q 319 -111 247 -111 q 392 -146 392 -111 l 392 -219 q 319 -254 392 -254 z "},"U":{"ha":810,"x_min":88,"x_max":722,"o":"m 406 -10 q 171 65 254 -10 q 88 275 88 140 l 88 940 q 149 975 88 975 l 178 975 q 239 940 239 975 l 239 276 q 285 163 239 207 q 406 118 332 118 q 525 163 479 118 q 571 276 571 207 l 571 940 q 632 975 571 975 l 661 975 q 722 940 722 975 l 722 275 q 639 65 722 140 q 406 -10 556 -10 z "},"Ú":{"ha":810,"x_min":88,"x_max":722,"o":"m 406 -10 q 171 65 254 -10 q 88 275 88 140 l 88 940 q 149 975 88 975 l 178 975 q 239 940 239 975 l 239 276 q 285 163 239 207 q 406 118 332 118 q 525 163 479 118 q 571 276 571 207 l 571 940 q 632 975 571 975 l 661 975 q 722 940 722 975 l 722 275 q 639 65 722 140 q 406 -10 556 -10 m 392 1054 q 365 1058 372 1054 q 358 1071 358 1061 q 369 1103 358 1079 q 401 1169 381 1128 l 429 1226 q 517 1264 447 1264 q 565 1260 550 1264 q 579 1244 579 1256 q 567 1218 579 1236 q 528 1164 556 1200 q 503 1132 518 1151 q 467 1082 489 1113 q 440 1061 457 1068 q 392 1054 422 1054 z "},"Ŭ":{"ha":810,"x_min":88,"x_max":722,"o":"m 406 -10 q 171 65 254 -10 q 88 275 88 140 l 88 940 q 149 975 88 975 l 178 975 q 239 940 239 975 l 239 276 q 285 163 239 207 q 406 118 332 118 q 525 163 479 118 q 571 276 571 207 l 571 940 q 632 975 571 975 l 661 975 q 722 940 722 975 l 722 275 q 639 65 722 140 q 406 -10 556 -10 m 406 1054 q 284 1097 331 1054 q 238 1211 238 1140 q 271 1239 238 1239 q 290 1233 285 1239 q 304 1207 296 1226 q 339 1169 315 1182 q 406 1156 363 1156 q 507 1208 486 1156 q 519 1233 514 1226 q 539 1239 525 1239 q 572 1211 572 1239 q 526 1097 572 1140 q 406 1054 479 1054 z "},"Û":{"ha":810,"x_min":88,"x_max":722,"o":"m 406 -10 q 171 65 254 -10 q 88 275 88 140 l 88 940 q 149 975 88 975 l 178 975 q 239 940 239 975 l 239 276 q 285 163 239 207 q 406 118 332 118 q 525 163 479 118 q 571 276 571 207 l 571 940 q 632 975 571 975 l 661 975 q 722 940 722 975 l 722 275 q 639 65 722 140 q 406 -10 556 -10 m 275 1044 q 254 1049 261 1044 q 247 1061 247 1054 q 257 1086 247 1067 l 332 1214 q 397 1243 351 1243 l 413 1243 q 476 1214 457 1243 l 553 1086 q 563 1063 563 1072 q 535 1044 563 1044 l 504 1044 q 460 1065 472 1044 l 404 1156 l 350 1065 q 304 1044 335 1044 l 275 1044 z "},"Ü":{"ha":810,"x_min":88,"x_max":722,"o":"m 406 -10 q 171 65 254 -10 q 88 275 88 140 l 88 940 q 149 975 88 975 l 178 975 q 239 940 239 975 l 239 276 q 285 163 239 207 q 406 118 332 118 q 525 163 479 118 q 571 276 571 207 l 571 940 q 632 975 571 975 l 661 975 q 722 940 722 975 l 722 275 q 639 65 722 140 q 406 -10 556 -10 m 311 1078 q 251 1113 251 1078 l 251 1186 q 313 1221 251 1221 q 374 1186 374 1221 l 374 1113 q 311 1078 374 1078 m 501 1078 q 440 1113 440 1078 l 440 1186 q 503 1221 440 1221 q 563 1186 563 1221 l 563 1113 q 501 1078 563 1078 z "},"Ụ":{"ha":810,"x_min":88,"x_max":722,"o":"m 406 -10 q 171 65 254 -10 q 88 275 88 140 l 88 940 q 149 975 88 975 l 178 975 q 239 940 239 975 l 239 276 q 285 163 239 207 q 406 118 332 118 q 525 163 479 118 q 571 276 571 207 l 571 940 q 632 975 571 975 l 661 975 q 722 940 722 975 l 722 275 q 639 65 722 140 q 406 -10 556 -10 m 411 -254 q 339 -219 339 -254 l 339 -146 q 411 -111 339 -111 q 483 -146 483 -111 l 483 -219 q 411 -254 483 -254 z "},"Ù":{"ha":810,"x_min":88,"x_max":722,"o":"m 406 -10 q 171 65 254 -10 q 88 275 88 140 l 88 940 q 149 975 88 975 l 178 975 q 239 940 239 975 l 239 276 q 285 163 239 207 q 406 118 332 118 q 525 163 479 118 q 571 276 571 207 l 571 940 q 632 975 571 975 l 661 975 q 722 940 722 975 l 722 275 q 639 65 722 140 q 406 -10 556 -10 m 435 1054 q 360 1082 378 1054 l 315 1140 q 257 1219 268 1203 q 246 1244 246 1235 q 261 1260 246 1256 q 310 1264 276 1264 q 397 1226 378 1264 q 449 1119 431 1157 q 467 1071 467 1081 q 460 1058 467 1061 q 435 1054 453 1054 z "},"Ủ":{"ha":810,"x_min":88,"x_max":722,"o":"m 406 -10 q 171 65 254 -10 q 88 275 88 140 l 88 940 q 149 975 88 975 l 178 975 q 239 940 239 975 l 239 276 q 285 163 239 207 q 406 118 332 118 q 525 163 479 118 q 571 276 571 207 l 571 940 q 632 975 571 975 l 661 975 q 722 940 722 975 l 722 275 q 639 65 722 140 q 406 -10 556 -10 m 422 1031 q 388 1040 407 1031 q 368 1057 368 1049 q 376 1075 368 1067 q 403 1100 383 1083 q 442 1137 428 1119 q 456 1178 456 1154 q 442 1203 456 1194 q 407 1213 428 1213 q 363 1204 379 1213 q 344 1196 347 1196 q 322 1215 336 1196 q 308 1244 308 1233 q 345 1273 308 1258 q 418 1288 382 1288 q 513 1263 472 1288 q 553 1186 553 1238 q 526 1112 553 1147 q 467 1053 500 1076 q 422 1031 435 1031 z "},"Ư":{"ha":792,"x_min":78,"x_max":822,"o":"m 822 1051 q 795 968 822 1000 q 713 929 768 936 l 713 275 q 629 65 713 140 q 396 -10 546 -10 q 161 65 244 -10 q 78 275 78 140 l 78 940 q 139 975 78 975 l 168 975 q 229 940 229 975 l 229 276 q 276 163 229 207 q 396 118 322 118 q 515 163 469 118 q 561 276 561 207 l 561 940 q 622 975 561 975 l 671 975 q 716 988 701 975 q 731 1021 731 1001 q 724 1051 731 1038 q 706 1082 717 1065 q 693 1104 694 1099 q 707 1128 693 1119 l 743 1153 q 761 1158 750 1158 q 803 1122 785 1158 q 822 1051 822 1086 z "},"Ứ":{"ha":792,"x_min":78,"x_max":822,"o":"m 822 1051 q 795 968 822 1000 q 713 929 768 936 l 713 275 q 629 65 713 140 q 396 -10 546 -10 q 161 65 244 -10 q 78 275 78 140 l 78 940 q 139 975 78 975 l 168 975 q 229 940 229 975 l 229 276 q 276 163 229 207 q 396 118 322 118 q 515 163 469 118 q 561 276 561 207 l 561 940 q 622 975 561 975 l 671 975 q 716 988 701 975 q 731 1021 731 1001 q 724 1051 731 1038 q 706 1082 717 1065 q 693 1104 694 1099 q 707 1128 693 1119 l 743 1153 q 761 1158 750 1158 q 803 1122 785 1158 q 822 1051 822 1086 m 382 1054 q 356 1058 363 1054 q 349 1071 349 1061 q 360 1103 349 1079 q 392 1169 371 1128 l 419 1226 q 507 1264 438 1264 q 555 1260 540 1264 q 569 1244 569 1256 q 558 1218 569 1236 q 518 1164 546 1200 q 494 1132 508 1151 q 457 1082 479 1113 q 430 1061 447 1068 q 382 1054 413 1054 z "},"Ự":{"ha":792,"x_min":78,"x_max":822,"o":"m 822 1051 q 795 968 822 1000 q 713 929 768 936 l 713 275 q 629 65 713 140 q 396 -10 546 -10 q 161 65 244 -10 q 78 275 78 140 l 78 940 q 139 975 78 975 l 168 975 q 229 940 229 975 l 229 276 q 276 163 229 207 q 396 118 322 118 q 515 163 469 118 q 561 276 561 207 l 561 940 q 622 975 561 975 l 671 975 q 716 988 701 975 q 731 1021 731 1001 q 724 1051 731 1038 q 706 1082 717 1065 q 693 1104 694 1099 q 707 1128 693 1119 l 743 1153 q 761 1158 750 1158 q 803 1122 785 1158 q 822 1051 822 1086 m 401 -254 q 329 -219 329 -254 l 329 -146 q 401 -111 329 -111 q 474 -146 474 -111 l 474 -219 q 401 -254 474 -254 z "},"Ừ":{"ha":792,"x_min":78,"x_max":822,"o":"m 822 1051 q 795 968 822 1000 q 713 929 768 936 l 713 275 q 629 65 713 140 q 396 -10 546 -10 q 161 65 244 -10 q 78 275 78 140 l 78 940 q 139 975 78 975 l 168 975 q 229 940 229 975 l 229 276 q 276 163 229 207 q 396 118 322 118 q 515 163 469 118 q 561 276 561 207 l 561 940 q 622 975 561 975 l 671 975 q 716 988 701 975 q 731 1021 731 1001 q 724 1051 731 1038 q 706 1082 717 1065 q 693 1104 694 1099 q 707 1128 693 1119 l 743 1153 q 761 1158 750 1158 q 803 1122 785 1158 q 822 1051 822 1086 m 425 1054 q 350 1082 368 1054 l 306 1140 q 247 1219 258 1203 q 236 1244 236 1235 q 251 1260 236 1256 q 300 1264 267 1264 q 388 1226 368 1264 q 439 1119 421 1157 q 457 1071 457 1081 q 450 1058 457 1061 q 425 1054 443 1054 z "},"Ử":{"ha":792,"x_min":78,"x_max":822,"o":"m 822 1051 q 795 968 822 1000 q 713 929 768 936 l 713 275 q 629 65 713 140 q 396 -10 546 -10 q 161 65 244 -10 q 78 275 78 140 l 78 940 q 139 975 78 975 l 168 975 q 229 940 229 975 l 229 276 q 276 163 229 207 q 396 118 322 118 q 515 163 469 118 q 561 276 561 207 l 561 940 q 622 975 561 975 l 671 975 q 716 988 701 975 q 731 1021 731 1001 q 724 1051 731 1038 q 706 1082 717 1065 q 693 1104 694 1099 q 707 1128 693 1119 l 743 1153 q 761 1158 750 1158 q 803 1122 785 1158 q 822 1051 822 1086 m 413 1031 q 378 1040 397 1031 q 358 1057 358 1049 q 366 1075 358 1067 q 393 1100 374 1083 q 432 1137 418 1119 q 446 1178 446 1154 q 432 1203 446 1194 q 397 1213 418 1213 q 353 1204 369 1213 q 335 1196 338 1196 q 313 1215 326 1196 q 299 1244 299 1233 q 335 1273 299 1258 q 408 1288 372 1288 q 503 1263 463 1288 q 543 1186 543 1238 q 517 1112 543 1147 q 458 1053 490 1076 q 413 1031 425 1031 z "},"Ữ":{"ha":792,"x_min":78,"x_max":822,"o":"m 822 1051 q 795 968 822 1000 q 713 929 768 936 l 713 275 q 629 65 713 140 q 396 -10 546 -10 q 161 65 244 -10 q 78 275 78 140 l 78 940 q 139 975 78 975 l 168 975 q 229 940 229 975 l 229 276 q 276 163 229 207 q 396 118 322 118 q 515 163 469 118 q 561 276 561 207 l 561 940 q 622 975 561 975 l 671 975 q 716 988 701 975 q 731 1021 731 1001 q 724 1051 731 1038 q 706 1082 717 1065 q 693 1104 694 1099 q 707 1128 693 1119 l 743 1153 q 761 1158 750 1158 q 803 1122 785 1158 q 822 1051 822 1086 m 206 1068 q 186 1090 186 1075 q 190 1110 186 1100 q 308 1206 226 1206 q 404 1178 340 1206 q 436 1165 410 1175 q 481 1154 463 1154 q 505 1161 494 1154 q 528 1186 515 1168 q 558 1208 542 1208 q 575 1204 564 1208 l 586 1200 q 602 1191 597 1196 q 607 1178 607 1186 q 601 1158 607 1172 q 483 1063 564 1063 q 441 1069 463 1063 q 386 1090 419 1076 q 344 1107 365 1100 q 308 1114 324 1114 q 286 1107 296 1114 q 264 1081 276 1100 q 235 1061 250 1061 q 219 1064 231 1061 l 206 1068 z "},"Ű":{"ha":810,"x_min":88,"x_max":722,"o":"m 406 -10 q 171 65 254 -10 q 88 275 88 140 l 88 940 q 149 975 88 975 l 178 975 q 239 940 239 975 l 239 276 q 285 163 239 207 q 406 118 332 118 q 525 163 479 118 q 571 276 571 207 l 571 940 q 632 975 571 975 l 661 975 q 722 940 722 975 l 722 275 q 639 65 722 140 q 406 -10 556 -10 m 276 1054 q 250 1058 257 1054 q 243 1071 243 1061 q 249 1091 243 1076 q 267 1128 256 1106 l 314 1226 q 401 1264 331 1264 q 450 1260 435 1264 q 465 1244 465 1256 q 455 1221 465 1236 q 422 1175 444 1206 q 353 1082 408 1157 q 276 1054 332 1054 m 468 1054 q 443 1058 450 1054 q 436 1071 436 1061 q 442 1091 436 1076 q 460 1128 449 1106 l 507 1226 q 594 1264 524 1264 q 642 1260 628 1264 q 657 1244 657 1256 q 640 1210 657 1233 q 544 1082 624 1186 q 517 1061 535 1068 q 468 1054 500 1054 z "},"Ū":{"ha":810,"x_min":88,"x_max":722,"o":"m 406 -10 q 171 65 254 -10 q 88 275 88 140 l 88 940 q 149 975 88 975 l 178 975 q 239 940 239 975 l 239 276 q 285 163 239 207 q 406 118 332 118 q 525 163 479 118 q 571 276 571 207 l 571 940 q 632 975 571 975 l 661 975 q 722 940 722 975 l 722 275 q 639 65 722 140 q 406 -10 556 -10 m 272 1090 q 242 1136 242 1090 l 242 1151 q 272 1197 242 1197 l 546 1197 q 569 1186 563 1197 q 576 1151 576 1175 l 576 1136 q 569 1101 576 1113 q 546 1090 563 1090 l 272 1090 z "},"Ų":{"ha":810,"x_min":88,"x_max":722,"o":"m 722 275 q 688 126 722 189 q 588 29 653 64 q 557 -78 557 -28 q 576 -125 557 -112 q 625 -137 596 -137 q 653 -133 636 -137 q 675 -129 671 -129 q 707 -165 707 -129 q 688 -204 707 -192 q 599 -228 650 -228 q 496 -187 522 -228 q 469 -103 469 -147 q 492 -3 469 -54 q 406 -10 447 -10 q 171 65 254 -10 q 88 275 88 140 l 88 940 q 149 975 88 975 l 178 975 q 239 940 239 975 l 239 276 q 285 163 239 207 q 406 118 332 118 q 525 163 479 118 q 571 276 571 207 l 571 940 q 632 975 571 975 l 661 975 q 722 940 722 975 l 722 275 z "},"Ů":{"ha":810,"x_min":88,"x_max":722,"o":"m 406 -10 q 171 65 254 -10 q 88 275 88 140 l 88 940 q 149 975 88 975 l 178 975 q 239 940 239 975 l 239 276 q 285 163 239 207 q 406 118 332 118 q 525 163 479 118 q 571 276 571 207 l 571 940 q 632 975 571 975 l 661 975 q 722 940 722 975 l 722 275 q 639 65 722 140 q 406 -10 556 -10 m 403 1024 q 315 1058 349 1024 q 282 1146 282 1092 q 315 1236 282 1201 q 403 1271 349 1271 q 492 1236 458 1271 q 525 1146 525 1201 q 492 1058 525 1092 q 403 1024 458 1024 m 403 1083 q 448 1099 432 1083 q 464 1146 464 1115 q 448 1193 464 1176 q 403 1210 432 1210 q 358 1193 374 1210 q 342 1146 343 1176 q 403 1083 344 1083 z "},"Ũ":{"ha":810,"x_min":88,"x_max":722,"o":"m 406 -10 q 171 65 254 -10 q 88 275 88 140 l 88 940 q 149 975 88 975 l 178 975 q 239 940 239 975 l 239 276 q 285 163 239 207 q 406 118 332 118 q 525 163 479 118 q 571 276 571 207 l 571 940 q 632 975 571 975 l 661 975 q 722 940 722 975 l 722 275 q 639 65 722 140 q 406 -10 556 -10 m 215 1068 q 196 1090 196 1075 q 200 1110 196 1100 q 318 1206 236 1206 q 414 1178 350 1206 q 446 1165 419 1175 q 490 1154 472 1154 q 515 1161 504 1154 q 538 1186 525 1168 q 568 1208 551 1208 q 585 1204 574 1208 l 596 1200 q 612 1191 607 1196 q 617 1178 617 1186 q 611 1158 617 1172 q 493 1063 574 1063 q 451 1069 472 1063 q 396 1090 429 1076 q 354 1107 375 1100 q 318 1114 333 1114 q 296 1107 306 1114 q 274 1081 286 1100 q 244 1061 260 1061 q 229 1064 240 1061 l 215 1068 z "},"V":{"ha":706,"x_min":21,"x_max":683,"o":"m 315 -3 q 258 21 264 -3 l 25 929 q 22 939 24 933 q 21 950 21 944 q 83 975 21 975 l 113 975 q 171 947 164 975 l 338 240 l 349 161 l 353 161 l 365 242 l 535 947 q 594 975 542 975 l 621 975 q 683 950 683 975 q 679 928 683 943 l 446 21 q 388 -3 440 -3 l 315 -3 z "},"W":{"ha":1044,"x_min":21,"x_max":1025,"o":"m 268 -3 q 213 21 218 -3 l 24 928 l 21 946 q 85 975 21 975 l 108 975 q 174 947 168 975 l 283 322 q 299 210 289 293 l 306 151 l 335 325 l 451 950 q 467 969 454 964 q 506 975 481 975 l 546 975 q 584 969 571 975 q 600 950 597 964 l 717 322 q 742 150 728 267 q 758 253 743 158 l 769 322 l 876 947 q 942 975 881 975 l 961 975 q 1025 946 1025 975 l 1022 928 l 831 21 q 776 -3 826 -3 l 710 -3 q 657 21 661 -3 l 543 579 l 522 746 l 501 579 l 388 21 q 333 -3 382 -3 l 268 -3 z "},"Ẃ":{"ha":1044,"x_min":21,"x_max":1025,"o":"m 268 -3 q 213 21 218 -3 l 24 928 l 21 946 q 85 975 21 975 l 108 975 q 174 947 168 975 l 283 322 q 299 210 289 293 l 306 151 l 335 325 l 451 950 q 467 969 454 964 q 506 975 481 975 l 546 975 q 584 969 571 975 q 600 950 597 964 l 717 322 q 742 150 728 267 q 758 253 743 158 l 769 322 l 876 947 q 942 975 881 975 l 961 975 q 1025 946 1025 975 l 1022 928 l 831 21 q 776 -3 826 -3 l 710 -3 q 657 21 661 -3 l 543 579 l 522 746 l 501 579 l 388 21 q 333 -3 382 -3 l 268 -3 m 508 1054 q 482 1058 489 1054 q 475 1071 475 1061 q 486 1103 475 1079 q 518 1169 497 1128 l 546 1226 q 633 1264 564 1264 q 681 1260 667 1264 q 696 1244 696 1256 q 684 1218 696 1236 q 644 1164 672 1200 q 620 1132 635 1151 q 583 1082 606 1113 q 556 1061 574 1068 q 508 1054 539 1054 z "},"Ŵ":{"ha":1044,"x_min":21,"x_max":1025,"o":"m 268 -3 q 213 21 218 -3 l 24 928 l 21 946 q 85 975 21 975 l 108 975 q 174 947 168 975 l 283 322 q 299 210 289 293 l 306 151 l 335 325 l 451 950 q 467 969 454 964 q 506 975 481 975 l 546 975 q 584 969 571 975 q 600 950 597 964 l 717 322 q 742 150 728 267 q 758 253 743 158 l 769 322 l 876 947 q 942 975 881 975 l 961 975 q 1025 946 1025 975 l 1022 928 l 831 21 q 776 -3 826 -3 l 710 -3 q 657 21 661 -3 l 543 579 l 522 746 l 501 579 l 388 21 q 333 -3 382 -3 l 268 -3 m 392 1044 q 371 1049 378 1044 q 364 1061 364 1054 q 374 1086 364 1067 l 449 1214 q 514 1243 468 1243 l 529 1243 q 593 1214 574 1243 l 669 1086 q 679 1063 679 1072 q 651 1044 679 1044 l 621 1044 q 576 1065 589 1044 l 521 1156 l 467 1065 q 421 1044 451 1044 l 392 1044 z "},"Ẅ":{"ha":1044,"x_min":21,"x_max":1025,"o":"m 268 -3 q 213 21 218 -3 l 24 928 l 21 946 q 85 975 21 975 l 108 975 q 174 947 168 975 l 283 322 q 299 210 289 293 l 306 151 l 335 325 l 451 950 q 467 969 454 964 q 506 975 481 975 l 546 975 q 584 969 571 975 q 600 950 597 964 l 717 322 q 742 150 728 267 q 758 253 743 158 l 769 322 l 876 947 q 942 975 881 975 l 961 975 q 1025 946 1025 975 l 1022 928 l 831 21 q 776 -3 826 -3 l 710 -3 q 657 21 661 -3 l 543 579 l 522 746 l 501 579 l 388 21 q 333 -3 382 -3 l 268 -3 m 428 1078 q 368 1113 368 1078 l 368 1186 q 429 1221 368 1221 q 490 1186 490 1221 l 490 1113 q 428 1078 490 1078 m 618 1078 q 557 1113 557 1078 l 557 1186 q 619 1221 557 1221 q 679 1186 679 1221 l 679 1113 q 618 1078 679 1078 z "},"Ẁ":{"ha":1044,"x_min":21,"x_max":1025,"o":"m 268 -3 q 213 21 218 -3 l 24 928 l 21 946 q 85 975 21 975 l 108 975 q 174 947 168 975 l 283 322 q 299 210 289 293 l 306 151 l 335 325 l 451 950 q 467 969 454 964 q 506 975 481 975 l 546 975 q 584 969 571 975 q 600 950 597 964 l 717 322 q 742 150 728 267 q 758 253 743 158 l 769 322 l 876 947 q 942 975 881 975 l 961 975 q 1025 946 1025 975 l 1022 928 l 831 21 q 776 -3 826 -3 l 710 -3 q 657 21 661 -3 l 543 579 l 522 746 l 501 579 l 388 21 q 333 -3 382 -3 l 268 -3 m 551 1054 q 476 1082 494 1054 l 432 1140 q 374 1219 385 1203 q 363 1244 363 1235 q 378 1260 363 1256 q 426 1264 393 1264 q 514 1226 494 1264 q 565 1119 547 1157 q 583 1071 583 1081 q 576 1058 583 1061 q 551 1054 569 1054 z "},"X":{"ha":703,"x_min":24,"x_max":679,"o":"m 89 -3 q 24 22 24 -3 q 35 50 24 28 l 258 507 l 61 922 q 50 950 50 940 q 115 975 50 975 l 154 975 q 194 971 179 975 q 214 953 208 967 l 356 610 l 504 953 q 525 971 510 967 q 565 975 540 975 l 597 975 q 663 950 663 975 q 653 922 663 944 l 449 511 l 669 50 q 679 22 679 28 q 614 -3 679 -3 l 576 -3 q 517 19 525 -3 l 353 404 l 182 19 q 163 1 176 6 q 122 -3 149 -3 l 89 -3 z "},"Y":{"ha":672,"x_min":21,"x_max":651,"o":"m 322 -3 q 260 32 260 -3 l 260 435 l 31 922 q 21 950 21 942 q 86 975 21 975 l 124 975 q 164 970 149 975 q 185 953 179 965 l 340 575 l 497 954 q 517 971 501 967 q 558 975 532 975 l 589 975 q 651 950 651 974 q 643 922 651 939 l 413 431 l 413 32 q 351 -3 413 -3 l 322 -3 z "},"Ý":{"ha":672,"x_min":21,"x_max":651,"o":"m 322 -3 q 260 32 260 -3 l 260 435 l 31 922 q 21 950 21 942 q 86 975 21 975 l 124 975 q 164 970 149 975 q 185 953 179 965 l 340 575 l 497 954 q 517 971 501 967 q 558 975 532 975 l 589 975 q 651 950 651 974 q 643 922 651 939 l 413 431 l 413 32 q 351 -3 413 -3 l 322 -3 m 322 1054 q 296 1058 303 1054 q 289 1071 289 1061 q 300 1103 289 1079 q 332 1169 311 1128 l 360 1226 q 447 1264 378 1264 q 495 1260 481 1264 q 510 1244 510 1256 q 498 1218 510 1236 q 458 1164 486 1200 q 434 1132 449 1151 q 397 1082 419 1113 q 370 1061 388 1068 q 322 1054 353 1054 z "},"Ŷ":{"ha":672,"x_min":21,"x_max":651,"o":"m 322 -3 q 260 32 260 -3 l 260 435 l 31 922 q 21 950 21 942 q 86 975 21 975 l 124 975 q 164 970 149 975 q 185 953 179 965 l 340 575 l 497 954 q 517 971 501 967 q 558 975 532 975 l 589 975 q 651 950 651 974 q 643 922 651 939 l 413 431 l 413 32 q 351 -3 413 -3 l 322 -3 m 206 1044 q 185 1049 192 1044 q 178 1061 178 1054 q 188 1086 178 1067 l 263 1214 q 328 1243 282 1243 l 343 1243 q 407 1214 388 1243 l 483 1086 q 493 1063 493 1072 q 465 1044 493 1044 l 435 1044 q 390 1065 403 1044 l 335 1156 l 281 1065 q 235 1044 265 1044 l 206 1044 z "},"Ÿ":{"ha":672,"x_min":21,"x_max":651,"o":"m 322 -3 q 260 32 260 -3 l 260 435 l 31 922 q 21 950 21 942 q 86 975 21 975 l 124 975 q 164 970 149 975 q 185 953 179 965 l 340 575 l 497 954 q 517 971 501 967 q 558 975 532 975 l 589 975 q 651 950 651 974 q 643 922 651 939 l 413 431 l 413 32 q 351 -3 413 -3 l 322 -3 m 242 1078 q 182 1113 182 1078 l 182 1186 q 243 1221 182 1221 q 304 1186 304 1221 l 304 1113 q 242 1078 304 1078 m 432 1078 q 371 1113 371 1078 l 371 1186 q 433 1221 371 1221 q 493 1186 493 1221 l 493 1113 q 432 1078 493 1078 z "},"Ỵ":{"ha":672,"x_min":21,"x_max":651,"o":"m 322 -3 q 260 32 260 -3 l 260 435 l 31 922 q 21 950 21 942 q 86 975 21 975 l 124 975 q 164 970 149 975 q 185 953 179 965 l 340 575 l 497 954 q 517 971 501 967 q 558 975 532 975 l 589 975 q 651 950 651 974 q 643 922 651 939 l 413 431 l 413 32 q 351 -3 413 -3 l 322 -3 m 342 -254 q 269 -219 269 -254 l 269 -146 q 342 -111 269 -111 q 414 -146 414 -111 l 414 -219 q 342 -254 414 -254 z "},"Ỳ":{"ha":672,"x_min":21,"x_max":651,"o":"m 322 -3 q 260 32 260 -3 l 260 435 l 31 922 q 21 950 21 942 q 86 975 21 975 l 124 975 q 164 970 149 975 q 185 953 179 965 l 340 575 l 497 954 q 517 971 501 967 q 558 975 532 975 l 589 975 q 651 950 651 974 q 643 922 651 939 l 413 431 l 413 32 q 351 -3 413 -3 l 322 -3 m 365 1054 q 290 1082 308 1054 l 246 1140 q 188 1219 199 1203 q 176 1244 176 1235 q 192 1260 176 1256 q 240 1264 207 1264 q 328 1226 308 1264 q 379 1119 361 1157 q 397 1071 397 1081 q 390 1058 397 1061 q 365 1054 383 1054 z "},"Ỷ":{"ha":672,"x_min":21,"x_max":651,"o":"m 322 -3 q 260 32 260 -3 l 260 435 l 31 922 q 21 950 21 942 q 86 975 21 975 l 124 975 q 164 970 149 975 q 185 953 179 965 l 340 575 l 497 954 q 517 971 501 967 q 558 975 532 975 l 589 975 q 651 950 651 974 q 643 922 651 939 l 413 431 l 413 32 q 351 -3 413 -3 l 322 -3 m 353 1031 q 318 1040 338 1031 q 299 1057 299 1049 q 306 1075 299 1067 q 333 1100 314 1083 q 372 1137 358 1119 q 386 1178 386 1154 q 372 1203 386 1194 q 338 1213 358 1213 q 294 1204 310 1213 q 275 1196 278 1196 q 253 1215 267 1196 q 239 1244 239 1233 q 276 1273 239 1258 q 349 1288 313 1288 q 443 1263 403 1288 q 483 1186 483 1238 q 457 1112 483 1147 q 398 1053 431 1076 q 353 1031 365 1031 z "},"Ỹ":{"ha":672,"x_min":21,"x_max":651,"o":"m 322 -3 q 260 32 260 -3 l 260 435 l 31 922 q 21 950 21 942 q 86 975 21 975 l 124 975 q 164 970 149 975 q 185 953 179 965 l 340 575 l 497 954 q 517 971 501 967 q 558 975 532 975 l 589 975 q 651 950 651 974 q 643 922 651 939 l 413 431 l 413 32 q 351 -3 413 -3 l 322 -3 m 146 1068 q 126 1090 126 1075 q 131 1110 126 1100 q 249 1206 167 1206 q 344 1178 281 1206 q 376 1165 350 1175 q 421 1154 403 1154 q 445 1161 435 1154 q 468 1186 456 1168 q 499 1208 482 1208 q 515 1204 504 1208 l 526 1200 q 542 1191 538 1196 q 547 1178 547 1186 q 542 1158 547 1172 q 424 1063 504 1063 q 381 1069 403 1063 q 326 1090 360 1076 q 285 1107 306 1100 q 249 1114 264 1114 q 226 1107 236 1114 q 204 1081 217 1100 q 175 1061 190 1061 q 160 1064 171 1061 l 146 1068 z "},"Z":{"ha":704,"x_min":43,"x_max":651,"o":"m 82 0 q 56 31 69 0 q 43 88 43 63 q 46 104 43 96 l 464 844 l 107 844 q 85 858 92 844 q 78 899 78 871 l 78 918 q 85 960 78 947 q 107 972 92 972 l 614 972 q 639 940 626 972 q 651 883 651 908 q 650 868 651 872 l 233 128 l 621 128 q 651 74 651 128 l 651 54 q 644 13 651 25 q 621 0 636 0 l 82 0 z "},"Ź":{"ha":704,"x_min":43,"x_max":651,"o":"m 82 0 q 56 31 69 0 q 43 88 43 63 q 46 104 43 96 l 464 844 l 107 844 q 85 858 92 844 q 78 899 78 871 l 78 918 q 85 960 78 947 q 107 972 92 972 l 614 972 q 639 940 626 972 q 651 883 651 908 q 650 868 651 872 l 233 128 l 621 128 q 651 74 651 128 l 651 54 q 644 13 651 25 q 621 0 636 0 l 82 0 m 343 1054 q 317 1058 324 1054 q 310 1071 310 1061 q 321 1103 310 1079 q 353 1169 332 1128 l 381 1226 q 468 1264 399 1264 q 516 1260 501 1264 q 531 1244 531 1256 q 519 1218 531 1236 q 479 1164 507 1200 q 455 1132 469 1151 q 418 1082 440 1113 q 391 1061 408 1068 q 343 1054 374 1054 z "},"Ž":{"ha":704,"x_min":43,"x_max":651,"o":"m 82 0 q 56 31 69 0 q 43 88 43 63 q 46 104 43 96 l 464 844 l 107 844 q 85 858 92 844 q 78 899 78 871 l 78 918 q 85 960 78 947 q 107 972 92 972 l 614 972 q 639 940 626 972 q 651 883 651 908 q 650 868 651 872 l 233 128 l 621 128 q 651 74 651 128 l 651 54 q 644 13 651 25 q 621 0 636 0 l 82 0 m 349 1051 q 285 1081 303 1051 l 210 1207 q 200 1232 200 1226 q 228 1250 200 1250 l 257 1250 q 303 1228 289 1250 l 357 1139 l 413 1228 q 457 1250 425 1250 l 488 1250 q 515 1231 515 1250 q 506 1207 515 1224 l 429 1081 q 404 1058 419 1064 q 367 1051 389 1051 l 349 1051 z "},"Ż":{"ha":704,"x_min":43,"x_max":651,"o":"m 82 0 q 56 31 69 0 q 43 88 43 63 q 46 104 43 96 l 464 844 l 107 844 q 85 858 92 844 q 78 899 78 871 l 78 918 q 85 960 78 947 q 107 972 92 972 l 614 972 q 639 940 626 972 q 651 883 651 908 q 650 868 651 872 l 233 128 l 621 128 q 651 74 651 128 l 651 54 q 644 13 651 25 q 621 0 636 0 l 82 0 m 358 1078 q 286 1113 286 1078 l 286 1186 q 358 1221 286 1221 q 431 1186 431 1221 l 431 1113 q 358 1078 431 1078 z "},"Ẓ":{"ha":704,"x_min":43,"x_max":651,"o":"m 82 0 q 56 31 69 0 q 43 88 43 63 q 46 104 43 96 l 464 844 l 107 844 q 85 858 92 844 q 78 899 78 871 l 78 918 q 85 960 78 947 q 107 972 92 972 l 614 972 q 639 940 626 972 q 651 883 651 908 q 650 868 651 872 l 233 128 l 621 128 q 651 74 651 128 l 651 54 q 644 13 651 25 q 621 0 636 0 l 82 0 m 364 -254 q 292 -219 292 -254 l 292 -146 q 364 -111 292 -111 q 436 -146 436 -111 l 436 -219 q 364 -254 436 -254 z "},"a":{"ha":668,"x_min":65,"x_max":583,"o":"m 265 -10 q 119 47 172 -10 q 65 207 65 104 q 163 401 65 342 q 425 463 260 461 l 425 515 q 399 590 425 561 q 314 618 372 618 q 238 608 271 618 q 179 584 206 597 q 147 571 153 571 q 112 603 132 571 q 92 651 92 635 q 124 690 92 671 q 210 723 157 710 q 319 736 263 736 q 503 678 440 736 q 567 517 567 619 l 567 217 q 575 82 567 124 q 583 35 583 40 q 549 7 583 15 q 486 -1 515 -1 q 456 17 465 -1 q 436 78 446 36 q 265 -10 368 -10 m 300 113 q 425 182 378 113 l 425 356 q 265 324 324 354 q 206 213 206 294 q 300 113 206 113 z "},"á":{"ha":668,"x_min":65,"x_max":583,"o":"m 265 -10 q 119 47 172 -10 q 65 207 65 104 q 163 401 65 342 q 425 463 260 461 l 425 515 q 399 590 425 561 q 314 618 372 618 q 238 608 271 618 q 179 584 206 597 q 147 571 153 571 q 112 603 132 571 q 92 651 92 635 q 124 690 92 671 q 210 723 157 710 q 319 736 263 736 q 503 678 440 736 q 567 517 567 619 l 567 217 q 575 82 567 124 q 583 35 583 40 q 549 7 583 15 q 486 -1 515 -1 q 456 17 465 -1 q 436 78 446 36 q 265 -10 368 -10 m 300 113 q 425 182 378 113 l 425 356 q 265 324 324 354 q 206 213 206 294 q 300 113 206 113 m 321 808 q 294 812 301 808 q 288 825 288 815 q 299 858 288 833 q 331 924 310 882 l 358 981 q 446 1018 376 1018 q 494 1014 479 1018 q 508 999 508 1010 q 497 972 508 990 q 457 918 485 954 q 433 886 447 906 q 396 836 418 867 q 369 815 386 822 q 321 808 351 808 z "},"ă":{"ha":668,"x_min":65,"x_max":583,"o":"m 265 -10 q 119 47 172 -10 q 65 207 65 104 q 163 401 65 342 q 425 463 260 461 l 425 515 q 399 590 425 561 q 314 618 372 618 q 238 608 271 618 q 179 584 206 597 q 147 571 153 571 q 112 603 132 571 q 92 651 92 635 q 124 690 92 671 q 210 723 157 710 q 319 736 263 736 q 503 678 440 736 q 567 517 567 619 l 567 217 q 575 82 567 124 q 583 35 583 40 q 549 7 583 15 q 486 -1 515 -1 q 456 17 465 -1 q 436 78 446 36 q 265 -10 368 -10 m 300 113 q 425 182 378 113 l 425 356 q 265 324 324 354 q 206 213 206 294 q 300 113 206 113 m 335 808 q 213 851 260 808 q 167 965 167 894 q 200 993 167 993 q 219 987 214 993 q 233 961 225 981 q 268 923 244 936 q 335 910 292 910 q 436 963 415 910 q 449 987 443 981 q 468 993 454 993 q 501 965 501 993 q 455 851 501 894 q 335 808 408 808 z "},"ắ":{"ha":668,"x_min":65,"x_max":583,"o":"m 265 -10 q 119 47 172 -10 q 65 207 65 104 q 163 401 65 342 q 425 463 260 461 l 425 515 q 399 590 425 561 q 314 618 372 618 q 238 608 271 618 q 179 584 206 597 q 147 571 153 571 q 112 603 132 571 q 92 651 92 635 q 124 690 92 671 q 210 723 157 710 q 319 736 263 736 q 503 678 440 736 q 567 517 567 619 l 567 217 q 575 82 567 124 q 583 35 583 40 q 549 7 583 15 q 486 -1 515 -1 q 456 17 465 -1 q 436 78 446 36 q 265 -10 368 -10 m 300 113 q 425 182 378 113 l 425 356 q 265 324 324 354 q 206 213 206 294 q 300 113 206 113 m 335 808 q 213 851 260 808 q 167 965 167 894 q 200 993 167 993 q 219 987 214 993 q 233 961 225 981 q 268 923 244 936 q 335 910 292 910 q 436 963 415 910 q 449 987 443 981 q 468 993 454 993 q 501 965 501 993 q 455 851 501 894 q 335 808 408 808 m 319 1054 q 293 1058 300 1054 q 286 1071 286 1061 q 297 1103 286 1079 q 329 1169 308 1128 l 357 1226 q 444 1264 375 1264 q 492 1260 478 1264 q 507 1244 507 1256 q 495 1218 507 1236 q 456 1164 483 1200 q 431 1132 446 1151 q 394 1082 417 1113 q 367 1061 385 1068 q 319 1054 350 1054 z "},"ặ":{"ha":668,"x_min":65,"x_max":583,"o":"m 265 -10 q 119 47 172 -10 q 65 207 65 104 q 163 401 65 342 q 425 463 260 461 l 425 515 q 399 590 425 561 q 314 618 372 618 q 238 608 271 618 q 179 584 206 597 q 147 571 153 571 q 112 603 132 571 q 92 651 92 635 q 124 690 92 671 q 210 723 157 710 q 319 736 263 736 q 503 678 440 736 q 567 517 567 619 l 567 217 q 575 82 567 124 q 583 35 583 40 q 549 7 583 15 q 486 -1 515 -1 q 456 17 465 -1 q 436 78 446 36 q 265 -10 368 -10 m 300 113 q 425 182 378 113 l 425 356 q 265 324 324 354 q 206 213 206 294 q 300 113 206 113 m 329 -254 q 257 -219 257 -254 l 257 -146 q 329 -111 257 -111 q 401 -146 401 -111 l 401 -219 q 329 -254 401 -254 m 335 808 q 213 851 260 808 q 167 965 167 894 q 200 993 167 993 q 219 987 214 993 q 233 961 225 981 q 268 923 244 936 q 335 910 292 910 q 436 963 415 910 q 449 987 443 981 q 468 993 454 993 q 501 965 501 993 q 455 851 501 894 q 335 808 408 808 z "},"ằ":{"ha":668,"x_min":65,"x_max":583,"o":"m 265 -10 q 119 47 172 -10 q 65 207 65 104 q 163 401 65 342 q 425 463 260 461 l 425 515 q 399 590 425 561 q 314 618 372 618 q 238 608 271 618 q 179 584 206 597 q 147 571 153 571 q 112 603 132 571 q 92 651 92 635 q 124 690 92 671 q 210 723 157 710 q 319 736 263 736 q 503 678 440 736 q 567 517 567 619 l 567 217 q 575 82 567 124 q 583 35 583 40 q 549 7 583 15 q 486 -1 515 -1 q 456 17 465 -1 q 436 78 446 36 q 265 -10 368 -10 m 300 113 q 425 182 378 113 l 425 356 q 265 324 324 354 q 206 213 206 294 q 300 113 206 113 m 335 808 q 213 851 260 808 q 167 965 167 894 q 200 993 167 993 q 219 987 214 993 q 233 961 225 981 q 268 923 244 936 q 335 910 292 910 q 436 963 415 910 q 449 987 443 981 q 468 993 454 993 q 501 965 501 993 q 455 851 501 894 q 335 808 408 808 m 363 1054 q 288 1082 306 1054 l 243 1140 q 185 1219 196 1203 q 174 1244 174 1235 q 189 1260 174 1256 q 238 1264 204 1264 q 325 1226 306 1264 q 376 1119 358 1157 q 394 1071 394 1081 q 388 1058 394 1061 q 363 1054 381 1054 z "},"ẳ":{"ha":668,"x_min":65,"x_max":583,"o":"m 265 -10 q 119 47 172 -10 q 65 207 65 104 q 163 401 65 342 q 425 463 260 461 l 425 515 q 399 590 425 561 q 314 618 372 618 q 238 608 271 618 q 179 584 206 597 q 147 571 153 571 q 112 603 132 571 q 92 651 92 635 q 124 690 92 671 q 210 723 157 710 q 319 736 263 736 q 503 678 440 736 q 567 517 567 619 l 567 217 q 575 82 567 124 q 583 35 583 40 q 549 7 583 15 q 486 -1 515 -1 q 456 17 465 -1 q 436 78 446 36 q 265 -10 368 -10 m 300 113 q 425 182 378 113 l 425 356 q 265 324 324 354 q 206 213 206 294 q 300 113 206 113 m 335 808 q 213 851 260 808 q 167 965 167 894 q 200 993 167 993 q 219 987 214 993 q 233 961 225 981 q 268 923 244 936 q 335 910 292 910 q 436 963 415 910 q 449 987 443 981 q 468 993 454 993 q 501 965 501 993 q 455 851 501 894 q 335 808 408 808 m 350 1031 q 315 1040 335 1031 q 296 1057 296 1049 q 303 1075 296 1067 q 331 1100 311 1083 q 369 1137 356 1119 q 383 1178 383 1154 q 369 1203 383 1194 q 335 1213 356 1213 q 291 1204 307 1213 q 272 1196 275 1196 q 250 1215 264 1196 q 236 1244 236 1233 q 273 1273 236 1258 q 346 1288 310 1288 q 440 1263 400 1288 q 481 1186 481 1238 q 454 1112 481 1147 q 395 1053 428 1076 q 350 1031 363 1031 z "},"ẵ":{"ha":668,"x_min":65,"x_max":583,"o":"m 265 -10 q 119 47 172 -10 q 65 207 65 104 q 163 401 65 342 q 425 463 260 461 l 425 515 q 399 590 425 561 q 314 618 372 618 q 238 608 271 618 q 179 584 206 597 q 147 571 153 571 q 112 603 132 571 q 92 651 92 635 q 124 690 92 671 q 210 723 157 710 q 319 736 263 736 q 503 678 440 736 q 567 517 567 619 l 567 217 q 575 82 567 124 q 583 35 583 40 q 549 7 583 15 q 486 -1 515 -1 q 456 17 465 -1 q 436 78 446 36 q 265 -10 368 -10 m 300 113 q 425 182 378 113 l 425 356 q 265 324 324 354 q 206 213 206 294 q 300 113 206 113 m 335 808 q 213 851 260 808 q 167 965 167 894 q 200 993 167 993 q 219 987 214 993 q 233 961 225 981 q 268 923 244 936 q 335 910 292 910 q 436 963 415 910 q 449 987 443 981 q 468 993 454 993 q 501 965 501 993 q 455 851 501 894 q 335 808 408 808 m 143 1068 q 124 1090 124 1075 q 128 1110 124 1100 q 246 1206 164 1206 q 342 1178 278 1206 q 374 1165 347 1175 q 418 1154 400 1154 q 442 1161 432 1154 q 465 1186 453 1168 q 496 1208 479 1208 q 513 1204 501 1208 l 524 1200 q 540 1191 535 1196 q 544 1178 544 1186 q 539 1158 544 1172 q 421 1063 501 1063 q 378 1069 400 1063 q 324 1090 357 1076 q 282 1107 303 1100 q 246 1114 261 1114 q 224 1107 233 1114 q 201 1081 214 1100 q 172 1061 188 1061 q 157 1064 168 1061 l 143 1068 z "},"â":{"ha":668,"x_min":65,"x_max":583,"o":"m 265 -10 q 119 47 172 -10 q 65 207 65 104 q 163 401 65 342 q 425 463 260 461 l 425 515 q 399 590 425 561 q 314 618 372 618 q 238 608 271 618 q 179 584 206 597 q 147 571 153 571 q 112 603 132 571 q 92 651 92 635 q 124 690 92 671 q 210 723 157 710 q 319 736 263 736 q 503 678 440 736 q 567 517 567 619 l 567 217 q 575 82 567 124 q 583 35 583 40 q 549 7 583 15 q 486 -1 515 -1 q 456 17 465 -1 q 436 78 446 36 q 265 -10 368 -10 m 300 113 q 425 182 378 113 l 425 356 q 265 324 324 354 q 206 213 206 294 q 300 113 206 113 m 204 799 q 183 803 190 799 q 176 815 176 808 q 186 840 176 821 l 261 968 q 326 997 281 997 l 342 997 q 406 968 386 997 l 482 840 q 492 817 492 826 q 464 799 492 799 l 433 799 q 389 819 401 799 l 333 910 l 279 819 q 233 799 264 799 l 204 799 z "},"ấ":{"ha":618,"x_min":65,"x_max":636,"o":"m 449 997 q 423 1001 431 997 q 415 1014 415 1004 q 426 1047 415 1022 q 458 1113 438 1071 l 486 1169 q 574 1207 506 1207 q 622 1203 607 1207 q 636 1188 636 1199 q 624 1161 636 1179 q 585 1107 613 1143 q 560 1075 575 1094 q 524 1025 546 1056 q 497 1004 514 1011 q 449 997 479 997 m 186 799 q 158 815 158 799 q 165 840 158 826 l 235 968 q 299 997 251 997 l 315 997 q 354 991 339 997 q 378 968 369 985 l 447 840 q 457 817 457 826 q 449 803 457 808 q 429 799 442 799 l 399 799 q 354 818 364 799 l 307 910 l 260 819 q 242 802 253 806 q 214 799 232 799 l 186 799 m 265 -10 q 119 47 172 -10 q 65 207 65 104 q 163 401 65 342 q 425 463 260 461 l 425 515 q 399 590 425 561 q 314 618 372 618 q 238 608 271 618 q 179 584 206 597 q 147 571 153 571 q 112 603 132 571 q 92 651 92 635 q 124 690 92 671 q 210 723 157 710 q 319 736 263 736 q 503 678 440 736 q 567 517 567 619 l 567 217 q 575 82 567 124 q 583 35 583 40 q 549 7 583 15 q 486 -1 515 -1 q 456 17 465 -1 q 436 78 446 36 q 265 -10 368 -10 m 300 113 q 425 182 378 113 l 425 356 q 265 324 324 354 q 206 213 206 294 q 300 113 206 113 z "},"ậ":{"ha":668,"x_min":65,"x_max":583,"o":"m 265 -10 q 119 47 172 -10 q 65 207 65 104 q 163 401 65 342 q 425 463 260 461 l 425 515 q 399 590 425 561 q 314 618 372 618 q 238 608 271 618 q 179 584 206 597 q 147 571 153 571 q 112 603 132 571 q 92 651 92 635 q 124 690 92 671 q 210 723 157 710 q 319 736 263 736 q 503 678 440 736 q 567 517 567 619 l 567 217 q 575 82 567 124 q 583 35 583 40 q 549 7 583 15 q 486 -1 515 -1 q 456 17 465 -1 q 436 78 446 36 q 265 -10 368 -10 m 300 113 q 425 182 378 113 l 425 356 q 265 324 324 354 q 206 213 206 294 q 300 113 206 113 m 329 -254 q 257 -219 257 -254 l 257 -146 q 329 -111 257 -111 q 401 -146 401 -111 l 401 -219 q 329 -254 401 -254 m 204 799 q 183 803 190 799 q 176 815 176 808 q 186 840 176 821 l 261 968 q 326 997 281 997 l 342 997 q 406 968 386 997 l 482 840 q 492 817 492 826 q 464 799 492 799 l 433 799 q 389 819 401 799 l 333 910 l 279 819 q 233 799 264 799 l 204 799 z "},"ầ":{"ha":618,"x_min":65,"x_max":583,"o":"m 493 997 q 418 1025 436 997 l 374 1083 q 315 1162 326 1146 q 304 1188 304 1178 q 319 1203 304 1199 q 368 1207 335 1207 q 456 1169 438 1207 q 507 1062 489 1100 q 525 1014 525 1024 q 518 1001 525 1004 q 493 997 511 997 m 186 799 q 158 815 158 799 q 165 840 158 826 l 235 968 q 299 997 251 997 l 315 997 q 354 991 339 997 q 378 968 369 985 l 447 840 q 457 817 457 826 q 449 803 457 808 q 429 799 442 799 l 399 799 q 354 818 364 799 l 307 910 l 260 819 q 242 802 253 806 q 214 799 232 799 l 186 799 m 265 -10 q 119 47 172 -10 q 65 207 65 104 q 163 401 65 342 q 425 463 260 461 l 425 515 q 399 590 425 561 q 314 618 372 618 q 238 608 271 618 q 179 584 206 597 q 147 571 153 571 q 112 603 132 571 q 92 651 92 635 q 124 690 92 671 q 210 723 157 710 q 319 736 263 736 q 503 678 440 736 q 567 517 567 619 l 567 217 q 575 82 567 124 q 583 35 583 40 q 549 7 583 15 q 486 -1 515 -1 q 456 17 465 -1 q 436 78 446 36 q 265 -10 368 -10 m 300 113 q 425 182 378 113 l 425 356 q 265 324 324 354 q 206 213 206 294 q 300 113 206 113 z "},"ẩ":{"ha":618,"x_min":65,"x_max":610,"o":"m 479 974 q 444 983 464 974 q 425 1000 425 992 q 433 1018 425 1010 q 460 1043 440 1026 q 499 1080 485 1063 q 513 1121 513 1097 q 499 1147 513 1138 q 464 1156 485 1156 q 420 1147 436 1156 q 401 1139 404 1139 q 379 1158 393 1139 q 365 1188 365 1176 q 402 1216 365 1201 q 475 1231 439 1231 q 569 1206 529 1231 q 610 1129 610 1181 q 583 1055 610 1090 q 524 997 557 1019 q 479 974 492 974 m 186 799 q 158 815 158 799 q 165 840 158 826 l 235 968 q 299 997 251 997 l 315 997 q 354 991 339 997 q 378 968 369 985 l 447 840 q 457 817 457 826 q 449 803 457 808 q 429 799 442 799 l 399 799 q 354 818 364 799 l 307 910 l 260 819 q 242 802 253 806 q 214 799 232 799 l 186 799 m 265 -10 q 119 47 172 -10 q 65 207 65 104 q 163 401 65 342 q 425 463 260 461 l 425 515 q 399 590 425 561 q 314 618 372 618 q 238 608 271 618 q 179 584 206 597 q 147 571 153 571 q 112 603 132 571 q 92 651 92 635 q 124 690 92 671 q 210 723 157 710 q 319 736 263 736 q 503 678 440 736 q 567 517 567 619 l 567 217 q 575 82 567 124 q 583 35 583 40 q 549 7 583 15 q 486 -1 515 -1 q 456 17 465 -1 q 436 78 446 36 q 265 -10 368 -10 m 300 113 q 425 182 378 113 l 425 356 q 265 324 324 354 q 206 213 206 294 q 300 113 206 113 z "},"ẫ":{"ha":618,"x_min":65,"x_max":583,"o":"m 151 1044 q 135 1067 135 1051 q 139 1086 135 1076 q 246 1182 174 1182 q 333 1154 275 1182 q 401 1131 381 1131 q 424 1138 414 1131 q 446 1163 433 1144 q 474 1185 458 1185 q 489 1181 481 1185 l 499 1176 q 513 1167 508 1172 q 517 1154 517 1163 q 513 1135 517 1146 q 406 1039 478 1039 q 317 1067 375 1039 q 246 1090 267 1090 q 224 1083 233 1090 q 206 1057 215 1076 q 179 1038 192 1038 q 164 1040 175 1038 l 151 1044 m 186 799 q 158 817 158 799 q 169 843 158 825 l 235 938 q 262 960 247 953 q 300 967 276 967 l 317 967 q 382 938 360 967 l 446 843 q 457 817 457 825 q 431 799 457 799 l 400 799 q 373 803 383 799 q 354 818 363 808 l 308 892 l 261 819 q 215 799 246 799 l 186 799 m 265 -10 q 119 47 172 -10 q 65 207 65 104 q 163 401 65 342 q 425 463 260 461 l 425 515 q 399 590 425 561 q 314 618 372 618 q 238 608 271 618 q 179 584 206 597 q 147 571 153 571 q 112 603 132 571 q 92 651 92 635 q 124 690 92 671 q 210 723 157 710 q 319 736 263 736 q 503 678 440 736 q 567 517 567 619 l 567 217 q 575 82 567 124 q 583 35 583 40 q 549 7 583 15 q 486 -1 515 -1 q 456 17 465 -1 q 436 78 446 36 q 265 -10 368 -10 m 300 113 q 425 182 378 113 l 425 356 q 265 324 324 354 q 206 213 206 294 q 300 113 206 113 z "},"ä":{"ha":668,"x_min":65,"x_max":583,"o":"m 265 -10 q 119 47 172 -10 q 65 207 65 104 q 163 401 65 342 q 425 463 260 461 l 425 515 q 399 590 425 561 q 314 618 372 618 q 238 608 271 618 q 179 584 206 597 q 147 571 153 571 q 112 603 132 571 q 92 651 92 635 q 124 690 92 671 q 210 723 157 710 q 319 736 263 736 q 503 678 440 736 q 567 517 567 619 l 567 217 q 575 82 567 124 q 583 35 583 40 q 549 7 583 15 q 486 -1 515 -1 q 456 17 465 -1 q 436 78 446 36 q 265 -10 368 -10 m 300 113 q 425 182 378 113 l 425 356 q 265 324 324 354 q 206 213 206 294 q 300 113 206 113 m 240 832 q 181 867 181 832 l 181 940 q 242 975 181 975 q 303 940 303 975 l 303 867 q 240 832 303 832 m 431 832 q 369 867 369 832 l 369 940 q 432 975 369 975 q 492 940 492 975 l 492 867 q 431 832 492 832 z "},"ạ":{"ha":668,"x_min":65,"x_max":583,"o":"m 265 -10 q 119 47 172 -10 q 65 207 65 104 q 163 401 65 342 q 425 463 260 461 l 425 515 q 399 590 425 561 q 314 618 372 618 q 238 608 271 618 q 179 584 206 597 q 147 571 153 571 q 112 603 132 571 q 92 651 92 635 q 124 690 92 671 q 210 723 157 710 q 319 736 263 736 q 503 678 440 736 q 567 517 567 619 l 567 217 q 575 82 567 124 q 583 35 583 40 q 549 7 583 15 q 486 -1 515 -1 q 456 17 465 -1 q 436 78 446 36 q 265 -10 368 -10 m 300 113 q 425 182 378 113 l 425 356 q 265 324 324 354 q 206 213 206 294 q 300 113 206 113 m 329 -254 q 257 -219 257 -254 l 257 -146 q 329 -111 257 -111 q 401 -146 401 -111 l 401 -219 q 329 -254 401 -254 z "},"à":{"ha":668,"x_min":65,"x_max":583,"o":"m 265 -10 q 119 47 172 -10 q 65 207 65 104 q 163 401 65 342 q 425 463 260 461 l 425 515 q 399 590 425 561 q 314 618 372 618 q 238 608 271 618 q 179 584 206 597 q 147 571 153 571 q 112 603 132 571 q 92 651 92 635 q 124 690 92 671 q 210 723 157 710 q 319 736 263 736 q 503 678 440 736 q 567 517 567 619 l 567 217 q 575 82 567 124 q 583 35 583 40 q 549 7 583 15 q 486 -1 515 -1 q 456 17 465 -1 q 436 78 446 36 q 265 -10 368 -10 m 300 113 q 425 182 378 113 l 425 356 q 265 324 324 354 q 206 213 206 294 q 300 113 206 113 m 364 808 q 289 836 307 808 l 244 894 q 186 973 197 957 q 175 999 175 989 q 190 1014 175 1010 q 239 1018 206 1018 q 326 981 307 1018 q 378 873 360 911 q 396 825 396 835 q 389 812 396 815 q 364 808 382 808 z "},"ả":{"ha":668,"x_min":65,"x_max":583,"o":"m 265 -10 q 119 47 172 -10 q 65 207 65 104 q 163 401 65 342 q 425 463 260 461 l 425 515 q 399 590 425 561 q 314 618 372 618 q 238 608 271 618 q 179 584 206 597 q 147 571 153 571 q 112 603 132 571 q 92 651 92 635 q 124 690 92 671 q 210 723 157 710 q 319 736 263 736 q 503 678 440 736 q 567 517 567 619 l 567 217 q 575 82 567 124 q 583 35 583 40 q 549 7 583 15 q 486 -1 515 -1 q 456 17 465 -1 q 436 78 446 36 q 265 -10 368 -10 m 300 113 q 425 182 378 113 l 425 356 q 265 324 324 354 q 206 213 206 294 q 300 113 206 113 m 351 785 q 317 794 336 785 q 297 811 297 803 q 305 829 297 821 q 332 854 313 838 q 371 891 357 874 q 385 932 385 908 q 371 958 385 949 q 336 967 357 967 q 292 958 308 967 q 274 950 276 950 q 251 969 265 950 q 238 999 238 988 q 274 1027 238 1013 q 347 1042 311 1042 q 442 1017 401 1042 q 482 940 482 992 q 456 866 482 901 q 397 808 429 831 q 351 785 364 785 z "},"ā":{"ha":668,"x_min":65,"x_max":583,"o":"m 265 -10 q 119 47 172 -10 q 65 207 65 104 q 163 401 65 342 q 425 463 260 461 l 425 515 q 399 590 425 561 q 314 618 372 618 q 238 608 271 618 q 179 584 206 597 q 147 571 153 571 q 112 603 132 571 q 92 651 92 635 q 124 690 92 671 q 210 723 157 710 q 319 736 263 736 q 503 678 440 736 q 567 517 567 619 l 567 217 q 575 82 567 124 q 583 35 583 40 q 549 7 583 15 q 486 -1 515 -1 q 456 17 465 -1 q 436 78 446 36 q 265 -10 368 -10 m 300 113 q 425 182 378 113 l 425 356 q 265 324 324 354 q 206 213 206 294 q 300 113 206 113 m 201 844 q 171 890 171 844 l 171 906 q 201 951 171 951 l 475 951 q 499 940 492 951 q 506 906 506 929 l 506 890 q 499 856 506 867 q 475 844 492 844 l 201 844 z "},"ą":{"ha":668,"x_min":65,"x_max":700,"o":"m 668 -129 q 700 -165 700 -129 q 681 -204 700 -192 q 592 -228 643 -228 q 489 -187 515 -228 q 463 -103 463 -147 q 486 -1 463 -53 q 456 17 465 -1 q 436 78 446 36 q 265 -10 368 -10 q 119 47 172 -10 q 65 207 65 104 q 163 401 65 342 q 425 463 260 461 l 425 515 q 399 590 425 561 q 314 618 372 618 q 238 608 271 618 q 179 584 206 597 q 147 571 153 571 q 112 603 132 571 q 92 651 92 635 q 124 690 92 671 q 210 723 157 710 q 319 736 263 736 q 503 678 440 736 q 567 517 567 619 l 567 217 q 575 82 567 124 q 583 35 583 40 q 576 21 583 25 q 550 -78 550 -33 q 569 -125 550 -112 q 618 -137 589 -137 q 647 -133 629 -137 q 668 -129 664 -129 m 425 356 q 265 324 324 354 q 206 213 206 294 q 300 113 206 113 q 425 182 378 113 l 425 356 z "},"å":{"ha":668,"x_min":65,"x_max":583,"o":"m 265 -10 q 119 47 172 -10 q 65 207 65 104 q 163 401 65 342 q 425 463 260 461 l 425 515 q 399 590 425 561 q 314 618 372 618 q 238 608 271 618 q 179 584 206 597 q 147 571 153 571 q 112 603 132 571 q 92 651 92 635 q 124 690 92 671 q 210 723 157 710 q 319 736 263 736 q 503 678 440 736 q 567 517 567 619 l 567 217 q 575 82 567 124 q 583 35 583 40 q 549 7 583 15 q 486 -1 515 -1 q 456 17 465 -1 q 436 78 446 36 q 265 -10 368 -10 m 300 113 q 425 182 378 113 l 425 356 q 265 324 324 354 q 206 213 206 294 q 300 113 206 113 m 332 778 q 244 812 278 778 q 211 900 211 846 q 244 990 211 956 q 332 1025 278 1025 q 421 990 388 1025 q 454 900 454 956 q 421 812 454 846 q 332 778 388 778 m 332 838 q 377 853 361 838 q 393 900 393 869 q 377 947 393 931 q 332 964 361 964 q 288 947 303 964 q 271 900 272 931 q 332 838 274 838 z "},"ǻ":{"ha":668,"x_min":65,"x_max":583,"o":"m 265 -10 q 119 47 172 -10 q 65 207 65 104 q 163 401 65 342 q 425 463 260 461 l 425 515 q 399 590 425 561 q 314 618 372 618 q 238 608 271 618 q 179 584 206 597 q 147 571 153 571 q 112 603 132 571 q 92 651 92 635 q 124 690 92 671 q 210 723 157 710 q 319 736 263 736 q 503 678 440 736 q 567 517 567 619 l 567 217 q 575 82 567 124 q 583 35 583 40 q 549 7 583 15 q 486 -1 515 -1 q 456 17 465 -1 q 436 78 446 36 q 265 -10 368 -10 m 300 113 q 425 182 378 113 l 425 356 q 265 324 324 354 q 206 213 206 294 q 300 113 206 113 m 332 778 q 244 812 278 778 q 211 900 211 846 q 244 990 211 956 q 332 1025 278 1025 q 421 990 388 1025 q 454 900 454 956 q 421 812 454 846 q 332 778 388 778 m 332 838 q 377 853 361 838 q 393 900 393 869 q 377 947 393 931 q 332 964 361 964 q 288 947 303 964 q 271 900 272 931 q 332 838 274 838 m 322 1061 q 296 1065 303 1061 q 289 1078 289 1068 q 300 1110 289 1086 q 332 1176 311 1135 l 360 1233 q 447 1271 378 1271 q 495 1267 481 1271 q 510 1251 510 1263 q 498 1225 510 1243 q 458 1171 486 1207 q 434 1139 449 1158 q 397 1089 419 1119 q 370 1068 388 1075 q 322 1061 353 1061 z "},"ã":{"ha":668,"x_min":65,"x_max":583,"o":"m 265 -10 q 119 47 172 -10 q 65 207 65 104 q 163 401 65 342 q 425 463 260 461 l 425 515 q 399 590 425 561 q 314 618 372 618 q 238 608 271 618 q 179 584 206 597 q 147 571 153 571 q 112 603 132 571 q 92 651 92 635 q 124 690 92 671 q 210 723 157 710 q 319 736 263 736 q 503 678 440 736 q 567 517 567 619 l 567 217 q 575 82 567 124 q 583 35 583 40 q 549 7 583 15 q 486 -1 515 -1 q 456 17 465 -1 q 436 78 446 36 q 265 -10 368 -10 m 300 113 q 425 182 378 113 l 425 356 q 265 324 324 354 q 206 213 206 294 q 300 113 206 113 m 144 822 q 125 844 125 829 q 129 864 125 854 q 247 960 165 960 q 343 932 279 960 q 375 919 349 929 q 419 908 401 908 q 444 915 433 908 q 467 940 454 922 q 497 963 481 963 q 514 958 503 963 l 525 954 q 541 945 536 950 q 546 932 546 940 q 540 913 546 926 q 422 817 503 817 q 380 824 401 817 q 325 844 358 831 q 283 861 304 854 q 247 868 263 868 q 225 861 235 868 q 203 835 215 854 q 174 815 189 815 q 158 818 169 815 l 144 822 z "},"æ":{"ha":922,"x_min":38,"x_max":886,"o":"m 246 -10 q 94 48 150 -10 q 38 208 38 106 q 125 392 38 332 q 367 456 213 453 q 389 551 372 510 q 286 618 368 618 q 213 608 244 618 q 155 585 181 597 q 124 572 129 572 q 88 603 107 572 q 68 651 68 635 q 100 691 68 671 q 184 724 132 711 q 292 736 236 736 q 393 722 347 736 q 468 679 439 707 q 639 736 536 736 q 886 378 886 736 q 866 338 886 363 q 833 314 846 314 l 513 314 q 552 157 517 206 q 660 108 588 108 q 735 121 704 108 q 788 148 765 133 q 815 163 811 163 q 850 131 831 163 q 869 82 869 99 q 839 40 869 61 q 759 4 808 18 q 657 -10 710 -10 q 442 72 515 -10 q 358 13 410 35 q 246 -10 306 -10 m 742 424 q 636 618 742 618 q 547 572 578 618 q 511 424 517 525 l 742 424 m 267 115 q 388 172 342 115 q 361 344 364 240 q 182 214 182 339 q 203 141 182 167 q 267 115 225 115 z "},"ǽ":{"ha":922,"x_min":38,"x_max":886,"o":"m 246 -10 q 94 48 150 -10 q 38 208 38 106 q 125 392 38 332 q 367 456 213 453 q 389 551 372 510 q 286 618 368 618 q 213 608 244 618 q 155 585 181 597 q 124 572 129 572 q 88 603 107 572 q 68 651 68 635 q 100 691 68 671 q 184 724 132 711 q 292 736 236 736 q 393 722 347 736 q 468 679 439 707 q 639 736 536 736 q 886 378 886 736 q 866 338 886 363 q 833 314 846 314 l 513 314 q 552 157 517 206 q 660 108 588 108 q 735 121 704 108 q 788 148 765 133 q 815 163 811 163 q 850 131 831 163 q 869 82 869 99 q 839 40 869 61 q 759 4 808 18 q 657 -10 710 -10 q 442 72 515 -10 q 358 13 410 35 q 246 -10 306 -10 m 742 424 q 636 618 742 618 q 547 572 578 618 q 511 424 517 525 l 742 424 m 267 115 q 388 172 342 115 q 361 344 364 240 q 182 214 182 339 q 203 141 182 167 q 267 115 225 115 m 458 808 q 432 812 439 808 q 425 825 425 815 q 436 858 425 833 q 468 924 447 882 l 496 981 q 583 1018 514 1018 q 631 1014 617 1018 q 646 999 646 1010 q 634 972 646 990 q 594 918 622 954 q 570 886 585 906 q 533 836 556 867 q 506 815 524 822 q 458 808 489 808 z "},"b":{"ha":669,"x_min":97,"x_max":608,"o":"m 393 -10 q 303 17 344 -10 q 231 93 261 43 l 217 19 q 199 2 213 7 q 164 -3 186 -3 l 154 -3 q 97 32 97 -3 l 97 1011 q 158 1046 97 1046 l 181 1046 q 242 1011 242 1046 l 242 674 q 301 719 269 703 q 379 736 333 736 q 547 639 485 736 q 608 367 608 542 q 581 168 608 253 q 506 37 554 83 q 393 -10 457 -10 m 353 111 q 433 176 406 111 q 460 368 460 242 q 431 555 460 494 q 342 615 401 615 q 242 565 283 615 l 242 193 q 294 133 265 154 q 353 111 322 111 z "},"c":{"ha":567,"x_min":60,"x_max":542,"o":"m 351 -10 q 132 80 204 -10 q 60 365 60 169 q 135 650 60 564 q 350 736 210 736 q 475 714 418 736 q 532 663 532 692 q 514 611 532 643 q 483 579 496 579 q 465 586 476 579 q 415 609 439 600 q 358 618 390 618 q 247 560 283 618 q 210 368 210 501 q 244 169 210 231 q 360 108 279 108 q 422 117 396 108 q 471 139 447 125 q 483 146 478 142 q 490 150 488 150 q 524 119 507 150 q 542 69 542 89 q 510 32 542 50 q 434 2 479 14 q 351 -10 389 -10 z "},"ć":{"ha":567,"x_min":60,"x_max":542,"o":"m 351 -10 q 132 80 204 -10 q 60 365 60 169 q 135 650 60 564 q 350 736 210 736 q 475 714 418 736 q 532 663 532 692 q 514 611 532 643 q 483 579 496 579 q 465 586 476 579 q 415 609 439 600 q 358 618 390 618 q 247 560 283 618 q 210 368 210 501 q 244 169 210 231 q 360 108 279 108 q 422 117 396 108 q 471 139 447 125 q 483 146 478 142 q 490 150 488 150 q 524 119 507 150 q 542 69 542 89 q 510 32 542 50 q 434 2 479 14 q 351 -10 389 -10 m 313 808 q 286 812 293 808 q 279 825 279 815 q 290 858 279 833 q 322 924 301 882 l 350 981 q 438 1018 368 1018 q 485 1014 471 1018 q 500 999 500 1010 q 488 972 500 990 q 449 918 476 954 q 424 886 439 906 q 388 836 410 867 q 360 815 378 822 q 313 808 343 808 z "},"č":{"ha":567,"x_min":60,"x_max":542,"o":"m 351 -10 q 132 80 204 -10 q 60 365 60 169 q 135 650 60 564 q 350 736 210 736 q 475 714 418 736 q 532 663 532 692 q 514 611 532 643 q 483 579 496 579 q 465 586 476 579 q 415 609 439 600 q 358 618 390 618 q 247 560 283 618 q 210 368 210 501 q 244 169 210 231 q 360 108 279 108 q 422 117 396 108 q 471 139 447 125 q 483 146 478 142 q 490 150 488 150 q 524 119 507 150 q 542 69 542 89 q 510 32 542 50 q 434 2 479 14 q 351 -10 389 -10 m 318 806 q 254 835 272 806 l 179 961 q 169 986 169 981 q 197 1004 169 1004 l 226 1004 q 272 982 258 1004 l 326 893 l 382 982 q 426 1004 394 1004 l 457 1004 q 485 985 485 1004 q 475 961 485 978 l 399 835 q 374 812 389 818 q 336 806 358 806 l 318 806 z "},"ç":{"ha":567,"x_min":60,"x_max":542,"o":"m 542 69 q 488 21 542 44 q 375 -8 435 -3 l 356 -78 q 424 -103 394 -81 q 454 -175 454 -125 q 417 -265 454 -237 q 318 -293 379 -293 q 226 -274 269 -293 q 182 -229 182 -256 q 193 -200 182 -214 q 214 -186 204 -186 q 247 -197 222 -186 q 308 -215 283 -215 q 338 -206 325 -215 q 351 -179 351 -197 q 341 -153 351 -161 q 310 -137 331 -144 q 286 -125 293 -131 q 279 -110 279 -119 q 286 -78 279 -101 q 308 -8 293 -54 q 122 94 183 4 q 60 365 60 185 q 135 650 60 564 q 350 736 210 736 q 475 714 418 736 q 532 663 532 692 q 514 611 532 643 q 483 579 496 579 q 465 586 476 579 q 415 609 439 600 q 358 618 390 618 q 247 560 283 618 q 210 368 210 501 q 244 169 210 231 q 360 108 279 108 q 422 117 396 108 q 471 139 447 125 q 483 146 478 142 q 490 150 488 150 q 524 119 507 150 q 542 69 542 89 z "},"ĉ":{"ha":567,"x_min":60,"x_max":542,"o":"m 351 -10 q 132 80 204 -10 q 60 365 60 169 q 135 650 60 564 q 350 736 210 736 q 475 714 418 736 q 532 663 532 692 q 514 611 532 643 q 483 579 496 579 q 465 586 476 579 q 415 609 439 600 q 358 618 390 618 q 247 560 283 618 q 210 368 210 501 q 244 169 210 231 q 360 108 279 108 q 422 117 396 108 q 471 139 447 125 q 483 146 478 142 q 490 150 488 150 q 524 119 507 150 q 542 69 542 89 q 510 32 542 50 q 434 2 479 14 q 351 -10 389 -10 m 196 799 q 175 803 182 799 q 168 815 168 808 q 178 840 168 821 l 253 968 q 318 997 272 997 l 333 997 q 397 968 378 997 l 474 840 q 483 817 483 826 q 456 799 483 799 l 425 799 q 381 819 393 799 l 325 910 l 271 819 q 225 799 256 799 l 196 799 z "},"ċ":{"ha":567,"x_min":60,"x_max":542,"o":"m 351 -10 q 132 80 204 -10 q 60 365 60 169 q 135 650 60 564 q 350 736 210 736 q 475 714 418 736 q 532 663 532 692 q 514 611 532 643 q 483 579 496 579 q 465 586 476 579 q 415 609 439 600 q 358 618 390 618 q 247 560 283 618 q 210 368 210 501 q 244 169 210 231 q 360 108 279 108 q 422 117 396 108 q 471 139 447 125 q 483 146 478 142 q 490 150 488 150 q 524 119 507 150 q 542 69 542 89 q 510 32 542 50 q 434 2 479 14 q 351 -10 389 -10 m 328 832 q 256 867 256 832 l 256 940 q 328 975 256 975 q 400 940 400 975 l 400 867 q 328 832 400 832 z "},"d":{"ha":668,"x_min":61,"x_max":588,"o":"m 276 -10 q 163 37 211 -10 q 88 168 114 83 q 61 367 61 253 q 123 639 61 542 q 290 736 185 736 q 428 674 371 736 l 428 1011 q 489 1046 428 1046 l 511 1046 q 572 1011 572 1046 l 572 217 q 580 84 572 126 q 588 33 588 42 q 550 8 588 17 q 485 -1 513 -1 q 452 22 461 -1 q 436 93 443 44 q 366 17 407 43 q 276 -10 325 -10 m 317 111 q 376 133 347 111 q 428 196 406 156 l 428 565 q 329 615 386 615 q 238 553 268 615 q 208 367 208 492 q 235 176 208 242 q 317 111 263 111 z "},"ð":{"ha":663,"x_min":60,"x_max":603,"o":"m 461 854 q 603 363 603 610 q 534 85 603 181 q 332 -10 465 -10 q 129 85 199 -10 q 60 361 60 181 q 130 635 60 540 q 332 731 200 731 q 390 725 364 731 q 335 836 369 775 l 225 821 q 196 837 208 821 q 183 869 183 853 q 207 889 183 885 l 296 901 q 267 941 281 922 q 254 968 254 960 q 278 988 254 983 q 329 992 324 992 q 371 976 353 992 q 419 917 385 961 q 524 932 508 932 q 551 914 540 932 q 563 883 563 896 q 539 864 563 865 l 461 854 m 331 108 q 426 169 396 108 q 456 363 456 231 q 426 553 456 493 q 331 613 396 613 q 236 553 265 613 q 207 363 207 493 q 237 169 207 231 q 331 108 267 108 z "},"ď":{"ha":668,"x_min":61,"x_max":764,"o":"m 276 -10 q 163 37 211 -10 q 88 168 114 83 q 61 367 61 253 q 123 639 61 542 q 290 736 185 736 q 428 674 371 736 l 428 1011 q 489 1046 428 1046 l 511 1046 q 572 1011 572 1046 l 572 217 q 580 84 572 126 q 588 33 588 42 q 550 8 588 17 q 485 -1 513 -1 q 452 22 461 -1 q 436 93 443 44 q 366 17 407 43 q 276 -10 325 -10 m 317 111 q 376 133 347 111 q 428 196 406 156 l 428 565 q 329 615 386 615 q 238 553 268 615 q 208 367 208 492 q 235 176 208 242 q 317 111 263 111 m 660 725 q 628 731 643 725 q 614 749 614 736 q 619 804 614 763 q 624 851 621 817 q 628 924 628 886 q 643 959 628 946 q 688 972 658 972 l 704 972 q 749 960 733 972 q 764 926 764 947 q 746 826 764 872 q 703 753 728 781 q 660 725 678 725 z "},"đ":{"ha":649,"x_min":61,"x_max":664,"o":"m 629 932 q 656 921 647 932 q 664 886 664 910 l 664 871 q 656 836 664 847 q 629 825 647 825 l 572 825 l 572 217 q 580 84 572 126 q 588 33 588 42 q 550 8 588 17 q 485 -1 513 -1 q 452 22 461 -1 q 436 93 443 44 q 366 17 407 43 q 276 -10 325 -10 q 163 37 211 -10 q 88 168 114 83 q 61 367 61 253 q 123 639 61 542 q 290 736 185 736 q 428 674 371 736 l 428 825 l 315 825 q 281 871 281 825 l 281 886 q 315 932 281 932 l 428 932 l 428 1011 q 489 1046 428 1046 l 511 1046 q 572 1011 572 1046 l 572 932 l 629 932 m 428 565 q 329 615 386 615 q 238 553 268 615 q 208 367 208 492 q 235 176 208 242 q 317 111 263 111 q 376 133 347 111 q 428 196 406 156 l 428 565 z "},"ḍ":{"ha":668,"x_min":61,"x_max":588,"o":"m 276 -10 q 163 37 211 -10 q 88 168 114 83 q 61 367 61 253 q 123 639 61 542 q 290 736 185 736 q 428 674 371 736 l 428 1011 q 489 1046 428 1046 l 511 1046 q 572 1011 572 1046 l 572 217 q 580 84 572 126 q 588 33 588 42 q 550 8 588 17 q 485 -1 513 -1 q 452 22 461 -1 q 436 93 443 44 q 366 17 407 43 q 276 -10 325 -10 m 317 111 q 376 133 347 111 q 428 196 406 156 l 428 565 q 329 615 386 615 q 238 553 268 615 q 208 367 208 492 q 235 176 208 242 q 317 111 263 111 m 331 -254 q 258 -219 258 -254 l 258 -146 q 331 -111 258 -111 q 403 -146 403 -111 l 403 -219 q 331 -254 403 -254 z "},"ǳ":{"ha":1231,"x_min":61,"x_max":1186,"o":"m 276 -10 q 163 37 211 -10 q 88 168 114 83 q 61 367 61 253 q 123 639 61 542 q 290 736 185 736 q 428 674 371 736 l 428 1011 q 489 1046 428 1046 l 511 1046 q 572 1011 572 1046 l 572 217 q 580 84 572 126 q 588 33 588 42 q 550 8 588 17 q 485 -1 513 -1 q 452 22 461 -1 q 436 93 443 44 q 366 17 407 43 q 276 -10 325 -10 m 317 111 q 376 133 347 111 q 428 196 406 156 l 428 565 q 329 615 386 615 q 238 553 268 615 q 208 367 208 492 q 235 176 208 242 q 317 111 263 111 m 742 0 q 722 28 732 0 q 711 81 711 57 q 714 97 711 89 l 1006 608 l 761 608 q 731 658 731 608 l 731 676 q 761 726 731 726 l 1154 726 q 1172 697 1163 726 q 1182 644 1182 667 q 1179 628 1182 636 l 889 118 l 1156 118 q 1186 68 1186 118 l 1186 50 q 1156 0 1186 0 l 742 0 z "},"ǆ":{"ha":1231,"x_min":61,"x_max":1186,"o":"m 276 -10 q 163 37 211 -10 q 88 168 114 83 q 61 367 61 253 q 123 639 61 542 q 290 736 185 736 q 428 674 371 736 l 428 1011 q 489 1046 428 1046 l 511 1046 q 572 1011 572 1046 l 572 217 q 580 84 572 126 q 588 33 588 42 q 550 8 588 17 q 485 -1 513 -1 q 452 22 461 -1 q 436 93 443 44 q 366 17 407 43 q 276 -10 325 -10 m 317 111 q 376 133 347 111 q 428 196 406 156 l 428 565 q 329 615 386 615 q 238 553 268 615 q 208 367 208 492 q 235 176 208 242 q 317 111 263 111 m 742 0 q 722 28 732 0 q 711 81 711 57 q 714 97 711 89 l 1006 608 l 761 608 q 731 658 731 608 l 731 676 q 761 726 731 726 l 1154 726 q 1172 697 1163 726 q 1182 644 1182 667 q 1179 628 1182 636 l 889 118 l 1156 118 q 1186 68 1186 118 l 1186 50 q 1156 0 1186 0 l 742 0 m 944 806 q 881 835 899 806 l 806 961 q 796 986 796 981 q 824 1004 796 1004 l 853 1004 q 899 982 885 1004 l 953 893 l 1008 982 q 1053 1004 1021 1004 l 1083 1004 q 1111 985 1111 1004 q 1101 961 1111 978 l 1025 835 q 1000 812 1015 818 q 963 806 985 806 l 944 806 z "},"e":{"ha":631,"x_min":60,"x_max":586,"o":"m 357 -10 q 133 82 207 -10 q 60 358 60 174 q 131 642 60 549 q 338 736 203 736 q 524 642 463 736 q 586 369 586 549 q 565 331 586 356 q 532 306 544 306 l 210 306 q 251 155 215 201 q 358 108 286 108 q 435 121 404 108 q 487 148 465 133 q 513 163 508 163 q 549 131 529 163 q 568 82 568 99 q 537 40 568 61 q 456 4 506 18 q 357 -10 407 -10 m 443 413 q 417 569 443 518 q 335 621 390 621 q 244 571 275 621 q 208 413 214 521 l 443 413 z "},"é":{"ha":631,"x_min":60,"x_max":586,"o":"m 357 -10 q 133 82 207 -10 q 60 358 60 174 q 131 642 60 549 q 338 736 203 736 q 524 642 463 736 q 586 369 586 549 q 565 331 586 356 q 532 306 544 306 l 210 306 q 251 155 215 201 q 358 108 286 108 q 435 121 404 108 q 487 148 465 133 q 513 163 508 163 q 549 131 529 163 q 568 82 568 99 q 537 40 568 61 q 456 4 506 18 q 357 -10 407 -10 m 443 413 q 417 569 443 518 q 335 621 390 621 q 244 571 275 621 q 208 413 214 521 l 443 413 m 307 808 q 281 812 288 808 q 274 825 274 815 q 285 858 274 833 q 317 924 296 882 l 344 981 q 432 1018 363 1018 q 480 1014 465 1018 q 494 999 494 1010 q 483 972 494 990 q 443 918 471 954 q 419 886 433 906 q 382 836 404 867 q 355 815 372 822 q 307 808 338 808 z "},"ĕ":{"ha":631,"x_min":60,"x_max":586,"o":"m 357 -10 q 133 82 207 -10 q 60 358 60 174 q 131 642 60 549 q 338 736 203 736 q 524 642 463 736 q 586 369 586 549 q 565 331 586 356 q 532 306 544 306 l 210 306 q 251 155 215 201 q 358 108 286 108 q 435 121 404 108 q 487 148 465 133 q 513 163 508 163 q 549 131 529 163 q 568 82 568 99 q 537 40 568 61 q 456 4 506 18 q 357 -10 407 -10 m 443 413 q 417 569 443 518 q 335 621 390 621 q 244 571 275 621 q 208 413 214 521 l 443 413 m 321 808 q 199 851 246 808 q 153 965 153 894 q 186 993 153 993 q 206 987 200 993 q 219 961 211 981 q 254 923 231 936 q 321 910 278 910 q 422 963 401 910 q 435 987 429 981 q 454 993 440 993 q 488 965 488 993 q 441 851 488 894 q 321 808 394 808 z "},"ě":{"ha":631,"x_min":60,"x_max":586,"o":"m 357 -10 q 133 82 207 -10 q 60 358 60 174 q 131 642 60 549 q 338 736 203 736 q 524 642 463 736 q 586 369 586 549 q 565 331 586 356 q 532 306 544 306 l 210 306 q 251 155 215 201 q 358 108 286 108 q 435 121 404 108 q 487 148 465 133 q 513 163 508 163 q 549 131 529 163 q 568 82 568 99 q 537 40 568 61 q 456 4 506 18 q 357 -10 407 -10 m 443 413 q 417 569 443 518 q 335 621 390 621 q 244 571 275 621 q 208 413 214 521 l 443 413 m 313 806 q 249 835 267 806 l 174 961 q 164 986 164 981 q 192 1004 164 1004 l 221 1004 q 267 982 253 1004 l 321 893 l 376 982 q 421 1004 389 1004 l 451 1004 q 479 985 479 1004 q 469 961 479 978 l 393 835 q 368 812 383 818 q 331 806 353 806 l 313 806 z "},"ê":{"ha":631,"x_min":60,"x_max":586,"o":"m 357 -10 q 133 82 207 -10 q 60 358 60 174 q 131 642 60 549 q 338 736 203 736 q 524 642 463 736 q 586 369 586 549 q 565 331 586 356 q 532 306 544 306 l 210 306 q 251 155 215 201 q 358 108 286 108 q 435 121 404 108 q 487 148 465 133 q 513 163 508 163 q 549 131 529 163 q 568 82 568 99 q 537 40 568 61 q 456 4 506 18 q 357 -10 407 -10 m 443 413 q 417 569 443 518 q 335 621 390 621 q 244 571 275 621 q 208 413 214 521 l 443 413 m 190 799 q 169 803 176 799 q 163 815 163 808 q 172 840 163 821 l 247 968 q 313 997 267 997 l 328 997 q 392 968 372 997 l 468 840 q 478 817 478 826 q 450 799 478 799 l 419 799 q 375 819 388 799 l 319 910 l 265 819 q 219 799 250 799 l 190 799 z "},"ế":{"ha":611,"x_min":60,"x_max":640,"o":"m 453 997 q 427 1001 435 997 q 419 1014 419 1004 q 431 1047 419 1022 q 463 1113 442 1071 l 490 1169 q 578 1207 510 1207 q 626 1203 611 1207 q 640 1188 640 1199 q 628 1161 640 1179 q 589 1107 617 1143 q 565 1075 579 1094 q 528 1025 550 1056 q 501 1004 518 1011 q 453 997 483 997 m 189 799 q 168 803 175 799 q 161 815 161 808 q 168 840 161 819 l 238 968 q 303 997 256 997 l 319 997 q 382 968 365 997 l 451 840 q 460 817 460 828 q 433 799 460 799 l 403 799 q 357 818 368 799 l 310 910 l 264 819 q 246 803 257 807 q 218 799 235 799 l 189 799 m 357 -10 q 133 82 207 -10 q 60 358 60 174 q 131 642 60 549 q 338 736 203 736 q 524 642 463 736 q 586 369 586 549 q 565 331 586 356 q 532 306 544 306 l 210 306 q 251 155 215 201 q 358 108 286 108 q 435 121 404 108 q 487 148 465 133 q 513 163 508 163 q 549 131 529 163 q 568 82 568 99 q 537 40 568 61 q 456 4 506 18 q 357 -10 407 -10 m 443 413 q 417 569 443 518 q 335 621 390 621 q 244 571 275 621 q 208 413 214 521 l 443 413 z "},"ệ":{"ha":631,"x_min":60,"x_max":586,"o":"m 357 -10 q 133 82 207 -10 q 60 358 60 174 q 131 642 60 549 q 338 736 203 736 q 524 642 463 736 q 586 369 586 549 q 565 331 586 356 q 532 306 544 306 l 210 306 q 251 155 215 201 q 358 108 286 108 q 435 121 404 108 q 487 148 465 133 q 513 163 508 163 q 549 131 529 163 q 568 82 568 99 q 537 40 568 61 q 456 4 506 18 q 357 -10 407 -10 m 443 413 q 417 569 443 518 q 335 621 390 621 q 244 571 275 621 q 208 413 214 521 l 443 413 m 325 -254 q 253 -219 253 -254 l 253 -146 q 325 -111 253 -111 q 397 -146 397 -111 l 397 -219 q 325 -254 397 -254 m 190 799 q 169 803 176 799 q 163 815 163 808 q 172 840 163 821 l 247 968 q 313 997 267 997 l 328 997 q 392 968 372 997 l 468 840 q 478 817 478 826 q 450 799 478 799 l 419 799 q 375 819 388 799 l 319 910 l 265 819 q 219 799 250 799 l 190 799 z "},"ề":{"ha":611,"x_min":60,"x_max":586,"o":"m 496 997 q 421 1025 439 997 l 376 1083 q 318 1162 329 1146 q 307 1188 307 1178 q 322 1203 307 1199 q 371 1207 338 1207 q 458 1169 440 1207 q 510 1062 492 1100 q 528 1014 528 1024 q 521 1001 528 1004 q 496 997 514 997 m 189 799 q 168 803 175 799 q 161 815 161 808 q 168 840 161 819 l 238 968 q 303 997 256 997 l 319 997 q 382 968 365 997 l 451 840 q 460 817 460 828 q 433 799 460 799 l 403 799 q 357 818 368 799 l 310 910 l 264 819 q 246 803 257 807 q 218 799 235 799 l 189 799 m 357 -10 q 133 82 207 -10 q 60 358 60 174 q 131 642 60 549 q 338 736 203 736 q 524 642 463 736 q 586 369 586 549 q 565 331 586 356 q 532 306 544 306 l 210 306 q 251 155 215 201 q 358 108 286 108 q 435 121 404 108 q 487 148 465 133 q 513 163 508 163 q 549 131 529 163 q 568 82 568 99 q 537 40 568 61 q 456 4 506 18 q 357 -10 407 -10 m 443 413 q 417 569 443 518 q 335 621 390 621 q 244 571 275 621 q 208 413 214 521 l 443 413 z "},"ể":{"ha":611,"x_min":60,"x_max":614,"o":"m 483 974 q 449 983 468 974 q 429 1000 429 992 q 437 1018 429 1010 q 464 1043 444 1026 q 503 1080 489 1063 q 517 1121 517 1097 q 503 1147 517 1138 q 468 1156 489 1156 q 424 1147 440 1156 q 406 1139 408 1139 q 383 1158 397 1139 q 369 1188 369 1176 q 406 1216 369 1201 q 479 1231 443 1231 q 574 1206 533 1231 q 614 1129 614 1181 q 588 1055 614 1090 q 528 997 561 1019 q 483 974 496 974 m 189 799 q 168 803 175 799 q 161 815 161 808 q 168 840 161 819 l 238 968 q 303 997 256 997 l 319 997 q 382 968 365 997 l 451 840 q 460 817 460 828 q 433 799 460 799 l 403 799 q 357 818 368 799 l 310 910 l 264 819 q 246 803 257 807 q 218 799 235 799 l 189 799 m 357 -10 q 133 82 207 -10 q 60 358 60 174 q 131 642 60 549 q 338 736 203 736 q 524 642 463 736 q 586 369 586 549 q 565 331 586 356 q 532 306 544 306 l 210 306 q 251 155 215 201 q 358 108 286 108 q 435 121 404 108 q 487 148 465 133 q 513 163 508 163 q 549 131 529 163 q 568 82 568 99 q 537 40 568 61 q 456 4 506 18 q 357 -10 407 -10 m 443 413 q 417 569 443 518 q 335 621 390 621 q 244 571 275 621 q 208 413 214 521 l 443 413 z "},"ễ":{"ha":611,"x_min":60,"x_max":586,"o":"m 150 1044 q 133 1067 133 1051 q 138 1086 133 1076 q 244 1182 169 1182 q 332 1154 274 1182 q 400 1131 379 1131 q 422 1138 413 1131 q 444 1163 432 1144 q 472 1185 457 1185 q 488 1181 479 1185 l 496 1176 q 511 1167 507 1172 q 515 1154 515 1163 q 511 1135 515 1146 q 404 1039 476 1039 q 315 1067 374 1039 q 244 1090 265 1090 q 223 1083 232 1090 q 204 1057 214 1076 q 178 1038 190 1038 q 163 1040 174 1038 l 150 1044 m 190 799 q 163 817 163 799 q 174 843 163 825 l 238 938 q 265 960 250 953 q 303 967 279 967 l 319 967 q 385 938 364 967 l 450 843 q 461 817 461 825 q 453 803 461 808 q 433 799 446 799 l 403 799 q 358 818 374 799 l 311 892 l 265 819 q 247 803 257 808 q 218 799 236 799 l 190 799 m 357 -10 q 133 82 207 -10 q 60 358 60 174 q 131 642 60 549 q 338 736 203 736 q 524 642 463 736 q 586 369 586 549 q 565 331 586 356 q 532 306 544 306 l 210 306 q 251 155 215 201 q 358 108 286 108 q 435 121 404 108 q 487 148 465 133 q 513 163 508 163 q 549 131 529 163 q 568 82 568 99 q 537 40 568 61 q 456 4 506 18 q 357 -10 407 -10 m 443 413 q 417 569 443 518 q 335 621 390 621 q 244 571 275 621 q 208 413 214 521 l 443 413 z "},"ë":{"ha":631,"x_min":60,"x_max":586,"o":"m 357 -10 q 133 82 207 -10 q 60 358 60 174 q 131 642 60 549 q 338 736 203 736 q 524 642 463 736 q 586 369 586 549 q 565 331 586 356 q 532 306 544 306 l 210 306 q 251 155 215 201 q 358 108 286 108 q 435 121 404 108 q 487 148 465 133 q 513 163 508 163 q 549 131 529 163 q 568 82 568 99 q 537 40 568 61 q 456 4 506 18 q 357 -10 407 -10 m 443 413 q 417 569 443 518 q 335 621 390 621 q 244 571 275 621 q 208 413 214 521 l 443 413 m 226 832 q 167 867 167 832 l 167 940 q 228 975 167 975 q 289 940 289 975 l 289 867 q 226 832 289 832 m 417 832 q 356 867 356 832 l 356 940 q 418 975 356 975 q 478 940 478 975 l 478 867 q 417 832 478 832 z "},"ė":{"ha":631,"x_min":60,"x_max":586,"o":"m 357 -10 q 133 82 207 -10 q 60 358 60 174 q 131 642 60 549 q 338 736 203 736 q 524 642 463 736 q 586 369 586 549 q 565 331 586 356 q 532 306 544 306 l 210 306 q 251 155 215 201 q 358 108 286 108 q 435 121 404 108 q 487 148 465 133 q 513 163 508 163 q 549 131 529 163 q 568 82 568 99 q 537 40 568 61 q 456 4 506 18 q 357 -10 407 -10 m 443 413 q 417 569 443 518 q 335 621 390 621 q 244 571 275 621 q 208 413 214 521 l 443 413 m 322 832 q 250 867 250 832 l 250 940 q 322 975 250 975 q 394 940 394 975 l 394 867 q 322 832 394 832 z "},"ẹ":{"ha":631,"x_min":60,"x_max":586,"o":"m 357 -10 q 133 82 207 -10 q 60 358 60 174 q 131 642 60 549 q 338 736 203 736 q 524 642 463 736 q 586 369 586 549 q 565 331 586 356 q 532 306 544 306 l 210 306 q 251 155 215 201 q 358 108 286 108 q 435 121 404 108 q 487 148 465 133 q 513 163 508 163 q 549 131 529 163 q 568 82 568 99 q 537 40 568 61 q 456 4 506 18 q 357 -10 407 -10 m 443 413 q 417 569 443 518 q 335 621 390 621 q 244 571 275 621 q 208 413 214 521 l 443 413 m 325 -254 q 253 -219 253 -254 l 253 -146 q 325 -111 253 -111 q 397 -146 397 -111 l 397 -219 q 325 -254 397 -254 z "},"è":{"ha":631,"x_min":60,"x_max":586,"o":"m 357 -10 q 133 82 207 -10 q 60 358 60 174 q 131 642 60 549 q 338 736 203 736 q 524 642 463 736 q 586 369 586 549 q 565 331 586 356 q 532 306 544 306 l 210 306 q 251 155 215 201 q 358 108 286 108 q 435 121 404 108 q 487 148 465 133 q 513 163 508 163 q 549 131 529 163 q 568 82 568 99 q 537 40 568 61 q 456 4 506 18 q 357 -10 407 -10 m 443 413 q 417 569 443 518 q 335 621 390 621 q 244 571 275 621 q 208 413 214 521 l 443 413 m 350 808 q 275 836 293 808 l 231 894 q 172 973 183 957 q 161 999 161 989 q 176 1014 161 1010 q 225 1018 192 1018 q 313 981 293 1018 q 364 873 346 911 q 382 825 382 835 q 375 812 382 815 q 350 808 368 808 z "},"ẻ":{"ha":631,"x_min":60,"x_max":586,"o":"m 357 -10 q 133 82 207 -10 q 60 358 60 174 q 131 642 60 549 q 338 736 203 736 q 524 642 463 736 q 586 369 586 549 q 565 331 586 356 q 532 306 544 306 l 210 306 q 251 155 215 201 q 358 108 286 108 q 435 121 404 108 q 487 148 465 133 q 513 163 508 163 q 549 131 529 163 q 568 82 568 99 q 537 40 568 61 q 456 4 506 18 q 357 -10 407 -10 m 443 413 q 417 569 443 518 q 335 621 390 621 q 244 571 275 621 q 208 413 214 521 l 443 413 m 338 785 q 303 794 322 785 q 283 811 283 803 q 291 829 283 821 q 318 854 299 838 q 357 891 343 874 q 371 932 371 908 q 357 958 371 949 q 322 967 343 967 q 278 958 294 967 q 260 950 263 950 q 238 969 251 950 q 224 999 224 988 q 260 1027 224 1013 q 333 1042 297 1042 q 428 1017 388 1042 q 468 940 468 992 q 442 866 468 901 q 383 808 415 831 q 338 785 350 785 z "},"ē":{"ha":631,"x_min":60,"x_max":586,"o":"m 357 -10 q 133 82 207 -10 q 60 358 60 174 q 131 642 60 549 q 338 736 203 736 q 524 642 463 736 q 586 369 586 549 q 565 331 586 356 q 532 306 544 306 l 210 306 q 251 155 215 201 q 358 108 286 108 q 435 121 404 108 q 487 148 465 133 q 513 163 508 163 q 549 131 529 163 q 568 82 568 99 q 537 40 568 61 q 456 4 506 18 q 357 -10 407 -10 m 443 413 q 417 569 443 518 q 335 621 390 621 q 244 571 275 621 q 208 413 214 521 l 443 413 m 188 844 q 157 890 157 844 l 157 906 q 188 951 157 951 l 461 951 q 485 940 478 951 q 492 906 492 929 l 492 890 q 485 856 492 867 q 461 844 478 844 l 188 844 z "},"ę":{"ha":631,"x_min":60,"x_max":624,"o":"m 592 -139 q 624 -175 624 -139 q 604 -214 624 -201 q 515 -237 567 -237 q 413 -197 439 -237 q 386 -112 386 -157 q 413 -6 386 -60 q 357 -10 386 -10 q 133 82 207 -10 q 60 358 60 174 q 131 642 60 549 q 338 736 203 736 q 524 642 463 736 q 586 369 586 549 q 565 331 586 356 q 532 306 544 306 l 210 306 q 251 155 215 201 q 358 108 286 108 q 435 121 404 108 q 487 148 465 133 q 513 163 508 163 q 549 131 529 163 q 568 82 568 99 q 551 51 568 67 q 506 22 535 35 q 482 -36 490 -7 q 474 -87 474 -65 q 493 -135 474 -122 q 542 -147 513 -147 q 570 -143 553 -147 q 592 -139 588 -139 m 335 621 q 244 571 275 621 q 208 413 214 521 l 443 413 q 417 569 443 518 q 335 621 390 621 z "},"ẽ":{"ha":631,"x_min":60,"x_max":586,"o":"m 357 -10 q 133 82 207 -10 q 60 358 60 174 q 131 642 60 549 q 338 736 203 736 q 524 642 463 736 q 586 369 586 549 q 565 331 586 356 q 532 306 544 306 l 210 306 q 251 155 215 201 q 358 108 286 108 q 435 121 404 108 q 487 148 465 133 q 513 163 508 163 q 549 131 529 163 q 568 82 568 99 q 537 40 568 61 q 456 4 506 18 q 357 -10 407 -10 m 443 413 q 417 569 443 518 q 335 621 390 621 q 244 571 275 621 q 208 413 214 521 l 443 413 m 131 822 q 111 844 111 829 q 115 864 111 854 q 233 960 151 960 q 329 932 265 960 q 361 919 335 929 q 406 908 388 908 q 430 915 419 908 q 453 940 440 922 q 483 963 467 963 q 500 958 489 963 l 511 954 q 527 945 522 950 q 532 932 532 940 q 526 913 532 926 q 408 817 489 817 q 366 824 388 817 q 311 844 344 831 q 269 861 290 854 q 233 868 249 868 q 211 861 221 868 q 189 835 201 854 q 160 815 175 815 q 144 818 156 815 l 131 822 z "},"f":{"ha":397,"x_min":57,"x_max":399,"o":"m 186 -3 q 122 32 122 -3 l 122 608 l 89 608 q 65 620 72 608 q 57 658 57 632 l 57 676 q 65 715 57 703 q 89 726 72 726 l 122 726 l 122 861 q 172 1008 122 965 q 292 1051 221 1051 q 365 1039 331 1051 q 399 1001 399 1026 q 388 956 399 986 q 364 925 378 925 q 346 929 360 925 q 317 933 332 933 q 277 917 290 933 q 264 854 264 900 l 264 726 l 343 726 q 367 715 360 726 q 375 676 375 703 l 375 658 q 367 620 375 632 q 343 608 360 608 l 264 608 l 264 32 q 200 -3 264 -3 l 186 -3 z "},"g":{"ha":654,"x_min":57,"x_max":619,"o":"m 308 -294 q 57 -118 57 -294 q 85 -16 57 -60 q 165 53 114 28 l 165 57 q 129 100 142 74 q 117 158 117 126 q 183 286 117 235 q 107 369 133 315 q 81 494 81 422 q 143 672 81 607 q 317 736 206 736 q 389 726 347 736 l 589 726 q 613 715 606 726 q 619 679 619 704 l 619 661 q 613 627 619 638 q 592 617 607 617 q 524 619 542 617 l 521 617 q 550 493 550 563 q 492 324 550 388 q 332 256 433 260 q 260 234 286 253 q 235 178 235 215 q 267 125 235 139 q 364 101 299 111 l 403 94 q 536 40 489 79 q 583 -82 583 1 q 513 -239 583 -183 q 308 -294 442 -294 m 315 358 q 398 388 368 358 q 428 493 428 417 q 398 602 428 572 q 315 632 368 632 q 233 602 263 632 q 204 493 204 572 q 233 387 204 415 q 315 358 263 358 m 319 -187 q 458 -94 458 -187 q 425 -32 458 -49 q 322 -6 392 -15 q 244 10 269 3 q 179 -93 179 -26 q 319 -187 179 -187 z "},"ğ":{"ha":654,"x_min":57,"x_max":619,"o":"m 308 -294 q 57 -118 57 -294 q 85 -16 57 -60 q 165 53 114 28 l 165 57 q 129 100 142 74 q 117 158 117 126 q 183 286 117 235 q 107 369 133 315 q 81 494 81 422 q 143 672 81 607 q 317 736 206 736 q 389 726 347 736 l 589 726 q 613 715 606 726 q 619 679 619 704 l 619 661 q 613 627 619 638 q 592 617 607 617 q 524 619 542 617 l 521 617 q 550 493 550 563 q 492 324 550 388 q 332 256 433 260 q 260 234 286 253 q 235 178 235 215 q 267 125 235 139 q 364 101 299 111 l 403 94 q 536 40 489 79 q 583 -82 583 1 q 513 -239 583 -183 q 308 -294 442 -294 m 315 358 q 398 388 368 358 q 428 493 428 417 q 398 602 428 572 q 315 632 368 632 q 233 602 263 632 q 204 493 204 572 q 233 387 204 415 q 315 358 263 358 m 319 -187 q 458 -94 458 -187 q 425 -32 458 -49 q 322 -6 392 -15 q 244 10 269 3 q 179 -93 179 -26 q 319 -187 179 -187 m 319 808 q 198 851 244 808 q 151 965 151 894 q 185 993 151 993 q 204 987 199 993 q 218 961 210 981 q 253 923 229 936 q 319 910 276 910 q 421 963 400 910 q 433 987 428 981 q 453 993 439 993 q 486 965 486 993 q 440 851 486 894 q 319 808 393 808 z "},"ĝ":{"ha":654,"x_min":57,"x_max":619,"o":"m 308 -294 q 57 -118 57 -294 q 85 -16 57 -60 q 165 53 114 28 l 165 57 q 129 100 142 74 q 117 158 117 126 q 183 286 117 235 q 107 369 133 315 q 81 494 81 422 q 143 672 81 607 q 317 736 206 736 q 389 726 347 736 l 589 726 q 613 715 606 726 q 619 679 619 704 l 619 661 q 613 627 619 638 q 592 617 607 617 q 524 619 542 617 l 521 617 q 550 493 550 563 q 492 324 550 388 q 332 256 433 260 q 260 234 286 253 q 235 178 235 215 q 267 125 235 139 q 364 101 299 111 l 403 94 q 536 40 489 79 q 583 -82 583 1 q 513 -239 583 -183 q 308 -294 442 -294 m 315 358 q 398 388 368 358 q 428 493 428 417 q 398 602 428 572 q 315 632 368 632 q 233 602 263 632 q 204 493 204 572 q 233 387 204 415 q 315 358 263 358 m 319 -187 q 458 -94 458 -187 q 425 -32 458 -49 q 322 -6 392 -15 q 244 10 269 3 q 179 -93 179 -26 q 319 -187 179 -187 m 189 799 q 168 803 175 799 q 161 815 161 808 q 171 840 161 821 l 246 968 q 311 997 265 997 l 326 997 q 390 968 371 997 l 467 840 q 476 817 476 826 q 449 799 476 799 l 418 799 q 374 819 386 799 l 318 910 l 264 819 q 218 799 249 799 l 189 799 z "},"ģ":{"ha":607,"x_min":57,"x_max":619,"o":"m 358 1065 q 390 1060 376 1065 q 404 1042 404 1054 q 396 1004 404 1035 q 371 857 371 936 q 311 808 371 808 l 293 808 q 253 821 267 808 q 240 854 240 833 q 261 958 240 910 q 310 1036 282 1007 q 358 1065 339 1065 m 308 -294 q 57 -118 57 -294 q 85 -16 57 -60 q 165 53 114 28 l 165 57 q 129 100 142 74 q 117 158 117 126 q 183 286 117 235 q 107 369 133 315 q 81 494 81 422 q 143 672 81 607 q 317 736 206 736 q 389 726 347 736 l 589 726 q 613 715 606 726 q 619 679 619 704 l 619 661 q 613 627 619 638 q 592 617 607 617 q 524 619 542 617 l 521 617 q 550 493 550 563 q 492 324 550 388 q 332 256 433 260 q 260 234 286 253 q 235 178 235 215 q 267 125 235 139 q 364 101 299 111 l 403 94 q 536 40 489 79 q 583 -82 583 1 q 513 -239 583 -183 q 308 -294 442 -294 m 315 358 q 398 388 368 358 q 428 493 428 417 q 398 602 428 572 q 315 632 368 632 q 233 602 263 632 q 204 493 204 572 q 233 387 204 415 q 315 358 263 358 m 319 -187 q 458 -94 458 -187 q 425 -32 458 -49 q 322 -6 392 -15 q 244 10 269 3 q 179 -93 179 -26 q 319 -187 179 -187 z "},"ġ":{"ha":654,"x_min":57,"x_max":619,"o":"m 308 -294 q 57 -118 57 -294 q 85 -16 57 -60 q 165 53 114 28 l 165 57 q 129 100 142 74 q 117 158 117 126 q 183 286 117 235 q 107 369 133 315 q 81 494 81 422 q 143 672 81 607 q 317 736 206 736 q 389 726 347 736 l 589 726 q 613 715 606 726 q 619 679 619 704 l 619 661 q 613 627 619 638 q 592 617 607 617 q 524 619 542 617 l 521 617 q 550 493 550 563 q 492 324 550 388 q 332 256 433 260 q 260 234 286 253 q 235 178 235 215 q 267 125 235 139 q 364 101 299 111 l 403 94 q 536 40 489 79 q 583 -82 583 1 q 513 -239 583 -183 q 308 -294 442 -294 m 315 358 q 398 388 368 358 q 428 493 428 417 q 398 602 428 572 q 315 632 368 632 q 233 602 263 632 q 204 493 204 572 q 233 387 204 415 q 315 358 263 358 m 319 -187 q 458 -94 458 -187 q 425 -32 458 -49 q 322 -6 392 -15 q 244 10 269 3 q 179 -93 179 -26 q 319 -187 179 -187 m 321 832 q 249 867 249 832 l 249 940 q 321 975 249 975 q 393 940 393 975 l 393 867 q 321 832 393 832 z "},"h":{"ha":674,"x_min":100,"x_max":588,"o":"m 161 -3 q 100 32 100 -3 l 100 1011 q 161 1046 100 1046 l 186 1046 q 246 1011 246 1046 l 246 642 q 320 710 276 685 q 417 736 364 736 q 540 683 492 736 q 588 525 588 631 l 588 32 q 528 -3 588 -3 l 504 -3 q 443 32 443 -3 l 443 504 q 357 614 443 614 q 287 587 317 614 q 246 532 257 560 l 246 32 q 185 -3 246 -3 l 161 -3 z "},"ħ":{"ha":654,"x_min":3,"x_max":588,"o":"m 417 736 q 540 683 492 736 q 588 525 588 631 l 588 32 q 528 -3 588 -3 l 504 -3 q 443 32 443 -3 l 443 504 q 357 614 443 614 q 287 587 317 614 q 246 532 257 560 l 246 32 q 185 -3 246 -3 l 161 -3 q 100 32 100 -3 l 100 825 l 38 825 q 3 871 3 825 l 3 886 q 38 932 3 932 l 100 932 l 100 1011 q 161 1046 100 1046 l 186 1046 q 246 1011 246 1046 l 246 932 l 351 932 q 378 921 369 932 q 386 886 386 910 l 386 871 q 378 836 386 847 q 351 825 369 825 l 246 825 l 246 642 q 320 710 276 685 q 417 736 364 736 z "},"ĥ":{"ha":674,"x_min":15,"x_max":588,"o":"m 161 -3 q 100 32 100 -3 l 100 1011 q 161 1046 100 1046 l 186 1046 q 246 1011 246 1046 l 246 642 q 320 710 276 685 q 417 736 364 736 q 540 683 492 736 q 588 525 588 631 l 588 32 q 528 -3 588 -3 l 504 -3 q 443 32 443 -3 l 443 504 q 357 614 443 614 q 287 587 317 614 q 246 532 257 560 l 246 32 q 185 -3 246 -3 l 161 -3 m 43 1088 q 22 1092 29 1088 q 15 1104 15 1097 q 25 1129 15 1110 l 100 1257 q 165 1286 119 1286 l 181 1286 q 244 1257 225 1286 l 321 1129 q 331 1106 331 1115 q 303 1088 331 1088 l 272 1088 q 228 1108 240 1088 l 172 1199 l 118 1108 q 72 1088 103 1088 l 43 1088 z "},"ḥ":{"ha":674,"x_min":100,"x_max":588,"o":"m 161 -3 q 100 32 100 -3 l 100 1011 q 161 1046 100 1046 l 186 1046 q 246 1011 246 1046 l 246 642 q 320 710 276 685 q 417 736 364 736 q 540 683 492 736 q 588 525 588 631 l 588 32 q 528 -3 588 -3 l 504 -3 q 443 32 443 -3 l 443 504 q 357 614 443 614 q 287 587 317 614 q 246 532 257 560 l 246 32 q 185 -3 246 -3 l 161 -3 m 344 -254 q 272 -219 272 -254 l 272 -146 q 344 -111 272 -111 q 417 -146 417 -111 l 417 -219 q 344 -254 417 -254 z "},"i":{"ha":353,"x_min":106,"x_max":250,"o":"m 169 -3 q 106 32 106 -3 l 106 694 q 169 729 106 729 l 183 729 q 247 694 247 729 l 247 32 q 183 -3 247 -3 l 169 -3 m 178 832 q 106 867 106 832 l 106 940 q 178 975 106 975 q 250 940 250 975 l 250 867 q 178 832 250 832 z "},"ı":{"ha":353,"x_min":106,"x_max":247,"o":"m 169 -3 q 106 32 106 -3 l 106 694 q 169 729 106 729 l 183 729 q 247 694 247 729 l 247 32 q 183 -3 247 -3 l 169 -3 z "},"í":{"ha":353,"x_min":106,"x_max":350,"o":"m 169 -3 q 106 32 106 -3 l 106 694 q 169 729 106 729 l 183 729 q 247 694 247 729 l 247 32 q 183 -3 247 -3 l 169 -3 m 163 808 q 136 812 143 808 q 129 825 129 815 q 140 858 129 833 q 172 924 151 882 l 200 981 q 288 1018 218 1018 q 335 1014 321 1018 q 350 999 350 1010 q 338 972 350 990 q 299 918 326 954 q 274 886 289 906 q 238 836 260 867 q 210 815 228 822 q 163 808 193 808 z "},"ĭ":{"ha":353,"x_min":8,"x_max":343,"o":"m 169 -3 q 106 32 106 -3 l 106 694 q 169 729 106 729 l 183 729 q 247 694 247 729 l 247 32 q 183 -3 247 -3 l 169 -3 m 176 808 q 55 851 101 808 q 8 965 8 894 q 42 993 8 993 q 61 987 56 993 q 75 961 67 981 q 110 923 86 936 q 176 910 133 910 q 278 963 257 910 q 290 987 285 981 q 310 993 296 993 q 343 965 343 993 q 297 851 343 894 q 176 808 250 808 z "},"î":{"ha":353,"x_min":18,"x_max":333,"o":"m 169 -3 q 106 32 106 -3 l 106 694 q 169 729 106 729 l 183 729 q 247 694 247 729 l 247 32 q 183 -3 247 -3 l 169 -3 m 46 799 q 25 803 32 799 q 18 815 18 808 q 28 840 18 821 l 103 968 q 168 997 122 997 l 183 997 q 247 968 228 997 l 324 840 q 333 817 333 826 q 306 799 333 799 l 275 799 q 231 819 243 799 l 175 910 l 121 819 q 75 799 106 799 l 46 799 z "},"ï":{"ha":353,"x_min":22,"x_max":333,"o":"m 169 -3 q 106 32 106 -3 l 106 694 q 169 729 106 729 l 183 729 q 247 694 247 729 l 247 32 q 183 -3 247 -3 l 169 -3 m 82 832 q 22 867 22 832 l 22 940 q 83 975 22 975 q 144 940 144 975 l 144 867 q 82 832 144 832 m 272 832 q 211 867 211 832 l 211 940 q 274 975 211 975 q 333 940 333 975 l 333 867 q 272 832 333 832 z "},"ị":{"ha":353,"x_min":90,"x_max":250,"o":"m 169 -3 q 106 32 106 -3 l 106 694 q 169 729 106 729 l 183 729 q 247 694 247 729 l 247 32 q 183 -3 247 -3 l 169 -3 m 178 832 q 106 867 106 832 l 106 940 q 178 975 106 975 q 250 940 250 975 l 250 867 q 178 832 250 832 m 163 -254 q 90 -219 90 -254 l 90 -146 q 163 -111 90 -111 q 235 -146 235 -111 l 235 -219 q 163 -254 235 -254 z "},"ì":{"ha":353,"x_min":17,"x_max":247,"o":"m 169 -3 q 106 32 106 -3 l 106 694 q 169 729 106 729 l 183 729 q 247 694 247 729 l 247 32 q 183 -3 247 -3 l 169 -3 m 206 808 q 131 836 149 808 l 86 894 q 28 973 39 957 q 17 999 17 989 q 32 1014 17 1010 q 81 1018 47 1018 q 168 981 149 1018 q 219 873 201 911 q 238 825 238 835 q 231 812 238 815 q 206 808 224 808 z "},"ỉ":{"ha":353,"x_min":79,"x_max":324,"o":"m 169 -3 q 106 32 106 -3 l 106 694 q 169 729 106 729 l 183 729 q 247 694 247 729 l 247 32 q 183 -3 247 -3 l 169 -3 m 193 785 q 158 794 178 785 q 139 811 139 803 q 147 829 139 821 q 174 854 154 838 q 213 891 199 874 q 226 932 226 908 q 213 958 226 949 q 178 967 199 967 q 134 958 150 967 q 115 950 118 950 q 93 969 107 950 q 79 999 79 988 q 116 1027 79 1013 q 189 1042 153 1042 q 283 1017 243 1042 q 324 940 324 992 q 297 866 324 901 q 238 808 271 831 q 193 785 206 785 z "},"ĳ":{"ha":699,"x_min":106,"x_max":603,"o":"m 169 -3 q 106 32 106 -3 l 106 694 q 169 729 106 729 l 183 729 q 247 694 247 729 l 247 32 q 183 -3 247 -3 l 169 -3 m 178 832 q 106 867 106 832 l 106 940 q 178 975 106 975 q 250 940 250 975 l 250 867 q 178 832 250 832 m 439 -294 q 331 -244 331 -294 q 340 -198 331 -226 q 364 -169 349 -169 q 381 -173 368 -169 q 411 -176 393 -176 q 458 -92 458 -176 l 458 694 q 522 729 458 729 l 536 729 q 600 694 600 729 l 600 -99 q 552 -249 600 -204 q 439 -294 504 -294 m 531 832 q 458 867 458 832 l 458 940 q 531 975 458 975 q 603 940 603 975 l 603 867 q 531 832 603 832 z "},"ī":{"ha":353,"x_min":13,"x_max":347,"o":"m 169 -3 q 106 32 106 -3 l 106 694 q 169 729 106 729 l 183 729 q 247 694 247 729 l 247 32 q 183 -3 247 -3 l 169 -3 m 43 844 q 13 890 13 844 l 13 906 q 43 951 13 951 l 317 951 q 340 940 333 951 q 347 906 347 929 l 347 890 q 340 856 347 867 q 317 844 333 844 l 43 844 z "},"į":{"ha":353,"x_min":106,"x_max":353,"o":"m 178 832 q 106 867 106 832 l 106 940 q 178 975 106 975 q 250 940 250 975 l 250 867 q 178 832 250 832 m 321 -151 q 353 -187 353 -151 q 333 -226 353 -214 q 244 -250 296 -250 q 142 -210 168 -250 q 115 -125 115 -169 q 124 -67 115 -100 q 150 -1 132 -33 q 106 32 106 3 l 106 694 q 169 729 106 729 l 183 729 q 247 694 247 729 l 247 32 q 233 7 247 15 q 203 -100 203 -53 q 222 -147 203 -135 q 271 -160 242 -160 q 299 -156 282 -160 q 321 -151 317 -151 z "},"ĩ":{"ha":317,"x_min":-28,"x_max":354,"o":"m -11 822 q -28 844 -28 829 q -24 864 -28 854 q 83 960 8 960 q 122 953 101 960 q 171 932 143 946 q 209 915 190 922 q 240 908 228 908 q 263 915 253 908 q 283 940 272 922 q 311 963 296 963 q 326 958 318 963 l 336 954 q 350 945 346 950 q 354 932 354 940 q 350 913 354 924 q 243 817 314 817 q 208 823 226 817 q 174 836 190 829 q 154 844 158 843 q 116 861 135 854 q 85 868 97 868 q 63 861 72 868 q 43 835 54 854 q 17 815 29 815 q 3 818 14 815 l -11 822 m 169 -3 q 106 32 106 -3 l 106 694 q 169 729 106 729 l 183 729 q 247 694 247 729 l 247 32 q 183 -3 247 -3 l 169 -3 z "},"j":{"ha":346,"x_min":-22,"x_max":250,"o":"m 86 -294 q -22 -244 -22 -294 q -13 -198 -22 -226 q 11 -169 -4 -169 q 28 -173 15 -169 q 58 -176 40 -176 q 106 -92 106 -176 l 106 694 q 169 729 106 729 l 183 729 q 247 694 247 729 l 247 -99 q 199 -249 247 -204 q 86 -294 151 -294 m 178 832 q 106 867 106 832 l 106 940 q 178 975 106 975 q 250 940 250 975 l 250 867 q 178 832 250 832 z "},"ȷ":{"ha":346,"x_min":-22,"x_max":247,"o":"m 86 -294 q -22 -244 -22 -294 q -13 -198 -22 -226 q 11 -169 -4 -169 q 28 -173 15 -169 q 58 -176 40 -176 q 106 -92 106 -176 l 106 694 q 169 729 106 729 l 183 729 q 247 694 247 729 l 247 -99 q 199 -249 247 -204 q 86 -294 151 -294 z "},"ĵ":{"ha":346,"x_min":-22,"x_max":333,"o":"m 86 -294 q -22 -244 -22 -294 q -13 -198 -22 -226 q 11 -169 -4 -169 q 28 -173 15 -169 q 58 -176 40 -176 q 106 -92 106 -176 l 106 694 q 169 729 106 729 l 183 729 q 247 694 247 729 l 247 -99 q 199 -249 247 -204 q 86 -294 151 -294 m 46 799 q 25 803 32 799 q 18 815 18 808 q 28 840 18 821 l 103 968 q 168 997 122 997 l 183 997 q 247 968 228 997 l 324 840 q 333 817 333 826 q 306 799 333 799 l 275 799 q 231 819 243 799 l 175 910 l 121 819 q 75 799 106 799 l 46 799 z "},"k":{"ha":628,"x_min":106,"x_max":601,"o":"m 592 42 q 601 18 601 24 q 588 2 601 7 q 542 -3 574 -3 l 500 -3 q 467 1 476 -3 q 450 18 458 4 l 261 354 l 250 354 l 250 32 q 190 -3 250 -3 l 167 -3 q 106 32 106 -3 l 106 1011 q 167 1046 106 1046 l 190 1046 q 250 1011 250 1046 l 250 403 l 257 403 l 435 708 q 455 725 442 721 q 493 729 468 729 l 533 729 q 588 710 588 729 q 576 681 588 700 l 396 381 l 592 42 z "},"ķ":{"ha":628,"x_min":106,"x_max":601,"o":"m 592 42 q 601 18 601 24 q 588 2 601 7 q 542 -3 574 -3 l 500 -3 q 467 1 476 -3 q 450 18 458 4 l 261 354 l 250 354 l 250 32 q 190 -3 250 -3 l 167 -3 q 106 32 106 -3 l 106 1011 q 167 1046 106 1046 l 190 1046 q 250 1011 250 1046 l 250 403 l 257 403 l 435 708 q 455 725 442 721 q 493 729 468 729 l 533 729 q 588 710 588 729 q 576 681 588 700 l 396 381 l 592 42 m 274 -328 q 242 -322 256 -328 q 228 -304 228 -317 q 236 -267 228 -297 q 261 -119 261 -199 q 321 -71 261 -71 l 339 -71 q 378 -83 365 -71 q 392 -117 392 -96 q 371 -221 392 -172 q 322 -299 350 -269 q 274 -328 293 -328 z "},"ĸ":{"ha":628,"x_min":106,"x_max":601,"o":"m 167 -3 q 106 32 106 -3 l 106 694 q 167 729 106 729 l 190 729 q 250 694 250 729 l 250 410 l 257 410 l 431 708 q 453 725 438 721 q 493 729 468 729 l 525 729 q 579 710 579 729 q 567 676 579 697 l 386 386 l 592 42 q 601 18 601 24 q 588 2 601 7 q 542 -3 574 -3 l 506 -3 q 464 1 478 -3 q 443 18 450 4 l 258 343 l 250 343 l 250 32 q 190 -3 250 -3 l 167 -3 z "},"l":{"ha":375,"x_min":96,"x_max":357,"o":"m 251 -10 q 141 32 186 -10 q 96 171 96 74 l 96 1011 q 158 1046 96 1046 l 174 1046 q 238 1011 238 1046 l 238 178 q 283 108 238 108 q 308 112 297 108 q 324 115 318 115 q 347 87 338 115 q 357 39 357 58 q 323 2 357 14 q 251 -10 289 -10 z "},"ĺ":{"ha":375,"x_min":96,"x_max":357,"o":"m 251 -10 q 141 32 186 -10 q 96 171 96 74 l 96 1011 q 158 1046 96 1046 l 174 1046 q 238 1011 238 1046 l 238 178 q 283 108 238 108 q 308 112 297 108 q 324 115 318 115 q 347 87 338 115 q 357 39 357 58 q 323 2 357 14 q 251 -10 289 -10 m 153 1082 q 126 1085 133 1082 q 119 1099 119 1089 q 131 1131 119 1107 q 163 1197 142 1156 l 190 1254 q 278 1292 208 1292 q 326 1288 311 1292 q 340 1272 340 1283 q 328 1246 340 1264 q 289 1192 317 1228 q 265 1160 279 1179 q 228 1110 250 1140 q 201 1089 218 1096 q 153 1082 183 1082 z "},"ľ":{"ha":375,"x_min":96,"x_max":457,"o":"m 251 -10 q 141 32 186 -10 q 96 171 96 74 l 96 1011 q 158 1046 96 1046 l 174 1046 q 238 1011 238 1046 l 238 178 q 283 108 238 108 q 308 112 297 108 q 324 115 318 115 q 347 87 338 115 q 357 39 357 58 q 323 2 357 14 q 251 -10 289 -10 m 353 726 q 322 732 336 726 q 307 750 307 738 q 313 806 307 764 q 317 853 314 818 q 321 925 321 888 q 336 960 321 947 q 381 974 351 974 l 397 974 q 442 961 426 974 q 457 928 457 949 q 439 828 457 874 q 396 754 421 782 q 353 726 371 726 z "},"ļ":{"ha":375,"x_min":96,"x_max":357,"o":"m 251 -10 q 141 32 186 -10 q 96 171 96 74 l 96 1011 q 158 1046 96 1046 l 174 1046 q 238 1011 238 1046 l 238 178 q 283 108 238 108 q 308 112 297 108 q 324 115 318 115 q 347 87 338 115 q 357 39 357 58 q 323 2 357 14 q 251 -10 289 -10 m 161 -328 q 129 -322 143 -328 q 115 -304 115 -317 q 124 -267 115 -297 q 149 -119 149 -199 q 208 -71 149 -71 l 226 -71 q 266 -83 253 -71 q 279 -117 279 -96 q 258 -221 279 -172 q 209 -299 238 -269 q 161 -328 181 -328 z "},"ŀ":{"ha":429,"x_min":96,"x_max":447,"o":"m 251 -10 q 141 32 186 -10 q 96 171 96 74 l 96 1011 q 158 1046 96 1046 l 174 1046 q 238 1011 238 1046 l 238 178 q 283 108 238 108 q 308 112 297 108 q 324 115 318 115 q 347 87 338 115 q 357 39 357 58 q 323 2 357 14 q 251 -10 289 -10 m 371 421 q 317 442 338 421 q 296 500 296 464 q 317 558 296 536 q 371 579 338 579 q 426 558 404 579 q 447 500 447 536 q 426 442 447 464 q 371 421 404 421 z "},"ǉ":{"ha":721,"x_min":96,"x_max":625,"o":"m 251 -10 q 141 32 186 -10 q 96 171 96 74 l 96 1011 q 158 1046 96 1046 l 174 1046 q 238 1011 238 1046 l 238 178 q 283 108 238 108 q 308 112 297 108 q 324 115 318 115 q 347 87 338 115 q 357 39 357 58 q 323 2 357 14 q 251 -10 289 -10 m 461 -294 q 353 -244 353 -294 q 362 -198 353 -226 q 386 -169 371 -169 q 403 -173 390 -169 q 433 -176 415 -176 q 481 -92 481 -176 l 481 694 q 544 729 481 729 l 558 729 q 622 694 622 729 l 622 -99 q 574 -249 622 -204 q 461 -294 526 -294 m 553 832 q 481 867 481 832 l 481 940 q 553 975 481 975 q 625 940 625 975 l 625 867 q 553 832 625 832 z "},"ł":{"ha":383,"x_min":40,"x_max":365,"o":"m 332 115 q 356 87 346 115 q 365 39 365 58 q 331 2 365 14 q 260 -10 297 -10 q 149 32 194 -10 q 104 171 104 74 l 104 469 l 69 449 q 54 442 60 442 q 40 464 40 442 l 40 478 q 69 526 40 506 l 104 547 l 104 1011 q 167 1046 104 1046 l 182 1046 q 246 1011 246 1046 l 246 631 l 300 663 q 315 668 310 668 q 329 647 329 668 l 329 633 q 300 585 329 601 l 246 553 l 246 178 q 292 108 246 108 q 316 112 306 108 q 332 115 326 115 z "},"m":{"ha":1000,"x_min":83,"x_max":913,"o":"m 743 736 q 866 682 819 736 q 913 519 913 628 l 913 32 q 853 -3 913 -3 l 829 -3 q 768 32 768 -3 l 768 499 q 686 614 768 614 q 623 591 651 614 q 578 535 594 568 l 578 518 l 578 32 q 518 -3 578 -3 l 493 -3 q 432 32 432 -3 l 432 499 q 350 614 432 614 q 282 588 311 614 q 242 532 253 561 l 242 32 q 182 -3 242 -3 l 157 -3 q 97 32 97 -3 l 97 508 q 90 642 97 600 q 83 689 83 683 q 122 716 83 707 q 186 725 160 725 q 216 708 208 725 q 228 666 224 690 q 233 631 232 642 q 308 707 263 678 q 407 736 353 736 q 501 710 461 736 q 561 632 542 685 q 641 707 593 678 q 743 736 689 736 z "},"n":{"ha":669,"x_min":83,"x_max":583,"o":"m 157 -3 q 97 32 97 -3 l 97 508 q 90 642 97 600 q 83 689 83 683 q 122 716 83 707 q 186 725 160 725 q 216 708 208 725 q 228 666 224 690 q 233 631 232 642 q 311 708 265 679 q 411 736 357 736 q 539 681 494 736 q 583 525 583 625 l 583 32 q 524 -3 583 -3 l 500 -3 q 438 32 438 -3 l 438 504 q 353 614 438 614 q 290 592 319 614 q 242 532 261 569 l 242 32 q 182 -3 242 -3 l 157 -3 z "},"ń":{"ha":669,"x_min":83,"x_max":583,"o":"m 157 -3 q 97 32 97 -3 l 97 508 q 90 642 97 600 q 83 689 83 683 q 122 716 83 707 q 186 725 160 725 q 216 708 208 725 q 228 666 224 690 q 233 631 232 642 q 311 708 265 679 q 411 736 357 736 q 539 681 494 736 q 583 525 583 625 l 583 32 q 524 -3 583 -3 l 500 -3 q 438 32 438 -3 l 438 504 q 353 614 438 614 q 290 592 319 614 q 242 532 261 569 l 242 32 q 182 -3 242 -3 l 157 -3 m 324 808 q 297 812 304 808 q 290 825 290 815 q 301 858 290 833 q 333 924 313 882 l 361 981 q 449 1018 379 1018 q 497 1014 482 1018 q 511 999 511 1010 q 499 972 511 990 q 460 918 488 954 q 435 886 450 906 q 399 836 421 867 q 372 815 389 822 q 324 808 354 808 z "},"ŉ":{"ha":669,"x_min":-6,"x_max":583,"o":"m 40 744 q 8 750 22 744 q -6 768 -6 756 q 3 806 -6 775 q 28 953 28 875 q 88 1001 28 1001 l 106 1001 q 145 989 132 1001 q 158 956 158 976 q 138 851 158 900 q 88 774 117 803 q 40 744 60 744 m 157 -3 q 97 32 97 -3 l 97 508 q 90 642 97 600 q 83 689 83 683 q 122 716 83 707 q 186 725 160 725 q 216 708 208 725 q 228 666 224 690 q 233 631 232 642 q 311 708 265 679 q 411 736 357 736 q 539 681 494 736 q 583 525 583 625 l 583 32 q 524 -3 583 -3 l 500 -3 q 438 32 438 -3 l 438 504 q 353 614 438 614 q 290 592 319 614 q 242 532 261 569 l 242 32 q 182 -3 242 -3 l 157 -3 z "},"ň":{"ha":669,"x_min":83,"x_max":583,"o":"m 157 -3 q 97 32 97 -3 l 97 508 q 90 642 97 600 q 83 689 83 683 q 122 716 83 707 q 186 725 160 725 q 216 708 208 725 q 228 666 224 690 q 233 631 232 642 q 311 708 265 679 q 411 736 357 736 q 539 681 494 736 q 583 525 583 625 l 583 32 q 524 -3 583 -3 l 500 -3 q 438 32 438 -3 l 438 504 q 353 614 438 614 q 290 592 319 614 q 242 532 261 569 l 242 32 q 182 -3 242 -3 l 157 -3 m 329 806 q 265 835 283 806 l 190 961 q 181 986 181 981 q 208 1004 181 1004 l 238 1004 q 283 982 269 1004 l 338 893 l 393 982 q 438 1004 406 1004 l 468 1004 q 496 985 496 1004 q 486 961 496 978 l 410 835 q 385 812 400 818 q 347 806 369 806 l 329 806 z "},"ņ":{"ha":669,"x_min":83,"x_max":583,"o":"m 157 -3 q 97 32 97 -3 l 97 508 q 90 642 97 600 q 83 689 83 683 q 122 716 83 707 q 186 725 160 725 q 216 708 208 725 q 228 666 224 690 q 233 631 232 642 q 311 708 265 679 q 411 736 357 736 q 539 681 494 736 q 583 525 583 625 l 583 32 q 524 -3 583 -3 l 500 -3 q 438 32 438 -3 l 438 504 q 353 614 438 614 q 290 592 319 614 q 242 532 261 569 l 242 32 q 182 -3 242 -3 l 157 -3 m 283 -328 q 251 -322 265 -328 q 238 -304 238 -317 q 246 -267 238 -297 q 271 -119 271 -199 q 331 -71 271 -71 l 349 -71 q 388 -83 375 -71 q 401 -117 401 -96 q 381 -221 401 -172 q 331 -299 360 -269 q 283 -328 303 -328 z "},"ṅ":{"ha":669,"x_min":83,"x_max":583,"o":"m 157 -3 q 97 32 97 -3 l 97 508 q 90 642 97 600 q 83 689 83 683 q 122 716 83 707 q 186 725 160 725 q 216 708 208 725 q 228 666 224 690 q 233 631 232 642 q 311 708 265 679 q 411 736 357 736 q 539 681 494 736 q 583 525 583 625 l 583 32 q 524 -3 583 -3 l 500 -3 q 438 32 438 -3 l 438 504 q 353 614 438 614 q 290 592 319 614 q 242 532 261 569 l 242 32 q 182 -3 242 -3 l 157 -3 m 339 832 q 267 867 267 832 l 267 940 q 339 975 267 975 q 411 940 411 975 l 411 867 q 339 832 411 832 z "},"ŋ":{"ha":669,"x_min":83,"x_max":583,"o":"m 419 -294 q 311 -244 311 -294 q 320 -198 311 -226 q 343 -169 329 -169 q 361 -173 349 -169 q 392 -176 374 -176 q 426 -158 414 -176 q 438 -92 438 -139 l 438 504 q 353 614 438 614 q 290 592 319 614 q 242 532 261 569 l 242 32 q 182 -3 242 -3 l 157 -3 q 97 32 97 -3 l 97 508 q 90 642 97 600 q 83 689 83 683 q 122 716 83 707 q 186 725 160 725 q 216 708 208 725 q 228 666 224 690 q 233 631 232 642 q 311 708 265 679 q 411 736 357 736 q 539 681 494 736 q 583 525 583 625 l 583 -99 q 535 -249 583 -204 q 419 -294 486 -294 z "},"ǌ":{"ha":1015,"x_min":83,"x_max":919,"o":"m 157 -3 q 97 32 97 -3 l 97 508 q 90 642 97 600 q 83 689 83 683 q 122 716 83 707 q 186 725 160 725 q 216 708 208 725 q 228 666 224 690 q 233 631 232 642 q 311 708 265 679 q 411 736 357 736 q 539 681 494 736 q 583 525 583 625 l 583 32 q 524 -3 583 -3 l 500 -3 q 438 32 438 -3 l 438 504 q 353 614 438 614 q 290 592 319 614 q 242 532 261 569 l 242 32 q 182 -3 242 -3 l 157 -3 m 756 -294 q 647 -244 647 -294 q 656 -198 647 -226 q 681 -169 665 -169 q 697 -173 685 -169 q 728 -176 710 -176 q 775 -92 775 -176 l 775 694 q 839 729 775 729 l 853 729 q 917 694 917 729 l 917 -99 q 869 -249 917 -204 q 756 -294 821 -294 m 847 832 q 775 867 775 832 l 775 940 q 847 975 775 975 q 919 940 919 975 l 919 867 q 847 832 919 832 z "},"ñ":{"ha":669,"x_min":83,"x_max":583,"o":"m 157 -3 q 97 32 97 -3 l 97 508 q 90 642 97 600 q 83 689 83 683 q 122 716 83 707 q 186 725 160 725 q 216 708 208 725 q 228 666 224 690 q 233 631 232 642 q 311 708 265 679 q 411 736 357 736 q 539 681 494 736 q 583 525 583 625 l 583 32 q 524 -3 583 -3 l 500 -3 q 438 32 438 -3 l 438 504 q 353 614 438 614 q 290 592 319 614 q 242 532 261 569 l 242 32 q 182 -3 242 -3 l 157 -3 m 147 822 q 128 844 128 829 q 132 864 128 854 q 250 960 168 960 q 346 932 282 960 q 378 919 351 929 q 422 908 404 908 q 447 915 436 908 q 469 940 457 922 q 500 963 483 963 q 517 958 506 963 l 528 954 q 544 945 539 950 q 549 932 549 940 q 543 913 549 926 q 425 817 506 817 q 383 824 404 817 q 328 844 361 831 q 286 861 307 854 q 250 868 265 868 q 228 861 238 868 q 206 835 218 854 q 176 815 192 815 q 161 818 172 815 l 147 822 z "},"o":{"ha":663,"x_min":60,"x_max":603,"o":"m 332 -10 q 129 85 199 -10 q 60 361 60 181 q 130 639 60 542 q 332 736 200 736 q 534 640 465 736 q 603 361 603 543 q 534 85 603 181 q 332 -10 465 -10 m 331 108 q 426 169 396 108 q 456 363 456 231 q 426 557 456 496 q 331 618 396 618 q 238 557 267 618 q 208 363 208 496 q 238 169 208 229 q 331 108 267 108 z "},"ó":{"ha":663,"x_min":60,"x_max":603,"o":"m 332 -10 q 129 85 199 -10 q 60 361 60 181 q 130 639 60 542 q 332 736 200 736 q 534 640 465 736 q 603 361 603 543 q 534 85 603 181 q 332 -10 465 -10 m 331 108 q 426 169 396 108 q 456 363 456 231 q 426 557 456 496 q 331 618 396 618 q 238 557 267 618 q 208 363 208 496 q 238 169 208 229 q 331 108 267 108 m 318 808 q 292 812 299 808 q 285 825 285 815 q 296 858 285 833 q 328 924 307 882 l 356 981 q 443 1018 374 1018 q 491 1014 476 1018 q 506 999 506 1010 q 494 972 506 990 q 454 918 482 954 q 430 886 444 906 q 393 836 415 867 q 366 815 383 822 q 318 808 349 808 z "},"ŏ":{"ha":663,"x_min":60,"x_max":603,"o":"m 332 -10 q 129 85 199 -10 q 60 361 60 181 q 130 639 60 542 q 332 736 200 736 q 534 640 465 736 q 603 361 603 543 q 534 85 603 181 q 332 -10 465 -10 m 331 108 q 426 169 396 108 q 456 363 456 231 q 426 557 456 496 q 331 618 396 618 q 238 557 267 618 q 208 363 208 496 q 238 169 208 229 q 331 108 267 108 m 332 808 q 210 851 257 808 q 164 965 164 894 q 197 993 164 993 q 217 987 211 993 q 231 961 222 981 q 265 923 242 936 q 332 910 289 910 q 433 963 413 910 q 446 987 440 981 q 465 993 451 993 q 499 965 499 993 q 452 851 499 894 q 332 808 406 808 z "},"ô":{"ha":663,"x_min":60,"x_max":603,"o":"m 332 -10 q 129 85 199 -10 q 60 361 60 181 q 130 639 60 542 q 332 736 200 736 q 534 640 465 736 q 603 361 603 543 q 534 85 603 181 q 332 -10 465 -10 m 331 108 q 426 169 396 108 q 456 363 456 231 q 426 557 456 496 q 331 618 396 618 q 238 557 267 618 q 208 363 208 496 q 238 169 208 229 q 331 108 267 108 m 201 799 q 181 803 188 799 q 174 815 174 808 q 183 840 174 821 l 258 968 q 324 997 278 997 l 339 997 q 403 968 383 997 l 479 840 q 489 817 489 826 q 461 799 489 799 l 431 799 q 386 819 399 799 l 331 910 l 276 819 q 231 799 261 799 l 201 799 z "},"ố":{"ha":643,"x_min":60,"x_max":651,"o":"m 464 997 q 438 1001 446 997 q 431 1014 431 1004 q 442 1047 431 1022 q 474 1113 453 1071 l 501 1169 q 589 1207 521 1207 q 637 1203 622 1207 q 651 1188 651 1199 q 640 1161 651 1179 q 600 1107 628 1143 q 576 1075 590 1094 q 539 1025 561 1056 q 512 1004 529 1011 q 464 997 494 997 m 200 799 q 172 815 172 799 q 179 840 172 826 l 249 968 q 313 997 265 997 l 329 997 q 369 991 353 997 q 393 968 385 985 l 463 840 q 471 817 471 824 q 463 803 471 808 q 443 799 456 799 l 414 799 q 368 818 379 799 l 321 910 l 274 819 q 257 803 268 807 q 229 799 246 799 l 200 799 m 332 -10 q 129 85 199 -10 q 60 361 60 181 q 130 639 60 542 q 332 736 200 736 q 534 640 465 736 q 603 361 603 543 q 534 85 603 181 q 332 -10 465 -10 m 331 108 q 426 169 396 108 q 456 363 456 231 q 426 557 456 496 q 331 618 396 618 q 238 557 267 618 q 208 363 208 496 q 238 169 208 229 q 331 108 267 108 z "}}}
